Fraunces72ptSharp-Italic.ufo
<glyph name="exclam" format="2">
  <advance width="595.0933333333334"/>
  <unicode hex="0021"/>
  <outline>
    <contour>
      <point x="575.36" y="1477.9466666666665" type="curve" smooth="yes"/>
      <point x="493.0" y="1477.9466666666665"/>
      <point x="444.69333333333327" y="1437.333333333333"/>
      <point x="427.9200000000001" y="1366.9733333333336" type="curve" smooth="yes"/>
      <point x="421.82666666666665" y="1343.3733333333334"/>
      <point x="418.6000000000001" y="1317.04"/>
      <point x="416.0533333333334" y="1289.4266666666667" type="curve" smooth="yes"/>
      <point x="263.7866666666666" y="450.08" type="line" smooth="yes"/>
      <point x="261.37333333333333" y="429.0933333333334"/>
      <point x="267.06666666666666" y="420.1866666666667"/>
      <point x="283.70666666666665" y="420.1866666666667" type="curve" smooth="yes"/>
      <point x="300.4266666666667" y="420.1866666666667"/>
      <point x="311.2133333333333" y="429.4133333333333"/>
      <point x="321.33333333333337" y="450.0" type="curve" smooth="yes"/>
      <point x="636.4266666666667" y="1285.5599999999997" type="line" smooth="yes"/>
      <point x="654.0985290110372" y="1322.3377472510797"/>
      <point x="667.7599999999998" y="1359.9244444444444"/>
      <point x="670.7733333333332" y="1383.5599999999997" type="curve" smooth="yes"/>
      <point x="680.7466666666666" y="1438.949172259508"/>
      <point x="652.6666666666666" y="1477.9466666666665"/>
    </contour>
    <component base="period" xOffset="37.080000000000005" yOffset="4.359999999999999"/>
  </outline>
</glyph>
<glyph name="numbersign" format="2">
  <advance width="1201.72"/>
  <unicode hex="0023"/>
  <outline>
    <contour>
      <point x="527.0266666666666" y="691.3199999999999" type="curve" smooth="yes"/>
      <point x="591.0933333333332" y="800.6666666666667"/>
      <point x="826.3466666666668" y="1253.24"/>
      <point x="889.6933333333333" y="1359.8799999999999" type="curve" smooth="yes"/>
      <point x="903.5999999999999" y="1383.1866666666667"/>
      <point x="901.6666666666667" y="1397.1066666666666"/>
      <point x="885.0666666666666" y="1401.9733333333334" type="curve" smooth="yes"/>
      <point x="867.1866666666666" y="1407.2666666666667"/>
      <point x="849.9200000000001" y="1397.613333333333"/>
      <point x="835.8266666666667" y="1375.44" type="curve" smooth="yes"/>
      <point x="779.1066666666669" y="1275.2533333333333"/>
      <point x="554.5733333333334" y="816.8133333333334"/>
      <point x="488.6533333333333" y="704.9733333333332" type="curve" smooth="yes"/>
      <point x="426.34666666666664" y="598.6666666666666"/>
      <point x="169.96" y="131.95999999999998"/>
      <point x="113.45333333333333" y="36.93333333333333" type="curve" smooth="yes"/>
      <point x="101.05333333333333" y="16.24"/>
      <point x="103.10666666666667" y="1.4799999999999998"/>
      <point x="119.9466666666667" y="-2.96" type="curve" smooth="yes"/>
      <point x="138.68" y="-7.613333333333335"/>
      <point x="154.88000000000002" y="2.4533333333333336"/>
      <point x="168.13333333333333" y="23.14666666666666" type="curve" smooth="yes"/>
      <point x="224.82666666666663" y="120.54666666666667"/>
      <point x="466.0133333333334" y="588.5466666666666"/>
    </contour>
    <contour>
      <point x="761.5733333333333" y="874.4133333333334" type="curve" smooth="yes"/>
      <point x="850.1333333333333" y="874.4133333333334"/>
      <point x="1148.76" y="865.96"/>
      <point x="1234.0400000000002" y="865.4266666666666" type="curve" smooth="yes"/>
      <point x="1258.8933333333334" y="865.9599999999999"/>
      <point x="1276.3733333333332" y="875.6933333333334"/>
      <point x="1282.5199999999998" y="894.1866666666666" type="curve" smooth="yes"/>
      <point x="1287.493333333333" y="911.8266666666667"/>
      <point x="1275.1333333333334" y="920.7466666666669"/>
      <point x="1251.3466666666666" y="920.7466666666669" type="curve" smooth="yes"/>
      <point x="1170.5200000000002" y="920.0000000000001"/>
      <point x="864.4533333333335" y="913.2266666666667"/>
      <point x="773.4133333333332" y="913.2266666666667" type="curve" smooth="yes"/>
      <point x="679.1333333333332" y="911.8800000000001"/>
      <point x="360.22666666666663" y="923.9066666666668"/>
      <point x="276.77333333333337" y="923.3733333333334" type="curve" smooth="yes"/>
      <point x="254.14666666666673" y="923.1600000000002"/>
      <point x="237.73333333333326" y="914.4533333333334"/>
      <point x="232.11999999999998" y="896.0666666666666" type="curve" smooth="yes"/>
      <point x="226.61333333333332" y="878.1066666666668"/>
      <point x="237.48000000000002" y="868.0533333333334"/>
      <point x="261.1333333333333" y="868.2666666666665" type="curve" smooth="yes"/>
      <point x="348.65333333333336" y="868.0533333333334"/>
      <point x="671.4933333333333" y="873.0666666666667"/>
    </contour>
    <contour>
      <point x="862.1333333333332" y="691.3199999999999" type="curve" smooth="yes"/>
      <point x="925.2933333333335" y="800.2666666666667"/>
      <point x="1161.4533333333334" y="1253.4266666666667"/>
      <point x="1223.8933333333332" y="1359.48" type="curve" smooth="yes"/>
      <point x="1238.3866666666663" y="1382.7866666666666"/>
      <point x="1236.7733333333333" y="1397.1066666666666"/>
      <point x="1219.8533333333335" y="1401.9733333333334" type="curve" smooth="yes"/>
      <point x="1201.9733333333331" y="1407.2666666666667"/>
      <point x="1185.2400000000002" y="1397.4266666666665"/>
      <point x="1171.0666666666664" y="1375.04" type="curve" smooth="yes"/>
      <point x="1113.7866666666669" y="1275.4399999999998"/>
      <point x="889.6800000000001" y="817.2133333333334"/>
      <point x="823.76" y="704.9733333333332" type="curve" smooth="yes"/>
      <point x="761.0266666666666" y="598.48"/>
      <point x="504.34666666666664" y="131.7733333333333"/>
      <point x="448.23999999999995" y="36.93333333333333" type="curve" smooth="yes"/>
      <point x="435.84" y="16.426666666666662"/>
      <point x="437.8933333333333" y="1.4799999999999998"/>
      <point x="454.92" y="-2.96" type="curve" smooth="yes"/>
      <point x="473.7866666666667" y="-7.613333333333335"/>
      <point x="489.9866666666667" y="2.6399999999999997"/>
      <point x="503.1333333333333" y="23.14666666666666" type="curve" smooth="yes"/>
      <point x="559.6133333333333" y="120.67999999999999"/>
      <point x="801.0133333333334" y="588.5466666666666"/>
    </contour>
    <contour>
      <point x="584.9999999999999" y="490.06666666666666" type="curve" smooth="yes"/>
      <point x="673.3733333333333" y="490.06666666666666"/>
      <point x="972.4133333333332" y="482.14666666666665"/>
      <point x="1057.373333333333" y="481.40000000000003" type="curve" smooth="yes"/>
      <point x="1082.2266666666667" y="481.82666666666677"/>
      <point x="1100.3866666666668" y="491.6666666666667"/>
      <point x="1106.8533333333335" y="510.16" type="curve" smooth="yes"/>
      <point x="1111.226666666667" y="527.8000000000001"/>
      <point x="1098.746666666667" y="536.7200000000001"/>
      <point x="1075.2800000000002" y="536.7200000000001" type="curve" smooth="yes"/>
      <point x="994.8533333333335" y="535.6533333333334"/>
      <point x="688.2533333333332" y="528.8800000000001"/>
      <point x="597.5600000000001" y="528.8800000000001" type="curve" smooth="yes"/>
      <point x="503.1866666666667" y="527.7466666666668"/>
      <point x="184.0533333333333" y="539.56"/>
      <point x="101.42666666666669" y="539.3466666666667" type="curve" smooth="yes"/>
      <point x="78.26666666666667" y="539.3466666666667"/>
      <point x="61.53333333333333" y="530.32"/>
      <point x="56.133333333333326" y="511.93333333333334" type="curve" smooth="yes"/>
      <point x="50.94666666666667" y="493.9733333333333"/>
      <point x="61.49333333333335" y="483.92"/>
      <point x="84.93333333333335" y="484.24" type="curve" smooth="yes"/>
      <point x="172.08" y="483.92"/>
      <point x="495.0266666666667" y="488.9333333333334"/>
    </contour>
  </outline>
</glyph>
<glyph name="dollar" format="2">
  <advance width="1066.3733333333332"/>
  <unicode hex="0024"/>
  <outline>
    <contour>
      <point x="431.17333333333335" y="5.800000000000002" type="curve" smooth="yes"/>
      <point x="679.1866666666667" y="5.800000000000002"/>
      <point x="900.04" y="126.21333333333332"/>
      <point x="942.5466666666669" y="317.8" type="curve" smooth="yes"/>
      <point x="983.0133333333333" y="480.8933333333333"/>
      <point x="915.5733333333335" y="624.8"/>
      <point x="678.6533333333333" y="777.0" type="curve" smooth="yes"/>
      <point x="471.2000000000001" y="910.64"/>
      <point x="419.96000000000004" y="1010.2399999999998"/>
      <point x="453.9333333333334" y="1144.0666666666668" type="curve" smooth="yes"/>
      <point x="486.2133333333333" y="1276.6"/>
      <point x="623.9466666666666" y="1358.6933333333332"/>
      <point x="787.6133333333333" y="1358.6933333333332" type="curve" smooth="yes"/>
      <point x="931.9999999999999" y="1358.6933333333332"/>
      <point x="992.6399999999999" y="1296.3733333333332"/>
      <point x="987.5333333333331" y="1171.6933333333332" type="curve" smooth="yes"/>
      <point x="982.6666666666666" y="1097.52" type="line" smooth="yes"/>
      <point x="976.7466666666668" y="1037.3866666666665"/>
      <point x="1004.7733333333334" y="1004.1733333333334"/>
      <point x="1055.7733333333333" y="1003.7733333333334" type="curve" smooth="yes"/>
      <point x="1112.9466666666665" y="1003.5866666666666"/>
      <point x="1158.0133333333333" y="1052.6666666666665"/>
      <point x="1159.2133333333331" y="1127.32" type="curve" smooth="yes"/>
      <point x="1164.3333333333333" y="1276.1466666666668"/>
      <point x="1043.2400000000002" y="1391.6"/>
      <point x="795.16" y="1391.6" type="curve" smooth="yes"/>
      <point x="520.8400000000001" y="1391.6"/>
      <point x="326.52000000000004" y="1251.4"/>
      <point x="282.9066666666667" y="1065.88" type="curve" smooth="yes"/>
      <point x="237.72000000000003" y="886.9866666666666"/>
      <point x="298.71999999999997" y="746.4266666666666"/>
      <point x="543.9733333333334" y="602.5066666666665" type="curve" smooth="yes"/>
      <point x="741.0133333333332" y="485.53333333333336"/>
      <point x="795.2533333333333" y="375.03999999999996"/>
      <point x="761.4266666666667" y="240.12" type="curve" smooth="yes"/>
      <point x="729.6" y="111.58666666666666"/>
      <point x="599.7066666666667" y="40.01333333333335"/>
      <point x="439.09333333333336" y="40.01333333333335" type="curve" smooth="yes"/>
      <point x="279.96" y="40.01333333333335"/>
      <point x="205.54666666666668" y="110.14666666666665"/>
      <point x="214.80000000000004" y="229.82666666666665" type="curve" smooth="yes"/>
      <point x="220.15999999999997" y="314.9466666666667" type="line" smooth="yes"/>
      <point x="226.44" y="379.3466666666667"/>
      <point x="202.28" y="415.2799999999999"/>
      <point x="152.98666666666668" y="415.28000000000003" type="curve" smooth="yes"/>
      <point x="95.93333333333334" y="415.28000000000003"/>
      <point x="49.45333333333333" y="365.24"/>
      <point x="45.906666666666666" y="278.0266666666667" type="curve" smooth="yes"/>
      <point x="36.2" y="117.46666666666668"/>
      <point x="169.69333333333336" y="5.800000000000002"/>
    </contour>
    <contour>
      <point x="641.4666666666667" y="721.56" type="line"/>
      <point x="777.36" y="1199.4266666666665"/>
      <point x="851.72" y="1393.4"/>
      <point x="877.8933333333333" y="1491.7066666666665" type="curve" smooth="yes"/>
      <point x="887.6533333333333" y="1523.1066666666666"/>
      <point x="875.5733333333334" y="1539.52"/>
      <point x="853.0933333333332" y="1539.52" type="curve" smooth="yes"/>
      <point x="829.16" y="1539.52"/>
      <point x="808.0133333333334" y="1522.8933333333332"/>
      <point x="799.0266666666668" y="1492.7333333333333" type="curve" smooth="yes"/>
      <point x="769.0933333333332" y="1382.2799999999997"/>
      <point x="740.7199999999999" y="1195.1466666666665"/>
      <point x="605.44" y="721.56" type="curve"/>
    </contour>
    <contour>
      <point x="581.8666666666667" y="681.5999999999999" type="line"/>
      <point x="448.4266666666666" y="213.89333333333337"/>
      <point x="378.38666666666666" y="27.720000000000002"/>
      <point x="348.5466666666667" y="-82.62666666666668" type="curve" smooth="yes"/>
      <point x="338.61333333333334" y="-115.06666666666665"/>
      <point x="350.05333333333334" y="-131.24"/>
      <point x="373.7733333333333" y="-131.24" type="curve" smooth="yes"/>
      <point x="398.0666666666667" y="-131.24"/>
      <point x="418.2533333333332" y="-114.57333333333334"/>
      <point x="427.97333333333336" y="-83.09333333333335" type="curve" smooth="yes"/>
      <point x="454.8666666666667" y="16.466666666666672"/>
      <point x="484.08" y="210.1466666666667"/>
      <point x="618.2133333333334" y="681.5999999999999" type="curve"/>
    </contour>
  </outline>
</glyph>
<glyph name="ampersand" format="2">
  <advance width="1276.0133333333333"/>
  <unicode hex="0026"/>
  <outline>
    <contour>
      <point x="178.14666666666665" y="194.78666666666663" type="line" smooth="yes"/>
      <point x="1.693333333333328" y="53.85333333333332"/>
      <point x="-82.82666666666667" y="-77.96000000000002"/>
      <point x="-82.26666666666667" y="-211.82666666666668" type="curve" smooth="yes"/>
      <point x="-81.49333333333335" y="-323.65333333333336"/>
      <point x="-34.97333333333333" y="-376.8666666666666"/>
      <point x="29.68000000000002" y="-376.0933333333333" type="curve" smooth="yes"/>
      <point x="84.17333333333332" y="-375.32"/>
      <point x="122.03999999999999" y="-336.0266666666667"/>
      <point x="121.45333333333329" y="-289.9866666666667" type="curve" smooth="yes"/>
      <point x="120.49333333333331" y="-230.74666666666667"/>
      <point x="45.88" y="-203.99999999999997"/>
      <point x="45.50666666666667" y="-111.16000000000001" type="curve" smooth="yes"/>
      <point x="44.733333333333334" y="-13.506666666666666"/>
      <point x="98.42666666666669" y="82.08"/>
      <point x="228.4666666666667" y="187.7733333333333" type="curve" smooth="yes"/>
      <point x="1157.3466666666668" y="941.7066666666667" type="line" smooth="yes"/>
      <point x="1344.9066666666665" y="1093.28"/>
      <point x="1411.1733333333336" y="1198.3066666666666"/>
      <point x="1410.6133333333335" y="1331.173333333333" type="curve" smooth="yes"/>
      <point x="1409.8400000000001" y="1428.1333333333334"/>
      <point x="1356.6533333333334" y="1489.04"/>
      <point x="1294.44" y="1488.0533333333333" type="curve" smooth="yes"/>
      <point x="1237.3200000000002" y="1487.28"/>
      <point x="1203.3733333333332" y="1446.52"/>
      <point x="1203.96" y="1399.1200000000001" type="curve" smooth="yes"/>
      <point x="1204.92" y="1336.2799999999997"/>
      <point x="1276.6533333333332" y="1298.4799999999998"/>
      <point x="1277.0266666666666" y="1217.4133333333334" type="curve" smooth="yes"/>
      <point x="1277.9866666666667" y="1126.0400000000002"/>
      <point x="1237.44" y="1058.1999999999998"/>
      <point x="1115.8666666666668" y="956.1066666666667" type="curve" smooth="yes"/>
    </contour>
    <contour>
      <point x="1004.4533333333333" y="333.3200000000001" type="curve" smooth="yes"/>
      <point x="999.84" y="177.33333333333331"/>
      <point x="851.68" y="33.533333333333324"/>
      <point x="663.2000000000002" y="33.533333333333324" type="curve" smooth="yes"/>
      <point x="467.4666666666667" y="33.533333333333324"/>
      <point x="336.21333333333337" y="210.47999999999996"/>
      <point x="397.2933333333334" y="550.12" type="curve" smooth="yes"/>
      <point x="453.79999999999995" y="868.7866666666666"/>
      <point x="596.6533333333333" y="1044.2666666666669"/>
      <point x="750.9333333333334" y="1044.2666666666669" type="curve" smooth="yes"/>
      <point x="842.0400000000001" y="1044.2666666666669"/>
      <point x="885.4" y="971.0133333333332"/>
      <point x="879.5066666666665" y="844.2666666666668" type="curve" smooth="yes"/>
      <point x="873.8266666666667" y="772.4133333333334"/>
      <point x="859.4800000000001" y="725.9866666666667"/>
      <point x="845.3866666666665" y="697.0133333333333" type="curve"/>
      <point x="917.9200000000001" y="752.1866666666667"/>
      <point x="972.1466666666668" y="774.8133333333334"/>
      <point x="1034.8266666666664" y="776.5200000000001" type="curve" smooth="yes"/>
      <point x="1064.2133333333334" y="778.2266666666666"/>
      <point x="1079.9599999999998" y="803.1066666666667"/>
      <point x="1081.5600000000002" y="840.8800000000001" type="curve" smooth="yes"/>
      <point x="1087.2933333333333" y="973.4399999999999"/>
      <point x="979.8666666666666" y="1084.6000000000001"/>
      <point x="785.6266666666668" y="1084.6000000000001" type="curve"/>
      <point x="497.79999999999995" y="1084.6000000000001"/>
      <point x="238.58666666666667" y="861.0666666666667"/>
      <point x="172.93333333333334" y="531.88" type="curve" smooth="yes"/>
      <point x="108.78666666666669" y="201.9466666666667"/>
      <point x="284.6" y="-20.96"/>
      <point x="590.8666666666668" y="-20.96" type="curve" smooth="yes"/>
      <point x="927.32" y="-20.96"/>
      <point x="1167.08" y="215.10666666666668"/>
      <point x="1175.9333333333332" y="509.72" type="curve" smooth="yes"/>
      <point x="1179.2133333333331" y="585.4399999999999"/>
      <point x="1141.3333333333335" y="625.1866666666667"/>
      <point x="1082.3199999999997" y="625.1866666666667" type="curve" smooth="yes"/>
      <point x="1012.5333333333332" y="625.1866666666667"/>
      <point x="968.8266666666667" y="571.68"/>
      <point x="966.6933333333335" y="521.1466666666668" type="curve" smooth="yes"/>
      <point x="963.2266666666666" y="454.98666666666657"/>
      <point x="1007.7333333333336" y="409.8666666666666"/>
    </contour>
  </outline>
</glyph>
<glyph name="quotesingle" format="2">
  <advance width="298.8666666666667"/>
  <unicode hex="0027"/>
  <outline>
    <contour>
      <point x="267.44" y="917.6" type="curve" smooth="yes"/>
      <point x="283.8533333333333" y="917.6"/>
      <point x="297.44" y="927.0933333333332"/>
      <point x="307.97333333333336" y="950.2266666666667" type="curve" smooth="yes"/>
      <point x="495.5200000000001" y="1412.6799999999998" type="line" smooth="yes"/>
      <point x="538.36" y="1508.6133333333335"/>
      <point x="520.1066666666668" y="1561.3333333333333"/>
      <point x="445.8400000000001" y="1561.3333333333333" type="curve" smooth="yes"/>
      <point x="371.9066666666666" y="1561.3333333333333"/>
      <point x="323.88" y="1508.1866666666665"/>
      <point x="313.87999999999994" y="1412.2799999999997" type="curve" smooth="yes"/>
      <point x="245.94666666666672" y="950.6533333333333" type="line" smooth="yes"/>
      <point x="243.2533333333334" y="928.5333333333334"/>
      <point x="252.62666666666678" y="917.6"/>
    </contour>
  </outline>
</glyph>
<glyph name="parenleft" format="2">
  <advance width="678.0266666666668"/>
  <unicode hex="0028"/>
  <outline>
    <contour>
      <point x="222.86666666666667" y="649.5466666666666" type="curve" smooth="yes"/>
      <point x="107.64" y="234.99999999999997"/>
      <point x="225.83999999999997" y="-110.92"/>
      <point x="419.14666666666665" y="-224.96" type="curve" smooth="yes"/>
      <point x="445.6133333333333" y="-237.8"/>
      <point x="465.4266666666666" y="-239.64"/>
      <point x="475.59999999999997" y="-228.24000000000004" type="curve" smooth="yes"/>
      <point x="483.4" y="-219.44000000000003"/>
      <point x="479.5199999999999" y="-207.38666666666668"/>
      <point x="461.3333333333333" y="-183.97333333333333" type="curve" smooth="yes"/>
      <point x="330.11999999999995" y="-25.626666666666676"/>
      <point x="290.6933333333333" y="295.47999999999996"/>
      <point x="388.81333333333333" y="649.5466666666667" type="curve" smooth="yes"/>
      <point x="480.05333333333334" y="978.0799999999999"/>
      <point x="647.9999999999999" y="1256.36"/>
      <point x="885.24" y="1425.8933333333332" type="curve" smooth="yes"/>
      <point x="916.3866666666668" y="1450.1599999999999"/>
      <point x="926.6800000000001" y="1461.0399999999997"/>
      <point x="924.6400000000002" y="1470.1599999999996" type="curve" smooth="yes"/>
      <point x="922.16" y="1481.8799999999999"/>
      <point x="900.4666666666666" y="1480.466666666667"/>
      <point x="866.7866666666666" y="1466.8799999999999" type="curve" smooth="yes"/>
      <point x="583.4133333333334" y="1341.0"/>
      <point x="327.99999999999994" y="1030.8933333333332"/>
    </contour>
  </outline>
</glyph>
<glyph name="asterisk" format="2">
  <advance width="1165.8133333333333"/>
  <unicode hex="002A"/>
  <outline>
    <contour>
      <point x="717.6133333333332" y="1021.3733333333333" type="line"/>
      <point x="776.7466666666664" y="1278.9999999999998"/>
      <point x="880.5733333333334" y="1372.2133333333331"/>
      <point x="903.8933333333333" y="1462.2800000000002" type="curve" smooth="yes"/>
      <point x="919.32" y="1521.28"/>
      <point x="894.4933333333332" y="1552.04"/>
      <point x="837.4533333333333" y="1552.04" type="curve" smooth="yes"/>
      <point x="776.2266666666667" y="1552.04"/>
      <point x="736.9733333333331" y="1521.2800000000002"/>
      <point x="721.6533333333334" y="1462.28" type="curve" smooth="yes"/>
      <point x="698.2266666666665" y="1372.6133333333332"/>
      <point x="752.8133333333332" y="1278.9999999999998"/>
      <point x="693.4666666666667" y="1021.3733333333333" type="curve"/>
    </contour>
    <contour>
      <point x="704.9333333333333" y="1031.6666666666667" type="curve"/>
      <point x="706.0266666666665" y="1009.9066666666666" type="line"/>
      <point x="948.7733333333333" y="1090.386666666667"/>
      <point x="1053.4266666666667" y="1043.4399999999998"/>
      <point x="1146.3199999999997" y="1071.2266666666667" type="curve" smooth="yes"/>
      <point x="1206.7066666666665" y="1089.6266666666666"/>
      <point x="1237.1466666666665" y="1130.2"/>
      <point x="1232.9866666666667" y="1184.2400000000002" type="curve" smooth="yes"/>
      <point x="1229.7733333333335" y="1242.2533333333333"/>
      <point x="1196.653333333333" y="1261.8"/>
      <point x="1135.6666666666665" y="1243.6133333333335" type="curve" smooth="yes"/>
      <point x="1042.96" y="1215.9333333333334"/>
      <point x="947.52" y="1111.6133333333335"/>
    </contour>
    <contour>
      <point x="712.2" y="1032.3066666666666" type="line"/>
      <point x="505.44" y="1112.253333333333"/>
      <point x="465.46666666666675" y="1215.9333333333332"/>
      <point x="387.09333333333336" y="1243.6133333333335" type="curve" smooth="yes"/>
      <point x="335.9733333333333" y="1261.8"/>
      <point x="290.1466666666667" y="1239.96"/>
      <point x="258.6533333333333" y="1186.0266666666666" type="curve" smooth="yes"/>
      <point x="223.88" y="1128.5466666666669"/>
      <point x="233.92" y="1089.6266666666666"/>
      <point x="284.82666666666665" y="1071.2266666666667" type="curve" smooth="yes"/>
      <point x="363.22666666666663" y="1043.44"/>
      <point x="491.86666666666673" y="1090.7066666666667"/>
      <point x="698.8000000000001" y="1010.5466666666666" type="curve"/>
    </contour>
    <contour>
      <point x="697.0266666666668" y="1027.64" type="line"/>
      <point x="510.55999999999995" y="819.4133333333334"/>
      <point x="382.44" y="790.0933333333334"/>
      <point x="310.12" y="718.0400000000001" type="curve" smooth="yes"/>
      <point x="262.3066666666666" y="669.9200000000001"/>
      <point x="260.3466666666667" y="625.6800000000002"/>
      <point x="296.92" y="591.6933333333334" type="curve" smooth="yes"/>
      <point x="337.2000000000001" y="556.6933333333333"/>
      <point x="382.28" y="563.3866666666667"/>
      <point x="428.9866666666667" y="611.04" type="curve" smooth="yes"/>
      <point x="500.93333333333334" y="683.5066666666667"/>
      <point x="526.7199999999999" y="805.9866666666666"/>
      <point x="712.4133333333333" y="1014.9999999999999" type="curve"/>
    </contour>
    <contour>
      <point x="693.36" y="1014.68" type="line"/>
      <point x="785.16" y="805.9866666666667"/>
      <point x="745.5199999999999" y="683.9066666666668"/>
      <point x="778.9466666666666" y="611.0400000000001" type="curve" smooth="yes"/>
      <point x="801.24" y="563.3866666666667"/>
      <point x="845.6133333333333" y="557.84"/>
      <point x="899.5333333333333" y="590.9066666666669" type="curve" smooth="yes"/>
      <point x="958.5333333333333" y="627.2266666666666"/>
      <point x="976.64" y="669.9200000000001"/>
      <point x="955.1333333333333" y="718.04" type="curve" smooth="yes"/>
      <point x="921.7066666666665" y="789.9066666666668"/>
      <point x="808.9600000000002" y="819.4133333333333"/>
      <point x="716.2933333333333" y="1027.32" type="curve"/>
    </contour>
  </outline>
</glyph>
<glyph name="plus" format="2">
  <advance width="1014.0"/>
  <unicode hex="002B"/>
  <outline>
    <contour>
      <point x="470.0533333333334" y="300.4800000000001" type="curve" smooth="yes"/>
      <point x="490.0133333333333" y="299.8933333333333"/>
      <point x="505.47999999999996" y="311.44"/>
      <point x="510.40000000000003" y="326.64000000000004" type="curve" smooth="yes"/>
      <point x="695.7733333333333" y="1046.7866666666664" type="line" smooth="yes"/>
      <point x="700.2933333333334" y="1061.6133333333332"/>
      <point x="692.9200000000001" y="1074.64"/>
      <point x="672.5066666666668" y="1075.226666666667" type="curve" smooth="yes"/>
      <point x="653.3733333333333" y="1075.6933333333336"/>
      <point x="637.7199999999998" y="1063.8533333333332"/>
      <point x="633.1999999999999" y="1049.6266666666666" type="curve" smooth="yes"/>
      <point x="447.5066666666666" y="330.0133333333334" type="line" smooth="yes"/>
      <point x="442.9066666666666" y="314.46666666666675"/>
      <point x="450.5999999999999" y="300.9466666666667"/>
    </contour>
    <component base="minus" xOffset="-5.013333333333333" yOffset="2.7199999999999998"/>
  </outline>
</glyph>
<glyph name="comma" format="2">
  <advance width="424.7733333333333"/>
  <unicode hex="002C"/>
  <outline>
    <contour>
      <point x="119.25333333333334" y="2.0266666666666664" type="curve" smooth="yes"/>
      <point x="164.82666666666665" y="-0.5333333333333332" type="line" smooth="yes"/>
      <point x="195.8915210355987" y="-2.2399999999999984"/>
      <point x="206.34666666666666" y="-8.413333333333334"/>
      <point x="201.66666666666669" y="-35.346666666666664" type="curve" smooth="yes"/>
      <point x="184.74666666666673" y="-123.4"/>
      <point x="99.32" y="-241.72"/>
      <point x="-37.866666666666674" y="-292.96000000000004" type="curve" smooth="yes"/>
      <point x="-62.68" y="-301.61333333333334"/>
      <point x="-69.57333333333334" y="-311.92"/>
      <point x="-67.06666666666666" y="-324.8933333333333" type="curve" smooth="yes"/>
      <point x="-63.57333333333333" y="-336.25333333333333"/>
      <point x="-48.6" y="-339.5733333333334"/>
      <point x="-20.22666666666666" y="-330.5066666666667" type="curve" smooth="yes"/>
      <point x="118.64000000000003" y="-281.06666666666666"/>
      <point x="265.99999999999994" y="-140.3733333333333"/>
      <point x="296.76" y="74.69333333333333" type="curve"/>
      <point x="311.08" y="173.61333333333337"/>
      <point x="273.36" y="231.34666666666666"/>
      <point x="196.46666666666667" y="231.34666666666666" type="curve" smooth="yes"/>
      <point x="110.1866666666667" y="231.34666666666666"/>
      <point x="43.760000000000005" y="166.53333333333333"/>
      <point x="37.67999999999999" y="99.73333333333335" type="curve" smooth="yes"/>
      <point x="31.04" y="44.57333333333333"/>
      <point x="61.29333333333334" y="5.226666666666663"/>
    </contour>
  </outline>
</glyph>
<glyph name="hyphen" format="2">
  <advance width="661.2533333333333"/>
  <unicode hex="002D"/>
  <outline>
    <contour>
      <point x="587.0533333333335" y="565.5466666666667" type="curve" smooth="yes"/>
      <point x="138.12" y="565.5466666666667" type="line" smooth="yes"/>
      <point x="121.65333333333332" y="565.5466666666667"/>
      <point x="112.84000000000002" y="560.9733333333334"/>
      <point x="104.39999999999998" y="544.8266666666668" type="curve" smooth="yes"/>
      <point x="72.40000000000002" y="470.3066666666666" type="line" smooth="yes"/>
      <point x="63.45333333333333" y="453.3066666666666"/>
      <point x="69.05333333333334" y="443.46666666666664"/>
      <point x="88.54666666666667" y="443.46666666666664" type="curve" smooth="yes"/>
      <point x="534.7333333333335" y="443.46666666666664" type="line" smooth="yes"/>
      <point x="552.5333333333333" y="443.46666666666664"/>
      <point x="562.3333333333334" y="448.7066666666667"/>
      <point x="570.6666666666667" y="464.5333333333333" type="curve" smooth="yes"/>
      <point x="603.44" y="540.5333333333333" type="line" smooth="yes"/>
      <point x="612.0799999999999" y="556.6533333333333"/>
      <point x="606.2266666666666" y="565.5466666666667"/>
    </contour>
  </outline>
</glyph>
<glyph name="period" format="2">
  <advance width="418.14666666666665"/>
  <unicode hex="002E"/>
  <outline>
    <contour>
      <point x="131.5333333333333" y="-16.186666666666664" type="curve" smooth="yes"/>
      <point x="225.51999999999998" y="-16.186666666666664"/>
      <point x="289.4666666666666" y="45.75999999999999"/>
      <point x="295.8266666666666" y="115.52" type="curve" smooth="yes"/>
      <point x="302.5066666666666" y="176.3866666666667"/>
      <point x="266.79999999999995" y="223.40000000000003"/>
      <point x="194.34666666666672" y="223.40000000000003" type="curve" smooth="yes"/>
      <point x="102.83999999999999" y="223.40000000000003"/>
      <point x="35.13333333333333" y="162.21333333333334"/>
      <point x="28.453333333333333" y="89.52" type="curve" smooth="yes"/>
      <point x="22.093333333333334" y="29.173333333333336"/>
      <point x="61.05333333333333" y="-16.186666666666664"/>
    </contour>
  </outline>
</glyph>
<glyph name="slash" format="2">
  <advance width="844.0133333333333"/>
  <unicode hex="002F"/>
  <outline>
    <contour>
      <point x="475.2933333333334" y="609.6533333333334" type="curve" smooth="yes"/>
      <point x="583.8634904444401" y="813.4745074282322"/>
      <point x="836.3140523856113" y="1269.1733785604258"/>
      <point x="954.3333333333335" y="1495.3999999999999" type="curve" smooth="yes"/>
      <point x="969.8666666666666" y="1524.4933333333333"/>
      <point x="968.4000000000001" y="1549.0"/>
      <point x="947.52" y="1556.4933333333333" type="curve" smooth="yes"/>
      <point x="922.6800000000001" y="1565.026666666667"/>
      <point x="899.7733333333333" y="1551.3066666666666"/>
      <point x="882.3466666666667" y="1522.1066666666666" type="curve" smooth="yes"/>
      <point x="770.8133333333334" y="1310.9600000000003"/>
      <point x="536.8906369220416" y="838.0442499190932"/>
      <point x="425.78666666666663" y="627.0666666666667" type="curve" smooth="yes"/>
      <point x="316.3379551142749" y="418.54152071202384"/>
      <point x="57.106666666666655" y="-40.799999999999976"/>
      <point x="-53.35999999999999" y="-250.05333333333334" type="curve" smooth="yes"/>
      <point x="-71.21333333333334" y="-280.4266666666667"/>
      <point x="-67.6" y="-302.37333333333333"/>
      <point x="-43.88" y="-310.5066666666667" type="curve" smooth="yes"/>
      <point x="-19.639999999999993" y="-319.5733333333333"/>
      <point x="3.2666666666666835" y="-306.5733333333334"/>
      <point x="21.480000000000004" y="-276.3866666666667" type="curve" smooth="yes"/>
      <point x="138.05333333333334" y="-50.879999999999995"/>
      <point x="368.03503768499587" y="406.5515842894424"/>
    </contour>
  </outline>
</glyph>
<glyph name="zero" format="2">
  <advance width="1268.6666666666663"/>
  <unicode hex="0030"/>
  <outline>
    <contour>
      <point x="913.274189382741" y="1422.133333333333" type="curve" smooth="yes"/>
      <point x="579.0741893827411" y="1422.133333333333"/>
      <point x="288.33733304300324" y="1148.6799999999998"/>
      <point x="168.14876819397517" y="711.5733333333333" type="curve" smooth="yes"/>
      <point x="47.89268014498929" y="273.5466666666667"/>
      <point x="169.89914395059233" y="-21.28"/>
      <point x="500.6458106172591" y="-21.28" type="curve" smooth="yes"/>
      <point x="819.1791439505924" y="-21.28"/>
      <point x="1119.2961503994236" y="234.52"/>
      <point x="1246.7416070787585" y="698.4266666666666" type="curve" smooth="yes"/>
      <point x="1365.7375450186507" y="1130.32"/>
      <point x="1242.074189382741" y="1422.133333333333"/>
    </contour>
    <contour>
      <point x="1019.200600436374" y="687.0666666666666" type="curve" smooth="yes"/>
      <point x="897.8203093327709" y="234.69333333333327"/>
      <point x="702.2076119263805" y="26.53333333333333"/>
      <point x="515.6742785930472" y="26.53333333333333" type="curve" smooth="yes"/>
      <point x="322.4209452597139" y="26.53333333333333"/>
      <point x="261.4747111750431" y="223.45333333333332"/>
      <point x="398.5058101333755" y="733.1733333333335" type="curve" smooth="yes"/>
      <point x="507.53643238844245" y="1136.2666666666667"/>
      <point x="692.3923880736194" y="1374.1066666666666"/>
      <point x="894.6457214069528" y="1374.1066666666666" type="curve" smooth="yes"/>
      <point x="1096.779054740286" y="1374.1066666666666"/>
      <point x="1149.8879466673693" y="1176.253333333333"/>
    </contour>
  </outline>
</glyph>
<glyph name="one" format="2">
  <advance width="822.7333333333332"/>
  <unicode hex="0031"/>
  <outline>
    <contour>
      <point x="358.94666666666666" y="1285.0133333333335" type="line" smooth="yes"/>
      <point x="335.6533333333333" y="1285.0133333333335"/>
      <point x="327.50666666666666" y="1295.4533333333331"/>
      <point x="332.37333333333333" y="1312.3333333333333" type="curve" smooth="yes"/>
      <point x="336.70666666666665" y="1327.9199999999998"/>
      <point x="351.28" y="1339.5466666666669"/>
      <point x="376.0" y="1339.5466666666669" type="curve" smooth="yes"/>
      <point x="539.7333333333333" y="1342.4666666666665" type="line" smooth="yes"/>
      <point x="640.4399999999999" y="1343.0666666666666"/>
      <point x="686.4533333333335" y="1359.4533333333334"/>
      <point x="739.8933333333334" y="1414.5866666666668" type="curve" smooth="yes"/>
      <point x="756.9466666666667" y="1429.6"/>
      <point x="769.5333333333334" y="1436.7733333333335"/>
      <point x="782.4399999999999" y="1436.7733333333335" type="curve" smooth="yes"/>
      <point x="803.32" y="1436.7733333333335"/>
      <point x="812.3066666666667" y="1425.7866666666669"/>
      <point x="805.4933333333333" y="1403.2399999999998" type="curve" smooth="yes"/>
      <point x="450.4533333333334" y="111.89333333333335" type="line" smooth="yes"/>
      <point x="442.25333333333333" y="84.85333333333332"/>
      <point x="446.76" y="67.37333333333333"/>
      <point x="482.62666666666667" y="63.46666666666668" type="curve" smooth="yes"/>
      <point x="630.6266666666666" y="46.06666666666666" type="line" smooth="yes"/>
      <point x="647.36" y="43.25333333333333"/>
      <point x="655.5333333333334" y="36.10666666666667"/>
      <point x="653.9733333333332" y="24.626666666666672" type="curve" smooth="yes"/>
      <point x="652.7333333333333" y="8.413333333333332"/>
      <point x="639.2933333333334" y="0.0"/>
      <point x="617.7466666666667" y="0.0" type="curve" smooth="yes"/>
      <point x="1.13333333333334" y="0.0" type="line" smooth="yes"/>
      <point x="-19.400000000000006" y="0.0"/>
      <point x="-28.56000000000001" y="8.439999999999998"/>
      <point x="-27.0" y="22.693333333333342" type="curve" smooth="yes"/>
      <point x="-25.44" y="36.15999999999999"/>
      <point x="-13.826666666666668" y="45.27999999999999"/>
      <point x="4.82666666666667" y="47.70666666666668" type="curve" smooth="yes"/>
      <point x="177.61333333333334" y="64.72" type="line" smooth="yes"/>
      <point x="206.12000000000003" y="67.50666666666669"/>
      <point x="227.64" y="84.72000000000003"/>
      <point x="237.35999999999999" y="114.92000000000002" type="curve" smooth="yes"/>
      <point x="543.9200000000001" y="1227.773333333333" type="line" smooth="yes"/>
      <point x="556.3733333333333" y="1268.8133333333337"/>
      <point x="546.6933333333334" y="1282.0933333333335"/>
      <point x="515.5333333333333" y="1282.0933333333335" type="curve" smooth="yes"/>
    </contour>
  </outline>
</glyph>
<glyph name="two" format="2">
  <advance width="1123.12"/>
  <unicode hex="0032"/>
  <outline>
    <contour>
      <point x="169.14666666666665" y="247.37333333333333" type="line"/>
      <point x="515.2800000000001" y="431.08" type="line" smooth="yes"/>
      <point x="960.3380783116122" y="679.161250135053"/>
      <point x="1135.279340685262" y="839.2787289694195"/>
      <point x="1188.1599999999999" y="1031.2533333333333" type="curve" smooth="yes"/>
      <point x="1251.7643124196209" y="1259.9347113224428"/>
      <point x="1143.946666666667" y="1423.4133333333336"/>
      <point x="868.8666666666667" y="1423.4133333333336" type="curve" smooth="yes"/>
      <point x="566.2399999999999" y="1423.4133333333336"/>
      <point x="351.4137481489779" y="1243.6005486999184"/>
      <point x="300.46666666666664" y="1062.2266666666667" type="curve" smooth="yes"/>
      <point x="277.92" y="981.72"/>
      <point x="306.41333333333336" y="938.4666666666667"/>
      <point x="371.0" y="938.4666666666667" type="curve"/>
      <point x="434.38666666666654" y="938.4666666666667"/>
      <point x="490.77333333333337" y="984.0799999999999"/>
      <point x="512.68" y="1064.4133333333334" type="curve" smooth="yes"/>
      <point x="538.6800000000001" y="1158.8266666666668" type="line" smooth="yes"/>
      <point x="573.7891959151394" y="1283.3774631646456"/>
      <point x="675.1066666666667" y="1380.5333333333333"/>
      <point x="825.7333333333333" y="1380.5333333333333" type="curve" smooth="yes"/>
      <point x="960.1999999999999" y="1380.5333333333333"/>
      <point x="1027.92" y="1268.7466666666664"/>
      <point x="964.6266666666668" y="1037.6666666666665" type="curve" smooth="yes"/>
      <point x="899.2" y="798.0533333333334"/>
      <point x="737.3066666666666" y="624.6"/>
      <point x="406.7733333333333" y="426.99999999999994" type="curve" smooth="yes"/>
      <point x="157.30666666666667" y="276.85333333333335" type="line"/>
    </contour>
    <contour>
      <point x="4.040000000000003" y="97.01333333333336" type="curve" smooth="yes"/>
      <point x="-15.959999999999997" y="24.159999999999997"/>
      <point x="8.959999999999997" y="-17.81333333333333"/>
      <point x="61.133333333333326" y="-17.81333333333333" type="curve" smooth="yes"/>
      <point x="125.34666666666666" y="-17.81333333333333"/>
      <point x="175.2266666666667" y="18.346666666666664"/>
      <point x="215.17333333333332" y="135.93333333333334" type="curve" smooth="yes"/>
      <point x="246.30308527110333" y="237.2500253223469"/>
      <point x="280.4933333333333" y="275.89333333333343"/>
      <point x="323.94666666666666" y="275.89333333333343" type="curve" smooth="yes"/>
      <point x="362.37333333333333" y="275.89333333333343"/>
      <point x="389.1783309947438" y="251.4325315709583"/>
      <point x="431.4266666666667" y="188.78666666666666" type="curve" smooth="yes"/>
      <point x="488.8666666666666" y="32.14666666666667"/>
      <point x="554.4533333333334" y="-19.853333333333328"/>
      <point x="677.7333333333332" y="-19.853333333333328" type="curve" smooth="yes"/>
      <point x="821.4000000000001" y="-19.853333333333328"/>
      <point x="935.8666666666667" y="62.42666666666668"/>
      <point x="1035.3733333333332" y="306.59999999999997" type="curve" smooth="yes"/>
      <point x="1045.2666666666669" y="328.6533333333333"/>
      <point x="1040.8933333333332" y="339.1333333333333"/>
      <point x="1025.8266666666668" y="340.88" type="curve" smooth="yes"/>
      <point x="1014.8933333333333" y="342.4133333333333"/>
      <point x="1003.3066666666666" y="337.2666666666666"/>
      <point x="993.0133333333331" y="321.65333333333336" type="curve" smooth="yes"/>
      <point x="931.36" y="214.44000000000005"/>
      <point x="873.7866666666667" y="176.2533333333333"/>
      <point x="780.72" y="176.2533333333333" type="curve" smooth="yes"/>
      <point x="639.5866666666666" y="176.2533333333333"/>
      <point x="499.9866666666666" y="319.97333333333336"/>
      <point x="334.67999999999995" y="319.97333333333336" type="curve" smooth="yes"/>
      <point x="163.03999999999996" y="319.97333333333336"/>
      <point x="38.986666666666665" y="224.65333333333336"/>
    </contour>
  </outline>
</glyph>
<glyph name="three" format="2">
  <advance width="1034.9866666666667"/>
  <unicode hex="0033"/>
  <outline>
    <contour>
      <point x="508.95359999999994" y="745.0" type="line"/>
      <point x="1174.5616000000002" y="1320.8666666666668" type="line" smooth="yes"/>
      <point x="1203.9909333333335" y="1342.7466666666667"/>
      <point x="1221.0981333333332" y="1356.6400000000003"/>
      <point x="1225.2848" y="1371.8266666666668" type="curve" smooth="yes"/>
      <point x="1230.1114666666667" y="1388.6266666666668"/>
      <point x="1219.6901333333335" y="1400.0"/>
      <point x="1197.9253333333334" y="1400.0" type="curve" smooth="yes"/>
      <point x="459.336" y="1400.0" type="line" smooth="yes"/>
      <point x="426.4890666666667" y="1400.0"/>
      <point x="405.72053333333326" y="1384.12"/>
      <point x="393.79040000000003" y="1357.6933333333336" type="curve" smooth="yes"/>
      <point x="282.2693333333333" y="1087.24" type="line" smooth="yes"/>
      <point x="272.5509333333334" y="1064.9199999999998"/>
      <point x="280.9072" y="1054.4666666666667"/>
      <point x="297.56479999999993" y="1053.746666666667" type="curve" smooth="yes"/>
      <point x="313.5824" y="1053.56"/>
      <point x="326.3141333333334" y="1062.9733333333336"/>
      <point x="335.32213333333334" y="1078.6666666666667" type="curve" smooth="yes"/>
      <point x="399.296" y="1188.813333333333" type="line" smooth="yes"/>
      <point x="416.48319999999995" y="1216.5066666666667"/>
      <point x="434.73173333333335" y="1226.8666666666668"/>
      <point x="467.71680000000003" y="1226.8666666666668" type="curve" smooth="yes"/>
      <point x="1034.5242666666666" y="1226.8666666666668" type="line"/>
      <point x="1045.1104000000003" y="1267.6399999999996" type="line"/>
      <point x="483.6021333333333" y="783.04" type="line" smooth="yes"/>
      <point x="461.0581333333332" y="766.12"/>
      <point x="447.5850666666667" y="754.9466666666666"/>
      <point x="443.57173333333327" y="741.0399999999998" type="curve" smooth="yes"/>
      <point x="438.5317333333333" y="724.6266666666668"/>
      <point x="448.0005333333333" y="715.7333333333332"/>
      <point x="469.02026666666677" y="715.7333333333332" type="curve" smooth="yes"/>
      <point x="527.2170666666667" y="715.7333333333332" type="line" smooth="yes"/>
      <point x="723.9962666666667" y="715.7333333333332"/>
      <point x="803.5781333333333" y="597.7866666666666"/>
      <point x="735.7765333333334" y="351.0" type="curve" smooth="yes"/>
      <point x="675.3408000000001" y="133.6"/>
      <point x="534.8954666666666" y="19.426666666666684"/>
      <point x="384.6528" y="19.146666666666682" type="curve" smooth="yes"/>
      <point x="237.44000000000003" y="18.546666666666688"/>
      <point x="178.56213333333335" y="86.44"/>
      <point x="211.824" y="206.55999999999995" type="curve" smooth="yes"/>
      <point x="234.6522666666666" y="284.81333333333333" type="line" smooth="yes"/>
      <point x="254.08906666666667" y="351.92"/>
      <point x="226.45759999999999" y="402.76000000000005"/>
      <point x="160.44639999999998" y="402.76000000000005" type="curve" smooth="yes"/>
      <point x="101.30026666666667" y="402.76000000000005"/>
      <point x="46.07520000000001" y="353.52000000000004"/>
      <point x="30.328533333333347" y="269.02666666666664" type="curve" smooth="yes"/>
      <point x="-5.191466666666659" y="109.71999999999998"/>
      <point x="103.67520000000002" y="-22.773333333333333"/>
      <point x="368.2709333333334" y="-22.773333333333333" type="curve" smooth="yes"/>
      <point x="652.7632000000001" y="-22.773333333333333"/>
      <point x="884.5445333333333" y="136.62666666666667"/>
      <point x="954.3402666666667" y="377.6666666666667" type="curve" smooth="yes"/>
      <point x="1028.0607999999997" y="633.9200000000001"/>
      <point x="887.8384" y="774.8266666666667"/>
      <point x="589.0607999999999" y="768.64" type="curve" smooth="yes"/>
      <point x="566.4725333333332" y="768.24"/>
      <point x="526.3424" y="765.9733333333334"/>
      <point x="507.04799999999994" y="762.8266666666666" type="curve"/>
    </contour>
  </outline>
</glyph>
<glyph name="four" format="2">
  <advance width="1080.8133333333335"/>
  <unicode hex="0034"/>
  <outline>
    <contour>
      <point x="699.5600000000002" y="763.8133333333332" type="curve" smooth="yes"/>
      <point x="519.1866666666666" y="114.03999999999998" type="line" smooth="yes"/>
      <point x="509.75999999999993" y="84.06666666666666"/>
      <point x="489.50666666666666" y="66.77333333333335"/>
      <point x="459.44" y="62.94666666666665" type="curve" smooth="yes"/>
      <point x="338.7733333333333" y="47.98666666666666" type="line" smooth="yes"/>
      <point x="319.05333333333334" y="45.13333333333334"/>
      <point x="306.2" y="36.65333333333332"/>
      <point x="301.9733333333333" y="23.119999999999997" type="curve" smooth="yes"/>
      <point x="297.96" y="8.18666666666667"/>
      <point x="306.09333333333336" y="5.551115123125783e-17"/>
      <point x="327.9733333333333" y="5.551115123125783e-17" type="curve" smooth="yes"/>
      <point x="848.2666666666668" y="5.551115123125783e-17" type="line" smooth="yes"/>
      <point x="870.88" y="5.551115123125783e-17"/>
      <point x="883.3599999999999" y="8.866666666666667"/>
      <point x="887.6933333333335" y="23.52" type="curve" smooth="yes"/>
      <point x="891.6000000000001" y="36.559999999999995"/>
      <point x="882.8533333333332" y="44.25333333333333"/>
      <point x="865.3333333333333" y="48.36" type="curve" smooth="yes"/>
      <point x="761.2133333333334" y="62.746666666666684" type="line" smooth="yes"/>
      <point x="731.4133333333334" y="67.18666666666664"/>
      <point x="719.7866666666667" y="83.19999999999999"/>
      <point x="728.3333333333333" y="110.73333333333332" type="curve" smooth="yes"/>
      <point x="958.6933333333334" y="953.0266666666664" type="line" smooth="yes"/>
      <point x="963.3733333333334" y="968.3466666666667"/>
      <point x="958.5066666666668" y="975.4800000000001"/>
      <point x="947.6133333333333" y="975.4800000000001" type="curve" smooth="yes"/>
      <point x="937.1466666666665" y="975.4800000000001"/>
      <point x="928.6266666666667" y="971.8666666666666"/>
      <point x="911.7333333333332" y="959.1599999999999" type="curve" smooth="yes"/>
      <point x="730.8" y="806.8533333333332" type="line" smooth="yes"/>
      <point x="716.28" y="795.2266666666666"/>
      <point x="705.2666666666667" y="782.4399999999998"/>
    </contour>
    <contour>
      <point x="645.1600000000001" y="980.04" type="curve" smooth="yes"/>
      <point x="35.066666666666684" y="416.8666666666666" type="line" smooth="yes"/>
      <point x="13.17333333333333" y="401.7733333333333"/>
      <point x="3.8000000000000016" y="389.5999999999999"/>
      <point x="0.5333333333333327" y="378.64" type="curve" smooth="yes"/>
      <point x="-4.826666666666666" y="362.66666666666663"/>
      <point x="3.9733333333333265" y="351.05333333333334"/>
      <point x="26.40000000000001" y="351.05333333333334" type="curve" smooth="yes"/>
      <point x="970.6933333333335" y="350.7333333333333" type="line" smooth="yes"/>
      <point x="992.4666666666668" y="350.7333333333333"/>
      <point x="1006.0133333333333" y="360.2533333333333"/>
      <point x="1010.7733333333333" y="377.0533333333333" type="curve" smooth="yes"/>
      <point x="1014.8933333333334" y="393.32000000000005"/>
      <point x="1004.4" y="399.81333333333333"/>
      <point x="985.92" y="399.81333333333333" type="curve" smooth="yes"/>
      <point x="52.15999999999999" y="399.81333333333333" type="line"/>
      <point x="54.72000000000001" y="376.7066666666667" type="line"/>
      <point x="803.8266666666667" y="1053.16" type="line" smooth="yes"/>
      <point x="928.4399999999999" y="1157.2399999999998"/>
      <point x="982.8400000000001" y="1226.44"/>
      <point x="998.2666666666667" y="1305.7333333333336" type="curve" smooth="yes"/>
      <point x="1014.1600000000002" y="1379.346666666667"/>
      <point x="976.3599999999999" y="1423.7466666666667"/>
      <point x="904.3333333333334" y="1423.7466666666667" type="curve" smooth="yes"/>
      <point x="818.0666666666666" y="1423.7466666666667"/>
      <point x="753.0933333333332" y="1370.0933333333335"/>
      <point x="731.3733333333332" y="1292.2133333333334" type="curve" smooth="yes"/>
      <point x="711.1600000000002" y="1218.1466666666665"/>
      <point x="753.8800000000001" y="1159.2533333333333"/>
      <point x="734.3733333333333" y="1092.9866666666667" type="curve" smooth="yes"/>
      <point x="723.0933333333332" y="1050.2933333333333"/>
      <point x="690.9466666666666" y="1017.1733333333334"/>
    </contour>
  </outline>
</glyph>
<glyph name="five" format="2">
  <advance width="1064.386666666667"/>
  <unicode hex="0035"/>
  <outline>
    <contour>
      <point x="62.87041866666667" y="276.25333333333333" type="curve" smooth="yes"/>
      <point x="26.963752000000007" y="115.52000000000001"/>
      <point x="142.17308533333332" y="-22.773333333333333"/>
      <point x="397.7331706666666" y="-22.773333333333333" type="curve" smooth="yes"/>
      <point x="678.760616" y="-22.773333333333333"/>
      <point x="918.7097146666666" y="145.97333333333333"/>
      <point x="994.8974906666665" y="409.76" type="curve" smooth="yes"/>
      <point x="1067.763954666667" y="663.8799999999999"/>
      <point x="944.2975546666667" y="834.7733333333333"/>
      <point x="687.6913893333335" y="834.7733333333333" type="curve" smooth="yes"/>
      <point x="521.4660240000001" y="834.7733333333333"/>
      <point x="380.1963813333333" y="759.5200000000001"/>
      <point x="250.65854666666667" y="621.5866666666666" type="curve"/>
      <point x="268.169704" y="615.1066666666667" type="line"/>
      <point x="454.2132346666665" y="1281.5866666666668" type="line"/>
      <point x="414.8380346666667" y="1246.053333333333" type="line"/>
      <point x="503.07800337787035" y="1172.26977986798"/>
      <point x="639.9996473193287" y="1122.3333333333335"/>
      <point x="801.411448" y="1122.3333333333335" type="curve" smooth="yes"/>
      <point x="1011.971448" y="1122.3333333333335"/>
      <point x="1160.8850480000003" y="1209.4400000000003"/>
      <point x="1243.2455813333333" y="1397.493333333333" type="curve" smooth="yes"/>
      <point x="1254.5943813333336" y="1417.76"/>
      <point x="1251.6381146666668" y="1425.2933333333333"/>
      <point x="1244.5463813333336" y="1428.8666666666666" type="curve" smooth="yes"/>
      <point x="1235.107981333333" y="1433.1866666666665"/>
      <point x="1223.606648" y="1428.1333333333332"/>
      <point x="1209.0327813333333" y="1417.3066666666666" type="curve" smooth="yes"/>
      <point x="1143.749048" y="1336.6133333333335"/>
      <point x="1032.2365146666668" y="1300.96"/>
      <point x="880.4493146666667" y="1300.96" type="curve" smooth="yes"/>
      <point x="743.4421699220339" y="1300.96"/>
      <point x="626.5379892311066" y="1348.0304934620146"/>
      <point x="523.2314106666666" y="1412.9866666666667" type="curve" smooth="yes"/>
      <point x="508.435624" y="1420.2666666666667"/>
      <point x="495.73172" y="1424.2266666666667"/>
      <point x="481.24854133333326" y="1424.2266666666667" type="curve" smooth="yes"/>
      <point x="450.49869599999994" y="1424.2266666666667"/>
      <point x="431.743048" y="1407.68"/>
      <point x="423.7059493333333" y="1381.8799999999999" type="curve" smooth="yes"/>
      <point x="207.314504" y="598.2399999999999" type="line" smooth="yes"/>
      <point x="201.27001333333334" y="578.7466666666667"/>
      <point x="209.12783733333333" y="567.9999999999999"/>
      <point x="225.160584" y="567.9999999999999" type="curve" smooth="yes"/>
      <point x="242.23187999999996" y="567.9999999999999"/>
      <point x="254.71201866666672" y="576.5333333333334"/>
      <point x="277.78055199999994" y="592.0533333333335" type="curve" smooth="yes"/>
      <point x="382.4005946666667" y="708.8666666666667"/>
      <point x="505.77124000000003" y="780.6399999999999"/>
      <point x="614.439016" y="780.6399999999999" type="curve" smooth="yes"/>
      <point x="779.1534266666667" y="780.6399999999999"/>
      <point x="852.5572986666665" y="646.7466666666667"/>
      <point x="781.9116986666668" y="391.78666666666663" type="curve" smooth="yes"/>
      <point x="710.31204" y="133.54666666666665"/>
      <point x="565.7135546666666" y="19.146666666666682"/>
      <point x="417.1226" y="19.146666666666682" type="curve" smooth="yes"/>
      <point x="268.78338933333333" y="19.146666666666682"/>
      <point x="209.37081333333333" y="90.4"/>
      <point x="242.69730933333335" y="210.70666666666668" type="curve" smooth="yes"/>
      <point x="263.96874399999996" y="285.48" type="line" smooth="yes"/>
      <point x="284.3945146666667" y="356.5066666666666"/>
      <point x="256.6571706666667" y="403.36000000000007"/>
      <point x="190.71899466666665" y="403.36000000000007" type="curve" smooth="yes"/>
      <point x="132.21978400000003" y="403.36000000000007"/>
      <point x="76.72375200000002" y="352.8933333333333"/>
    </contour>
  </outline>
</glyph>
<glyph name="six" format="2">
  <advance width="1147.4666666666667"/>
  <unicode hex="0036"/>
  <outline>
    <contour>
      <point x="928.0799999999999" y="1423.4133333333334" type="curve" smooth="yes"/>
      <point x="607.8533333333335" y="1423.4133333333334"/>
      <point x="305.6533333333333" y="1175.8800000000003"/>
      <point x="164.07999999999998" y="680.3066666666665" type="curve" smooth="yes"/>
      <point x="37.46666666666666" y="238.98666666666668"/>
      <point x="169.92" y="-22.45333333333333"/>
      <point x="489.1333333333333" y="-22.45333333333333" type="curve" smooth="yes"/>
      <point x="761.0533333333334" y="-22.45333333333333"/>
      <point x="998.9866666666666" y="150.24"/>
      <point x="1073.88" y="412.8666666666667" type="curve" smooth="yes"/>
      <point x="1152.5466666666666" y="688.0400000000001"/>
      <point x="1015.6933333333335" y="849.8133333333333"/>
      <point x="775.6800000000001" y="849.8133333333333" type="curve" smooth="yes"/>
      <point x="558.2266666666666" y="849.8133333333333"/>
      <point x="352.8533333333334" y="709.64"/>
      <point x="287.53333333333336" y="493.53333333333336" type="curve"/>
      <point x="315.92" y="480.78666666666663" type="line"/>
      <point x="372.3733333333332" y="665.9333333333334"/>
      <point x="544.4933333333332" y="791.3333333333334"/>
      <point x="692.5999999999999" y="791.3333333333334" type="curve" smooth="yes"/>
      <point x="855.7066666666666" y="791.3333333333334"/>
      <point x="932.2133333333331" y="666.9600000000002"/>
      <point x="862.3066666666667" y="406.69333333333327" type="curve" smooth="yes"/>
      <point x="793.3333333333333" y="152.85333333333335"/>
      <point x="660.4933333333333" y="23.973333333333322"/>
      <point x="499.8399999999999" y="23.973333333333322" type="curve" smooth="yes"/>
      <point x="321.67999999999995" y="23.973333333333322"/>
      <point x="242.9866666666667" y="181.44"/>
      <point x="373.3866666666667" y="650.0666666666666" type="curve" smooth="yes"/>
      <point x="519.6266666666667" y="1175.4533333333334"/>
      <point x="722.3333333333333" y="1376.6666666666667"/>
      <point x="905.1866666666666" y="1376.6666666666667" type="curve" smooth="yes"/>
      <point x="1032.3600000000001" y="1376.6666666666667"/>
      <point x="1076.8533333333335" y="1311.84"/>
      <point x="1047.28" y="1206.6133333333332" type="curve" smooth="yes"/>
      <point x="1028.8666666666666" y="1141.9866666666665" type="line" smooth="yes"/>
      <point x="1006.6666666666666" y="1064.7600000000002"/>
      <point x="1034.3733333333332" y="1020.0933333333332"/>
      <point x="1105.3066666666666" y="1020.0933333333332" type="curve" smooth="yes"/>
      <point x="1170.2533333333333" y="1020.0933333333332"/>
      <point x="1224.0933333333335" y="1067.2266666666665"/>
      <point x="1239.3866666666668" y="1149.6133333333335" type="curve" smooth="yes"/>
      <point x="1270.4266666666667" y="1292.6666666666667"/>
      <point x="1159.1066666666666" y="1423.4133333333334"/>
    </contour>
  </outline>
</glyph>
<glyph name="seven" format="2">
  <advance width="956.1999999999999"/>
  <unicode hex="0037"/>
  <outline>
    <contour>
      <point x="1051.1599999999999" y="1240.3333333333335" type="line"/>
      <point x="638.5733333333335" y="737.7066666666666" type="line" smooth="yes"/>
      <point x="422.77333333333326" y="511.00000000000006"/>
      <point x="263.94599483989464" y="345.28303470316644"/>
      <point x="215.57333333333332" y="177.05333333333334" type="curve" smooth="yes"/>
      <point x="178.2266666666667" y="46.27999999999999"/>
      <point x="213.7866666666667" y="-20.88"/>
      <point x="305.6133333333333" y="-20.88" type="curve" smooth="yes"/>
      <point x="391.53333333333336" y="-20.88"/>
      <point x="454.26666666666677" y="33.78666666666667"/>
      <point x="475.1199999999999" y="105.18666666666667" type="curve" smooth="yes"/>
      <point x="501.5066666666667" y="199.56"/>
      <point x="438.0133333333333" y="278.18666666666667"/>
      <point x="471.09333333333336" y="391.77333333333337" type="curve" smooth="yes"/>
      <point x="501.93009844807386" y="497.1524155955825"/>
      <point x="580.4533333333334" y="605.1199999999999"/>
      <point x="724.24" y="752.6266666666667" type="curve" smooth="yes"/>
      <point x="1170.7466666666667" y="1311.5466666666666" type="line" smooth="yes"/>
      <point x="1200.0533333333333" y="1335.7066666666667"/>
      <point x="1211.773333333333" y="1353.0266666666669"/>
      <point x="1215.5733333333335" y="1368.3066666666666" type="curve" smooth="yes"/>
      <point x="1221.613333333333" y="1387.226666666667"/>
      <point x="1210.6266666666668" y="1400.0"/>
      <point x="1179.6000000000001" y="1400.0" type="curve" smooth="yes"/>
      <point x="410.7866666666667" y="1400.0" type="line" smooth="yes"/>
      <point x="381.1866666666666" y="1400.0"/>
      <point x="362.90666666666664" y="1384.866666666667"/>
      <point x="351.81333333333333" y="1359.5866666666668" type="curve" smooth="yes"/>
      <point x="231.36" y="1078.0933333333335" type="line" smooth="yes"/>
      <point x="221.26666666666668" y="1056.0933333333335"/>
      <point x="228.14666666666665" y="1045.4133333333332"/>
      <point x="245.57333333333335" y="1044.9066666666668" type="curve" smooth="yes"/>
      <point x="262.4" y="1044.5066666666667"/>
      <point x="275.50666666666666" y="1054.1733333333336"/>
      <point x="285.53333333333336" y="1070.08" type="curve" smooth="yes"/>
      <point x="353.5866666666666" y="1184.1466666666668" type="line" smooth="yes"/>
      <point x="368.38666666666666" y="1207.1066666666666"/>
      <point x="382.66666666666663" y="1218.1866666666665"/>
      <point x="414.93333333333334" y="1218.1866666666665" type="curve" smooth="yes"/>
      <point x="1055.1333333333334" y="1218.1866666666665" type="line"/>
    </contour>
  </outline>
</glyph>
<glyph name="eight" format="2">
  <advance width="1074.9866666666667"/>
  <unicode hex="0038"/>
  <outline>
    <contour>
      <point x="401.9333333333333" y="-23.44" type="curve" smooth="yes"/>
      <point x="679.7733333333333" y="-23.44"/>
      <point x="899.8133333333333" y="114.03999999999998"/>
      <point x="956.9199999999998" y="311.66666666666674" type="curve" smooth="yes"/>
      <point x="1003.5199999999999" y="474.3466666666667"/>
      <point x="928.7199999999999" y="600.3466666666667"/>
      <point x="690.32" y="720.4399999999998" type="curve" smooth="yes"/>
      <point x="476.9733333333333" y="824.8266666666666"/>
      <point x="413.4000000000001" y="938.9066666666666"/>
      <point x="465.72" y="1115.3733333333332" type="curve" smooth="yes"/>
      <point x="511.0533333333333" y="1266.6799999999998"/>
      <point x="658.4" y="1379.68"/>
      <point x="817.7866666666667" y="1379.68" type="curve" smooth="yes"/>
      <point x="997.2933333333334" y="1379.68"/>
      <point x="1073.8266666666666" y="1243.3466666666666"/>
      <point x="1004.2533333333336" y="1028.1066666666666" type="curve" smooth="yes"/>
      <point x="955.4799999999999" y="871.1333333333334"/>
      <point x="829.6133333333333" y="747.0266666666668"/>
      <point x="682.4933333333335" y="670.5733333333333" type="curve"/>
      <point x="692.7199999999999" y="651.72" type="line"/>
      <point x="914.6666666666666" y="701.4666666666665"/>
      <point x="1126.0266666666669" y="852.3733333333334"/>
      <point x="1182.1333333333334" y="1038.3999999999999" type="curve" smooth="yes"/>
      <point x="1251.0" y="1267.1066666666666"/>
      <point x="1119.68" y="1423.226666666667"/>
      <point x="849.4666666666667" y="1423.226666666667" type="curve" smooth="yes"/>
      <point x="564.8666666666667" y="1423.226666666667"/>
      <point x="319.50666666666666" y="1251.8133333333335"/>
      <point x="261.46666666666664" y="1041.6" type="curve" smooth="yes"/>
      <point x="203.70666666666665" y="832.6400000000001"/>
      <point x="290.3466666666667" y="712.5200000000001"/>
      <point x="541.5466666666667" y="584.6800000000001" type="curve" smooth="yes"/>
      <point x="736.08" y="495.73333333333346"/>
      <point x="792.6266666666667" y="396.6533333333333"/>
      <point x="748.9066666666666" y="253.04000000000002" type="curve" smooth="yes"/>
      <point x="707.0266666666665" y="114.57333333333334"/>
      <point x="582.6266666666667" y="18.519999999999996"/>
      <point x="429.20000000000005" y="18.519999999999996" type="curve" smooth="yes"/>
      <point x="264.73333333333335" y="18.519999999999996"/>
      <point x="182.94666666666666" y="119.02666666666664"/>
      <point x="248.0" y="331.67999999999995" type="curve" smooth="yes"/>
      <point x="282.65333333333336" y="447.16"/>
      <point x="381.7866666666667" y="573.8666666666667"/>
      <point x="521.8000000000001" y="634.24" type="curve"/>
      <point x="519.0533333333333" y="652.7866666666667" type="line"/>
      <point x="271.05333333333334" y="604.9466666666665"/>
      <point x="109.72000000000001" y="457.70666666666665"/>
      <point x="69.0" y="321.58666666666664" type="curve" smooth="yes"/>
      <point x="10.81333333333333" y="119.22666666666666"/>
      <point x="127.86666666666667" y="-23.44"/>
    </contour>
  </outline>
</glyph>
<glyph name="nine" format="2">
  <advance width="1143.533333333333"/>
  <unicode hex="0039"/>
  <outline>
    <contour>
      <point x="384.11999999999995" y="-22.45333333333333" type="curve" smooth="yes"/>
      <point x="703.68" y="-22.45333333333333"/>
      <point x="997.6000000000001" y="228.17333333333337"/>
      <point x="1140.986666666667" y="718.9466666666666" type="curve" smooth="yes"/>
      <point x="1271.2266666666667" y="1163.6799999999998"/>
      <point x="1137.946666666667" y="1423.4133333333334"/>
      <point x="820.2933333333334" y="1423.4133333333334" type="curve" smooth="yes"/>
      <point x="550.2933333333334" y="1423.4133333333334"/>
      <point x="305.85333333333335" y="1246.24"/>
      <point x="229.78666666666663" y="980.6266666666667" type="curve" smooth="yes"/>
      <point x="153.95999999999998" y="711.2133333333335"/>
      <point x="290.64" y="549.2266666666667"/>
      <point x="530.44" y="549.2266666666667" type="curve" smooth="yes"/>
      <point x="748.5333333333332" y="549.2266666666667"/>
      <point x="953.0533333333333" y="689.4"/>
      <point x="1018.3733333333331" y="905.2933333333333" type="curve"/>
      <point x="990.3066666666667" y="918.2533333333333" type="line"/>
      <point x="933.6" y="733.1066666666666"/>
      <point x="761.7333333333333" y="607.7066666666667"/>
      <point x="613.84" y="607.7066666666667" type="curve" smooth="yes"/>
      <point x="452.6533333333333" y="607.7066666666667"/>
      <point x="374.01333333333326" y="732.5066666666667"/>
      <point x="444.02666666666664" y="993.4133333333333" type="curve" smooth="yes"/>
      <point x="512.9333333333334" y="1248.1066666666666"/>
      <point x="649.1466666666668" y="1376.9866666666667"/>
      <point x="809.5866666666667" y="1376.9866666666667" type="curve" smooth="yes"/>
      <point x="987.6400000000002" y="1376.9866666666667"/>
      <point x="1065.4799999999998" y="1216.7466666666667"/>
      <point x="933.5866666666666" y="752.3866666666665" type="curve" smooth="yes"/>
      <point x="785.28" y="227.2133333333333"/>
      <point x="590.6133333333333" y="24.293333333333322"/>
      <point x="406.7999999999999" y="24.293333333333322" type="curve" smooth="yes"/>
      <point x="278.35999999999996" y="24.293333333333322"/>
      <point x="225.73333333333332" y="89.72000000000001"/>
      <point x="255.20000000000005" y="194.84" type="curve" smooth="yes"/>
      <point x="273.89333333333326" y="260.3466666666667" type="line" smooth="yes"/>
      <point x="295.59999999999997" y="336.6933333333333"/>
      <point x="268.4533333333333" y="381.08"/>
      <point x="198.89333333333332" y="381.08" type="curve" smooth="yes"/>
      <point x="133.73333333333335" y="381.08"/>
      <point x="80.70666666666666" y="333.9466666666666"/>
      <point x="64.49333333333334" y="251.56" type="curve" smooth="yes"/>
      <point x="33.17333333333333" y="108.29333333333332"/>
      <point x="152.56" y="-22.45333333333333"/>
    </contour>
  </outline>
</glyph>
<glyph name="less" format="2">
  <advance width="951.5333333333332"/>
  <unicode hex="003C"/>
  <outline>
    <contour>
      <point x="223.17333333333335" y="684.2666666666667" type="line"/>
      <point x="794.6" y="297.74666666666667" type="line" smooth="yes"/>
      <point x="811.313700254573" y="288.29540589871607"/>
      <point x="817.4498334645847" y="277.0660005250061"/>
      <point x="814.4266666666667" y="266.05333333333334" type="curve" smooth="yes"/>
      <point x="811.0400000000001" y="253.43999999999997"/>
      <point x="800.6000000000001" y="246.92"/>
      <point x="782.7599999999999" y="246.92" type="curve" smooth="yes"/>
      <point x="768.0133333333332" y="246.92"/>
      <point x="755.0533333333333" y="253.65333333333328"/>
      <point x="736.2266666666667" y="264.4666666666666" type="curve" smooth="yes"/>
      <point x="177.42666666666668" y="637.4000000000001" type="line" smooth="yes"/>
      <point x="156.68" y="649.0666666666668"/>
      <point x="148.62666666666664" y="664.7333333333333"/>
      <point x="154.40000000000003" y="685.3733333333332" type="curve" smooth="yes"/>
      <point x="159.85333333333335" y="704.88"/>
      <point x="177.02666666666667" y="719.6266666666667"/>
      <point x="205.56" y="731.3333333333334" type="curve" smooth="yes"/>
      <point x="944.2" y="1103.2133333333334" type="line" smooth="yes"/>
      <point x="968.5733333333334" y="1113.4133333333332"/>
      <point x="984.7066666666667" y="1119.4533333333331"/>
      <point x="999.3999999999999" y="1119.4533333333331" type="curve" smooth="yes"/>
      <point x="1016.5466666666665" y="1119.4533333333331"/>
      <point x="1023.7066666666667" y="1106.7466666666667"/>
      <point x="1018.7466666666664" y="1091.5733333333335" type="curve" smooth="yes"/>
      <point x="1014.77359840346" y="1080.1343936138408"/>
      <point x="1002.3555617123693" y="1068.501805029704"/>
      <point x="978.9866666666667" y="1058.6666666666667" type="curve" smooth="yes"/>
      <point x="220.21333333333328" y="675.1866666666666" type="line"/>
    </contour>
  </outline>
</glyph>
<glyph name="question" format="2">
  <advance width="882.7066666666667"/>
  <unicode hex="003F"/>
  <outline>
    <contour>
      <point x="358.8399999999999" y="632.6400000000001" type="line" smooth="yes"/>
      <point x="367.0" y="674.2800000000001"/>
      <point x="385.4266666666666" y="702.3866666666667"/>
      <point x="433.1733333333333" y="724.72" type="curve" smooth="yes"/>
      <point x="491.1466666666667" y="751.6666666666666" type="line" smooth="yes"/>
      <point x="658.3351743295116" y="832.9295940250645"/>
      <point x="744.021364693471" y="950.7191038804555"/>
      <point x="798.4533333333334" y="1143.2266666666667" type="curve" smooth="yes"/>
      <point x="850.7199999999999" y="1328.373333333333"/>
      <point x="792.5866666666667" y="1417.16"/>
      <point x="675.0400000000001" y="1417.16" type="curve" smooth="yes"/>
      <point x="547.88" y="1417.16"/>
      <point x="467.37333333333333" y="1347.96"/>
      <point x="435.38666666666666" y="1237.0933333333335" type="curve" smooth="yes"/>
      <point x="413.56" y="1159.92" type="line" smooth="yes"/>
      <point x="391.64" y="1086.96"/>
      <point x="343.7733333333333" y="1049.9733333333334"/>
      <point x="280.1066666666666" y="1049.9733333333334" type="curve" smooth="yes"/>
      <point x="221.69333333333333" y="1049.9733333333334"/>
      <point x="192.64" y="1097.3466666666666"/>
      <point x="211.37333333333336" y="1164.4800000000002" type="curve" smooth="yes"/>
      <point x="254.91999999999996" y="1321.72"/>
      <point x="456.1466666666667" y="1466.0"/>
      <point x="696.2933333333334" y="1466.0" type="curve" smooth="yes"/>
      <point x="949.5466666666667" y="1466.0"/>
      <point x="1067.9199999999998" y="1328.28"/>
      <point x="1009.8933333333333" y="1119.8933333333332" type="curve" smooth="yes"/>
      <point x="958.5326785864191" y="931.9899029366446"/>
      <point x="815.4919604870886" y="792.7425401569999"/>
      <point x="566.72" y="707.9066666666665" type="curve" smooth="yes"/>
      <point x="506.8000000000001" y="689.16" type="line" smooth="yes"/>
      <point x="462.36000000000007" y="675.48"/>
      <point x="445.8666666666667" y="654.0133333333333"/>
      <point x="433.52000000000004" y="617.44" type="curve" smooth="yes"/>
      <point x="379.73333333333335" y="440.0533333333332" type="line" smooth="yes"/>
      <point x="366.04" y="413.69333333333344"/>
      <point x="353.38666666666666" y="402.8266666666667"/>
      <point x="335.4533333333334" y="402.8266666666667" type="curve" smooth="yes"/>
      <point x="316.6933333333333" y="402.8266666666667"/>
      <point x="309.4266666666667" y="415.84000000000003"/>
      <point x="312.18666666666667" y="439.9866666666667" type="curve" smooth="yes"/>
    </contour>
    <component base="period" xOffset="89.92" yOffset="-1.4133333333333327"/>
  </outline>
</glyph>
<glyph name="at" format="2">
  <advance width="1618.506666666667"/>
  <unicode hex="0040"/>
  <outline>
    <contour>
      <point x="617.0133333333333" y="417.3333333333333" type="curve" smooth="yes"/>
      <point x="647.5066666666668" y="693.7066666666666"/>
      <point x="847.1200000000001" y="972.3466666666666"/>
      <point x="1041.12" y="972.3466666666666" type="curve" smooth="yes"/>
      <point x="1086.293333333333" y="972.3466666666666"/>
      <point x="1099.2666666666667" y="940.6799999999997"/>
      <point x="1087.88" y="882.9733333333332" type="curve" smooth="yes"/>
      <point x="1001.8133333333334" y="492.8666666666667"/>
      <point x="825.1200000000001" y="226.48"/>
      <point x="696.2" y="226.48" type="curve" smooth="yes"/>
      <point x="638.2666666666667" y="226.48"/>
      <point x="598.3866666666667" y="279.7333333333334"/>
    </contour>
    <contour>
      <point x="1060.8133333333335" y="143.66666666666666" type="curve" smooth="yes"/>
      <point x="1285.2609090909089" y="143.66666666666666"/>
      <point x="1513.8710608037688" y="318.5979271246021"/>
      <point x="1589.2933333333333" y="614.4666666666668" type="curve" smooth="yes"/>
      <point x="1712.9733333333336" y="1098.8933333333332"/>
      <point x="1466.0666666666668" y="1382.2533333333333"/>
      <point x="1075.0266666666664" y="1382.2533333333333" type="curve" smooth="yes"/>
      <point x="608.9733333333332" y="1382.2533333333333"/>
      <point x="225.54666666666668" y="1042.4533333333334"/>
      <point x="110.25333333333333" y="589.2266666666667" type="curve" smooth="yes"/>
      <point x="-22.04" y="73.01333333333334"/>
      <point x="233.35999999999999" y="-249.45333333333335"/>
      <point x="666.3466666666666" y="-249.45333333333335" type="curve" smooth="yes"/>
      <point x="955.9733333333334" y="-249.45333333333335"/>
      <point x="1236.8799999999999" y="-132.77333333333334"/>
      <point x="1437.1333333333332" y="72.65333333333332" type="curve" smooth="yes"/>
      <point x="1454.946666666667" y="87.13333333333333"/>
      <point x="1463.64" y="104.36"/>
      <point x="1454.7333333333333" y="114.57333333333334" type="curve" smooth="yes"/>
      <point x="1445.0266666666666" y="125.7333333333333"/>
      <point x="1425.7866666666666" y="119.64"/>
      <point x="1407.3600000000001" y="106.22666666666667" type="curve" smooth="yes"/>
      <point x="1203.12" y="-91.93333333333332"/>
      <point x="943.6800000000001" y="-202.3866666666667"/>
      <point x="681.64" y="-202.3866666666667" type="curve" smooth="yes"/>
      <point x="272.29333333333335" y="-202.3866666666667"/>
      <point x="48.73333333333333" y="116.10666666666665"/>
      <point x="169.42666666666668" y="589.2266666666666" type="curve" smooth="yes"/>
      <point x="278.5733333333333" y="1021.3066666666666"/>
      <point x="632.76" y="1337.4266666666665"/>
      <point x="1058.666666666667" y="1337.4266666666665" type="curve" smooth="yes"/>
      <point x="1419.9333333333334" y="1337.4266666666665"/>
      <point x="1643.4933333333333" y="1064.813333333333"/>
      <point x="1528.9466666666667" y="613.72" type="curve" smooth="yes"/>
      <point x="1462.9789739545904" y="348.89434918604155"/>
      <point x="1279.9338039215686" y="216.34666666666666"/>
      <point x="1155.4399999999996" y="216.34666666666666" type="curve" smooth="yes"/>
      <point x="1106.6" y="216.34666666666666"/>
      <point x="1088.3866666666668" y="253.22666666666666"/>
      <point x="1119.2799999999997" y="371.79999999999995" type="curve" smooth="yes"/>
      <point x="1254.2666666666669" y="892.4933333333333" type="line" smooth="yes"/>
      <point x="1262.7866666666666" y="920.7199999999999"/>
      <point x="1297.5866666666666" y="926.0666666666666"/>
      <point x="1299.2933333333333" y="955.48" type="curve" smooth="yes"/>
      <point x="1301.4266666666667" y="989.2266666666667"/>
      <point x="1220.6" y="1024.2666666666667"/>
      <point x="1075.9733333333331" y="1024.2666666666667" type="curve" smooth="yes"/>
      <point x="751.0799999999998" y="1024.2666666666667"/>
      <point x="463.77333333333337" y="735.9066666666668"/>
      <point x="436.33333333333337" y="425.79999999999995" type="curve" smooth="yes"/>
      <point x="413.74666666666667" y="230.38666666666666"/>
      <point x="486.64" y="143.45333333333332"/>
      <point x="607.84" y="143.45333333333332" type="curve" smooth="yes"/>
      <point x="777.9866666666668" y="143.45333333333332"/>
      <point x="918.0400000000001" y="303.3733333333333"/>
      <point x="1027.4666666666667" y="570.5866666666666" type="curve"/>
      <point x="1018.1466666666669" y="589.9466666666667" type="line"/>
      <point x="961.8533333333332" y="397.04"/>
      <point x="941.0933333333334" y="307.5466666666666"/>
      <point x="938.2133333333333" y="255.30666666666667" type="curve" smooth="yes"/>
      <point x="933.0933333333334" y="184.21333333333334"/>
      <point x="974.6933333333335" y="143.66666666666666"/>
    </contour>
  </outline>
</glyph>
<glyph name="A" format="2">
  <advance width="1199.92"/>
  <unicode hex="0041"/>
  <anchor x="996.7733333333333" y="1532.0" name="center"/>
  <outline>
    <contour>
      <point x="200.6" y="231.64" type="curve" smooth="yes"/>
      <point x="752.5466666666667" y="1118.746666666667" type="line" smooth="yes"/>
      <point x="809.8399999999999" y="1201.626666666667"/>
      <point x="841.3333333333334" y="1230.7466666666664"/>
      <point x="861.7066666666666" y="1243.6533333333334" type="curve"/>
      <point x="830.5866666666667" y="1251.92" type="line"/>
      <point x="828.7333333333333" y="1105.52"/>
      <point x="786.4933333333332" y="267.6533333333333"/>
      <point x="780.6666666666666" y="132.05333333333328" type="curve" smooth="yes"/>
      <point x="778.7866666666666" y="94.13333333333337"/>
      <point x="764.1999999999999" y="71.38666666666668"/>
      <point x="729.7733333333332" y="63.653333333333336" type="curve" smooth="yes"/>
      <point x="636.9333333333333" y="47.33333333333334" type="line" smooth="yes"/>
      <point x="621.1466666666666" y="42.239999999999995"/>
      <point x="611.7333333333335" y="34.18666666666665"/>
      <point x="611.7333333333335" y="21.81333333333334" type="curve" smooth="yes"/>
      <point x="611.7333333333333" y="9.440000000000005"/>
      <point x="621.0666666666666" y="0.0"/>
      <point x="639.0133333333334" y="0.0" type="curve" smooth="yes"/>
      <point x="1063.4933333333333" y="0.0" type="line" smooth="yes"/>
      <point x="1086.2933333333335" y="0.0"/>
      <point x="1097.9199999999998" y="9.973333333333336"/>
      <point x="1097.9199999999998" y="24.02666666666667" type="curve" smooth="yes"/>
      <point x="1097.9199999999998" y="34.37333333333332"/>
      <point x="1091.4133333333336" y="41.786666666666655"/>
      <point x="1076.7733333333333" y="46.74666666666667" type="curve" smooth="yes"/>
      <point x="1000.4666666666666" y="65.3333333333333"/>
      <point x="984.2266666666667" y="84.63999999999999"/>
      <point x="984.2666666666665" y="135.27999999999997" type="curve" smooth="yes"/>
      <point x="985.0133333333333" y="254.98666666666668"/>
      <point x="1021.2533333333333" y="1123.52"/>
      <point x="1024.093333333333" y="1242.0266666666666" type="curve" smooth="yes"/>
      <point x="1028.0266666666666" y="1321.52"/>
      <point x="1063.7466666666667" y="1361.8399999999997"/>
      <point x="1118.866666666667" y="1369.2" type="curve" smooth="yes"/>
      <point x="1135.8800000000003" y="1373.7866666666669"/>
      <point x="1143.0533333333333" y="1382.2133333333336"/>
      <point x="1143.0533333333333" y="1394.2133333333331" type="curve" smooth="yes"/>
      <point x="1143.3333333333333" y="1409.5466666666666"/>
      <point x="1130.3999999999999" y="1419.44"/>
      <point x="1097.1733333333336" y="1419.44" type="curve" smooth="yes"/>
      <point x="964.8266666666667" y="1419.44"/>
      <point x="835.6133333333333" y="1337.68"/>
      <point x="709.5600000000001" y="1149.6266666666663" type="curve" smooth="yes"/>
      <point x="135.52" y="238.31999999999996" type="line" smooth="yes"/>
      <point x="71.05333333333333" y="131.74666666666667"/>
      <point x="12.54666666666665" y="73.11999999999996"/>
      <point x="-42.16" y="58.53333333333334" type="curve" smooth="yes"/>
      <point x="-70.48" y="46.879999999999995"/>
      <point x="-80.98666666666666" y="38.15999999999999"/>
      <point x="-80.9866666666667" y="23.493333333333332" type="curve" smooth="yes"/>
      <point x="-80.9866666666667" y="8.293333333333331"/>
      <point x="-69.43999999999998" y="0.0"/>
      <point x="-45.33333333333334" y="0.0" type="curve" smooth="yes"/>
      <point x="270.05333333333334" y="0.0" type="line" smooth="yes"/>
      <point x="291.97333333333336" y="0.0"/>
      <point x="305.5466666666666" y="9.546666666666674"/>
      <point x="305.5466666666666" y="25.466666666666672" type="curve" smooth="yes"/>
      <point x="305.54666666666674" y="35.70666666666666"/>
      <point x="298.6666666666667" y="43.999999999999986"/>
      <point x="282.29333333333335" y="48.85333333333332" type="curve" smooth="yes"/>
      <point x="237.78666666666666" y="56.34666666666668" type="line" smooth="yes"/>
      <point x="167.54666666666668" y="71.62666666666668"/>
      <point x="142.18666666666664" y="136.26666666666665"/>
    </contour>
    <contour>
      <point x="304.3466666666667" y="454.50666666666666" type="line"/>
      <point x="860.5333333333333" y="454.50666666666666" type="line"/>
      <point x="863.7866666666667" y="499.76" type="line"/>
      <point x="321.52000000000004" y="499.76" type="line"/>
    </contour>
  </outline>
</glyph>
<glyph name="B" format="2">
  <advance width="1263.44"/>
  <unicode hex="0042"/>
  <outline>
    <contour>
      <point x="683.48" y="1262.6933333333336" type="curve" smooth="yes"/>
      <point x="700.8933333333333" y="1325.4133333333334"/>
      <point x="733.6800000000001" y="1353.3866666666665"/>
      <point x="829.0933333333334" y="1353.3866666666665" type="curve" smooth="yes"/>
      <point x="993.5866666666666" y="1353.3866666666665"/>
      <point x="1090.5333333333333" y="1251.293333333333"/>
      <point x="1063.7733333333333" y="1062.7333333333333" type="curve" smooth="yes"/>
      <point x="1031.92" y="827.0"/>
      <point x="881.9066666666666" y="676.5066666666667"/>
      <point x="673.4666666666667" y="676.5066666666667" type="curve" smooth="yes"/>
      <point x="465.0133333333334" y="676.5066666666667" type="line"/>
      <point x="450.7199999999999" y="634.8" type="line"/>
      <point x="680.5333333333332" y="634.8" type="line" smooth="yes"/>
      <point x="870.3199999999999" y="634.8"/>
      <point x="970.2266666666666" y="532.4133333333333"/>
      <point x="942.6533333333334" y="353.1333333333334" type="curve" smooth="yes"/>
      <point x="913.1999999999999" y="158.41333333333333"/>
      <point x="774.1333333333332" y="46.42666666666666"/>
      <point x="553.64" y="46.42666666666666" type="curve" smooth="yes"/>
      <point x="421.10666666666674" y="46.42666666666666"/>
      <point x="370.0266666666667" y="76.26666666666668"/>
      <point x="385.28000000000003" y="139.04" type="curve" smooth="yes"/>
      <point x="438.80000000000007" y="378.15999999999997"/>
      <point x="593.9066666666666" y="936.2666666666668"/>
    </contour>
    <contour>
      <point x="384.77333333333337" y="1400.0" type="line" smooth="yes"/>
      <point x="355.73333333333335" y="1400.0"/>
      <point x="341.4133333333334" y="1388.8533333333335"/>
      <point x="341.4133333333333" y="1373.04" type="curve" smooth="yes"/>
      <point x="341.4133333333333" y="1362.1333333333332"/>
      <point x="349.21333333333337" y="1355.7066666666667"/>
      <point x="368.28000000000003" y="1351.0133333333333" type="curve" smooth="yes"/>
      <point x="449.7733333333333" y="1338.3733333333334" type="line" smooth="yes"/>
      <point x="477.08" y="1331.0933333333332"/>
      <point x="484.45333333333326" y="1315.5466666666664"/>
      <point x="476.16" y="1275.7066666666667" type="curve" smooth="yes"/>
      <point x="435.26666666666665" y="1083.6533333333334"/>
      <point x="253.99999999999997" y="401.0666666666667"/>
      <point x="165.81333333333333" y="117.97333333333331" type="curve" smooth="yes"/>
      <point x="155.54666666666665" y="85.6266666666667"/>
      <point x="138.5333333333333" y="66.74666666666667"/>
      <point x="103.94666666666666" y="60.29333333333334" type="curve" smooth="yes"/>
      <point x="27.879999999999995" y="48.69333333333336" type="line" smooth="yes"/>
      <point x="4.253333333333327" y="43.70666666666666"/>
      <point x="-8.946666666666673" y="34.4"/>
      <point x="-8.946666666666673" y="21.973333333333343" type="curve" smooth="yes"/>
      <point x="-8.946666666666673" y="8.826666666666672"/>
      <point x="-0.4666666666666668" y="0.0"/>
      <point x="23.826666666666668" y="0.0" type="curve" smooth="yes"/>
      <point x="564.7333333333332" y="0.0" type="line" smooth="yes"/>
      <point x="932.76" y="0.0"/>
      <point x="1130.3200000000002" y="134.49333333333334"/>
      <point x="1157.2533333333336" y="345.24" type="curve" smooth="yes"/>
      <point x="1181.8933333333334" y="542.4666666666666"/>
      <point x="1029.3066666666666" y="665.8666666666667"/>
      <point x="720.6133333333333" y="665.8666666666667" type="curve"/>
      <point x="730.6666666666669" y="656.08" type="line"/>
      <point x="1018.0666666666666" y="656.08"/>
      <point x="1233.2133333333336" y="814.1466666666668"/>
      <point x="1263.0533333333333" y="1044.04" type="curve" smooth="yes"/>
      <point x="1291.32" y="1265.9866666666665"/>
      <point x="1150.2933333333335" y="1400.0"/>
      <point x="856.7733333333333" y="1400.0" type="curve" smooth="yes"/>
    </contour>
  </outline>
</glyph>
<glyph name="C" format="2">
  <advance width="1244.9466666666665"/>
  <unicode hex="0043"/>
  <anchor x="937.8133333333333" y="1510.0" name="center"/>
  <outline>
    <contour>
      <point x="1148.9733333333334" y="399.86666666666673" type="curve" smooth="yes"/>
      <point x="1134.0666666666668" y="406.0266666666666"/>
      <point x="1118.8400000000001" y="396.6266666666667"/>
      <point x="1101.3866666666665" y="374.50666666666666" type="curve" smooth="yes"/>
      <point x="985.1733333333333" y="153.74666666666667"/>
      <point x="828.1466666666668" y="70.93333333333337"/>
      <point x="671.8799999999999" y="70.93333333333337" type="curve" smooth="yes"/>
      <point x="452.77333333333337" y="70.93333333333337"/>
      <point x="309.84000000000003" y="239.34666666666664"/>
      <point x="382.6266666666666" y="660.2533333333333" type="curve" smooth="yes"/>
      <point x="449.49333333333334" y="1051.2800000000002"/>
      <point x="674.7866666666665" y="1365.4800000000002"/>
      <point x="952.5733333333335" y="1365.4800000000002" type="curve" smooth="yes"/>
      <point x="1093.2000000000003" y="1365.4800000000002"/>
      <point x="1189.8133333333333" y="1295.1333333333332"/>
      <point x="1242.4666666666667" y="1115.1599999999999" type="curve" smooth="yes"/>
      <point x="1267.5066666666667" y="1029.88" type="line" smooth="yes"/>
      <point x="1273.9199999999998" y="1012.1733333333333"/>
      <point x="1283.8266666666666" y="1001.4266666666666"/>
      <point x="1300.4266666666667" y="1001.9866666666667" type="curve" smooth="yes"/>
      <point x="1316.5466666666669" y="1002.5866666666667"/>
      <point x="1328.96" y="1012.5466666666666"/>
      <point x="1328.6133333333332" y="1032.96" type="curve" smooth="yes"/>
      <point x="1328.84" y="1389.0666666666666" type="line" smooth="yes"/>
      <point x="1327.96" y="1410.1733333333334"/>
      <point x="1317.7866666666664" y="1421.0666666666666"/>
      <point x="1301.0933333333332" y="1421.0666666666666" type="curve" smooth="yes"/>
      <point x="1274.533333333333" y="1421.0666666666666"/>
      <point x="1219.5733333333333" y="1318.8"/>
      <point x="1191.4933333333333" y="1318.8" type="curve" smooth="yes"/>
      <point x="1167.2933333333333" y="1318.8"/>
      <point x="1107.1333333333332" y="1423.4933333333333"/>
      <point x="929.1466666666666" y="1423.4933333333333" type="curve" smooth="yes"/>
      <point x="546.7599999999999" y="1423.4933333333333"/>
      <point x="216.47999999999996" y="1068.1733333333336"/>
      <point x="144.18666666666664" y="637.9466666666667" type="curve" smooth="yes"/>
      <point x="71.99999999999999" y="208.60000000000002"/>
      <point x="277.09333333333336" y="-21.16"/>
      <point x="583.5733333333334" y="-21.16" type="curve" smooth="yes"/>
      <point x="831.4399999999999" y="-21.16"/>
      <point x="1033.2666666666664" y="103.72000000000001"/>
      <point x="1148.946666666667" y="347.04" type="curve" smooth="yes"/>
      <point x="1165.4533333333334" y="376.6266666666666"/>
      <point x="1161.8266666666668" y="393.2933333333333"/>
    </contour>
  </outline>
</glyph>
<glyph name="D" format="2">
  <advance width="1424.7333333333331"/>
  <unicode hex="0044"/>
  <anchor x="978.9733333333332" y="1485.0" name="center"/>
  <outline>
    <contour>
      <point x="1.3866666666666658" y="22.573333333333323" type="curve" smooth="yes"/>
      <point x="1.3866666666666623" y="9.42666666666667"/>
      <point x="8.306666666666667" y="0.0"/>
      <point x="31.239999999999995" y="0.0" type="curve" smooth="yes"/>
      <point x="537.8133333333333" y="0.0" type="line" smooth="yes"/>
      <point x="988.1733333333333" y="0.0"/>
      <point x="1330.5333333333333" y="280.32"/>
      <point x="1406.5200000000002" y="718.9066666666666" type="curve" smooth="yes"/>
      <point x="1480.88" y="1150.6"/>
      <point x="1233.44" y="1400.0"/>
      <point x="880.5333333333334" y="1400.0" type="curve" smooth="yes"/>
      <point x="383.44000000000005" y="1400.0" type="line" smooth="yes"/>
      <point x="358.36" y="1400.0"/>
      <point x="346.62666666666667" y="1390.346666666667"/>
      <point x="346.6266666666666" y="1375.2799999999997" type="curve" smooth="yes"/>
      <point x="346.62666666666667" y="1362.3866666666668"/>
      <point x="354.02666666666664" y="1356.1733333333336"/>
      <point x="377.6533333333333" y="1351.0533333333333" type="curve" smooth="yes"/>
      <point x="448.78666666666663" y="1338.5066666666667" type="line" smooth="yes"/>
      <point x="483.9599999999999" y="1331.9866666666662"/>
      <point x="492.67999999999995" y="1316.3333333333333"/>
      <point x="483.4133333333333" y="1278.92" type="curve" smooth="yes"/>
      <point x="431.82666666666665" y="1056.1733333333336"/>
      <point x="242.46666666666664" y="385.1466666666666"/>
      <point x="178.05333333333334" y="138.13333333333333" type="curve" smooth="yes"/>
      <point x="160.58666666666667" y="83.67999999999999"/>
      <point x="141.13333333333335" y="64.97333333333336"/>
      <point x="104.88" y="59.45333333333334" type="curve" smooth="yes"/>
      <point x="33.05333333333333" y="49.013333333333335" type="line" smooth="yes"/>
      <point x="11.679999999999998" y="44.599999999999994"/>
      <point x="1.3866666666666623" y="35.506666666666675"/>
    </contour>
    <contour>
      <point x="548.6399999999999" y="51.54666666666665" type="curve" smooth="yes"/>
      <point x="456.28" y="51.54666666666665" type="line" smooth="yes"/>
      <point x="400.9361403508773" y="51.54666666666665"/>
      <point x="381.98820088112933" y="84.76016003644298"/>
      <point x="396.40000000000003" y="154.05333333333334" type="curve" smooth="yes"/>
      <point x="447.14666666666665" y="385.97333333333336"/>
      <point x="634.9733333333334" y="1036.8133333333335"/>
      <point x="695.0933333333334" y="1272.2" type="curve" smooth="yes"/>
      <point x="711.6" y="1327.4266666666667"/>
      <point x="739.8800000000001" y="1350.7999999999997"/>
      <point x="779.68" y="1350.7999999999997" type="curve" smooth="yes"/>
      <point x="876.1466666666666" y="1350.7999999999997" type="line" smooth="yes"/>
      <point x="1090.955868544601" y="1350.7999999999997"/>
      <point x="1258.8946180877917" y="1148.67037758609"/>
      <point x="1182.2666666666664" y="726.3733333333333" type="curve" smooth="yes"/>
      <point x="1103.4399999999998" y="288.4666666666666"/>
      <point x="848.24" y="51.54666666666665"/>
    </contour>
  </outline>
</glyph>
<glyph name="E" format="2">
  <advance width="1205.9999999999998"/>
  <unicode hex="0045"/>
  <anchor x="872.9866666666666" y="1468.0" name="center"/>
  <outline>
    <contour>
      <point x="465.88000000000005" y="732.5333333333333" type="line"/>
      <point x="452.0400000000001" y="688.3733333333333" type="line"/>
      <point x="797.0266666666665" y="688.3733333333333" type="line" smooth="yes"/>
      <point x="892.7066666666668" y="688.3733333333333"/>
      <point x="939.0399999999998" y="651.5466666666666"/>
      <point x="975.4933333333332" y="544.0266666666668" type="curve" smooth="yes"/>
      <point x="982.6133333333332" y="529.2266666666668"/>
      <point x="991.7866666666666" y="522.0"/>
      <point x="1006.2133333333331" y="523.0666666666667" type="curve" smooth="yes"/>
      <point x="1021.8933333333333" y="524.3466666666667"/>
      <point x="1031.6533333333332" y="534.8533333333336"/>
      <point x="1027.6666666666665" y="561.7866666666666" type="curve" smooth="yes"/>
      <point x="984.4399999999999" y="882.2666666666667" type="line" smooth="yes"/>
      <point x="981.9866666666667" y="900.0533333333333"/>
      <point x="972.84" y="909.4133333333334"/>
      <point x="956.5199999999999" y="909.4133333333334" type="curve" smooth="yes"/>
      <point x="944.68" y="909.4133333333334"/>
      <point x="935.7999999999997" y="902.0533333333333"/>
      <point x="932.2266666666666" y="888.2933333333333" type="curve" smooth="yes"/>
      <point x="921.8799999999999" y="767.9200000000001"/>
      <point x="867.48" y="732.5333333333333"/>
      <point x="795.7466666666668" y="732.5333333333333" type="curve" smooth="yes"/>
    </contour>
    <contour>
      <point x="736.2533333333334" y="0.0" type="line" smooth="yes"/>
      <point x="780.0666666666667" y="0.0"/>
      <point x="806.0266666666668" y="-24.05333333333333"/>
      <point x="842.7199999999999" y="-24.05333333333333" type="curve" smooth="yes"/>
      <point x="971.9466666666666" y="-24.05333333333333"/>
      <point x="1087.226666666667" y="131.33333333333331"/>
      <point x="1097.2933333333333" y="337.41333333333336" type="curve" smooth="yes"/>
      <point x="1097.9733333333334" y="356.93333333333334"/>
      <point x="1090.16" y="368.4266666666666"/>
      <point x="1075.4133333333332" y="368.4266666666666" type="curve" smooth="yes"/>
      <point x="1064.2133333333336" y="368.4266666666666"/>
      <point x="1053.2799999999997" y="359.97333333333336"/>
      <point x="1043.8" y="342.40000000000003" type="curve" smooth="yes"/>
      <point x="936.68" y="125.70666666666662"/>
      <point x="832.6266666666666" y="44.160000000000004"/>
      <point x="687.4533333333334" y="44.160000000000004" type="curve" smooth="yes"/>
      <point x="486.75999999999993" y="44.160000000000004" type="line" smooth="yes"/>
      <point x="392.3866666666667" y="44.160000000000004"/>
      <point x="371.84000000000003" y="69.60000000000002"/>
      <point x="385.76" y="127.12" type="curve" smooth="yes"/>
      <point x="427.62666666666667" y="315.4666666666666"/>
      <point x="638.5333333333332" y="1086.48"/>
      <point x="713.8933333333333" y="1356.4800000000002" type="curve"/>
      <point x="1002.16" y="1356.4800000000002" type="line" smooth="yes"/>
      <point x="1109.3066666666668" y="1356.4800000000002"/>
      <point x="1163.0266666666666" y="1311.0133333333333"/>
      <point x="1222.7866666666669" y="1099.493333333333" type="curve" smooth="yes"/>
      <point x="1233.8666666666666" y="1072.6933333333334"/>
      <point x="1245.9066666666665" y="1063.4399999999998"/>
      <point x="1264.2266666666667" y="1064.9333333333332" type="curve" smooth="yes"/>
      <point x="1280.8133333333333" y="1066.2133333333334"/>
      <point x="1289.2133333333336" y="1079.3466666666666"/>
      <point x="1284.8933333333337" y="1103.7866666666666" type="curve" smooth="yes"/>
      <point x="1260.773333333333" y="1398.4533333333331" type="line" smooth="yes"/>
      <point x="1256.84" y="1423.28"/>
      <point x="1246.0666666666668" y="1433.0933333333335"/>
      <point x="1226.44" y="1433.0933333333335" type="curve" smooth="yes"/>
      <point x="1197.8933333333334" y="1433.0933333333335"/>
      <point x="1164.6799999999998" y="1400.0"/>
      <point x="1096.6133333333335" y="1400.0" type="curve" smooth="yes"/>
      <point x="385.0933333333333" y="1400.0" type="line" smooth="yes"/>
      <point x="362.9866666666666" y="1400.0"/>
      <point x="350.4800000000001" y="1390.1333333333334"/>
      <point x="350.4800000000001" y="1374.6399999999999" type="curve" smooth="yes"/>
      <point x="350.4800000000001" y="1362.24"/>
      <point x="359.4266666666667" y="1355.1733333333332"/>
      <point x="375.7466666666667" y="1351.3333333333335" type="curve" smooth="yes"/>
      <point x="456.92" y="1337.9466666666667" type="line" smooth="yes"/>
      <point x="481.5066666666666" y="1333.2266666666665"/>
      <point x="491.17333333333335" y="1314.9066666666665"/>
      <point x="482.6666666666667" y="1278.3733333333332" type="curve" smooth="yes"/>
      <point x="433.4533333333334" y="1068.3733333333334"/>
      <point x="221.33333333333331" y="310.7200000000001"/>
      <point x="170.72" y="121.70666666666665" type="curve" smooth="yes"/>
      <point x="158.32" y="84.13333333333333"/>
      <point x="142.26666666666665" y="67.06666666666666"/>
      <point x="110.13333333333335" y="61.89333333333334" type="curve" smooth="yes"/>
      <point x="27.026666666666653" y="49.33333333333334" type="line" smooth="yes"/>
      <point x="9.986666666666666" y="45.51999999999998"/>
      <point x="-0.8399999999999999" y="35.65333333333333"/>
      <point x="-0.8399999999999999" y="22.613333333333344" type="curve" smooth="yes"/>
      <point x="-0.840000000000007" y="9.46666666666667"/>
      <point x="7.319999999999996" y="0.0"/>
      <point x="29.37333333333334" y="0.0" type="curve" smooth="yes"/>
    </contour>
  </outline>
</glyph>
<glyph name="F" format="2">
  <advance width="1144.92"/>
  <unicode hex="0046"/>
  <outline>
    <contour>
      <point x="347.91999999999996" y="1375.28" type="curve" smooth="yes"/>
      <point x="346.96000000000004" y="1362.346666666667"/>
      <point x="356.22666666666663" y="1356.3466666666668"/>
      <point x="377.0266666666667" y="1351.0133333333333" type="curve" smooth="yes"/>
      <point x="452.43999999999994" y="1337.946666666667" type="line" smooth="yes"/>
      <point x="478.3333333333333" y="1332.48"/>
      <point x="488.90666666666664" y="1317.44"/>
      <point x="481.06666666666666" y="1282.5333333333333" type="curve" smooth="yes"/>
      <point x="425.1866666666666" y="1049.0666666666666"/>
      <point x="246.29333333333335" y="382.08000000000004"/>
      <point x="169.76" y="122.98666666666668" type="curve" smooth="yes"/>
      <point x="158.42666666666665" y="86.16000000000003"/>
      <point x="142.0533333333333" y="67.38666666666666"/>
      <point x="110.13333333333334" y="62.213333333333345" type="curve" smooth="yes"/>
      <point x="37.266666666666666" y="51.25333333333336" type="line" smooth="yes"/>
      <point x="10.946666666666665" y="46.15999999999998"/>
      <point x="-0.20000000000000195" y="36.93333333333332"/>
      <point x="-0.8400000000000052" y="22.933333333333337" type="curve" smooth="yes"/>
      <point x="-1.4800000000000022" y="8.826666666666672"/>
      <point x="7.32" y="0.0"/>
      <point x="30.333333333333325" y="0.0" type="curve" smooth="yes"/>
      <point x="516.3333333333335" y="0.0" type="line" smooth="yes"/>
      <point x="547.1066666666667" y="0.0"/>
      <point x="560.0400000000001" y="11.013333333333339"/>
      <point x="560.0400000000001" y="27.013333333333343" type="curve" smooth="yes"/>
      <point x="560.04" y="39.071515151515136"/>
      <point x="548.893225212998" y="47.34911787956122"/>
      <point x="525.7466666666667" y="50.29333333333335" type="curve" smooth="yes"/>
      <point x="417.97333333333336" y="61.30666666666666" type="line" smooth="yes"/>
      <point x="378.29574477404094" y="66.22325341270519"/>
      <point x="375.02810252690165" y="89.23097424737185"/>
      <point x="384.53333333333336" y="123.2266666666667" type="curve" smooth="yes"/>
      <point x="439.6" y="350.93333333333334"/>
      <point x="628.4266666666666" y="1057.9199999999998"/>
      <point x="713.9733333333334" y="1356.48" type="curve"/>
      <point x="976.1333333333336" y="1356.48" type="line" smooth="yes"/>
      <point x="1090.9333333333334" y="1356.48"/>
      <point x="1141.1866666666667" y="1304.1599999999999"/>
      <point x="1182.6000000000001" y="1163.8666666666668" type="curve" smooth="yes"/>
      <point x="1203.4933333333333" y="1097.3333333333333" type="line" smooth="yes"/>
      <point x="1215.4666666666667" y="1070.2399999999998"/>
      <point x="1226.4799999999998" y="1058.853333333333"/>
      <point x="1246.1599999999999" y="1060.3466666666668" type="curve" smooth="yes"/>
      <point x="1263.0666666666668" y="1061.6266666666666"/>
      <point x="1270.72" y="1074.64"/>
      <point x="1266.72" y="1098.6666666666667" type="curve" smooth="yes"/>
      <point x="1242.0266666666669" y="1400.3733333333332" type="line" smooth="yes"/>
      <point x="1238.626666666667" y="1423.6000000000001"/>
      <point x="1227.5333333333333" y="1433.0933333333335"/>
      <point x="1208.8666666666668" y="1433.0933333333335" type="curve" smooth="yes"/>
      <point x="1178.7199999999998" y="1433.0933333333335"/>
      <point x="1146.8933333333332" y="1400.0"/>
      <point x="1078.0800000000002" y="1400.0" type="curve" smooth="yes"/>
      <point x="386.05333333333334" y="1400.0" type="line" smooth="yes"/>
      <point x="362.9866666666667" y="1400.0"/>
      <point x="349.20000000000005" y="1391.0933333333335"/>
    </contour>
    <contour>
      <point x="459.2666666666667" y="703.4666666666667" type="line"/>
      <point x="444.50666666666655" y="659.3066666666666" type="line"/>
      <point x="775.0933333333334" y="659.3066666666666" type="line" smooth="yes"/>
      <point x="875.5733333333333" y="659.3066666666666"/>
      <point x="916.0666666666666" y="617.4133333333334"/>
      <point x="958.72" y="512.5066666666668" type="curve" smooth="yes"/>
      <point x="967.0133333333334" y="494.9333333333334"/>
      <point x="975.6933333333334" y="487.3866666666666"/>
      <point x="990.0800000000002" y="488.45333333333326" type="curve" smooth="yes"/>
      <point x="1006.08" y="489.7333333333333"/>
      <point x="1016.3466666666665" y="500.23999999999995"/>
      <point x="1011.8933333333334" y="526.5333333333333" type="curve" smooth="yes"/>
      <point x="964.4266666666667" y="856.8266666666668" type="line" smooth="yes"/>
      <point x="961.6133333333333" y="875.8933333333333"/>
      <point x="952.6799999999998" y="885.7866666666666"/>
      <point x="936.3600000000001" y="885.7866666666666" type="curve" smooth="yes"/>
      <point x="923.3466666666667" y="885.7866666666666"/>
      <point x="915.68" y="877.4666666666666"/>
      <point x="912.2133333333334" y="862.1066666666667" type="curve" smooth="yes"/>
      <point x="895.8666666666668" y="741.8933333333334"/>
      <point x="847.4266666666667" y="703.4666666666667"/>
      <point x="774.4133333333333" y="703.4666666666667" type="curve" smooth="yes"/>
    </contour>
  </outline>
</glyph>
<glyph name="G" format="2">
  <advance width="1353.8666666666666"/>
  <unicode hex="0047"/>
  <anchor x="961.8533333333334" y="1566.0" name="center"/>
  <outline>
    <contour>
      <point x="932.8533333333332" y="1427.04" type="curve" smooth="yes"/>
      <point x="542.6933333333333" y="1427.04"/>
      <point x="202.4133333333333" y="1061.6800000000003"/>
      <point x="131.57333333333332" y="628.9466666666667" type="curve" smooth="yes"/>
      <point x="62.853333333333325" y="212.13333333333333"/>
      <point x="259.2" y="-23.84"/>
      <point x="580.92" y="-23.84" type="curve" smooth="yes"/>
      <point x="789.4533333333334" y="-23.84"/>
      <point x="879.6266666666666" y="83.98666666666664"/>
      <point x="909.04" y="83.98666666666664" type="curve" smooth="yes"/>
      <point x="933.5866666666666" y="83.98666666666664"/>
      <point x="1006.4133333333332" y="-23.28"/>
      <point x="1033.9066666666668" y="-23.28" type="curve" smooth="yes"/>
      <point x="1055.5066666666667" y="-23.28"/>
      <point x="1066.7333333333336" y="-13.573333333333334"/>
      <point x="1076.6933333333334" y="18.453333333333337" type="curve" smooth="yes"/>
      <point x="1217.9466666666663" y="516.6133333333335" type="line" smooth="yes"/>
      <point x="1225.6933333333334" y="543.5733333333332"/>
      <point x="1239.9066666666668" y="558.7733333333334"/>
      <point x="1266.96" y="565.12" type="curve" smooth="yes"/>
      <point x="1330.2933333333333" y="580.3733333333333" type="line" smooth="yes"/>
      <point x="1350.9600000000003" y="585.36"/>
      <point x="1361.6799999999998" y="594.88"/>
      <point x="1362.6000000000001" y="607.8399999999999" type="curve" smooth="yes"/>
      <point x="1362.92" y="621.5200000000001"/>
      <point x="1356.3600000000001" y="629.8933333333333"/>
      <point x="1333.1866666666665" y="629.8933333333333" type="curve" smooth="yes"/>
      <point x="904.3599999999999" y="629.8933333333333" type="line" smooth="yes"/>
      <point x="882.1466666666668" y="629.8933333333333"/>
      <point x="868.7866666666665" y="620.8799999999999"/>
      <point x="868.7866666666666" y="604.5333333333333" type="curve" smooth="yes"/>
      <point x="868.5066666666665" y="592.4533333333335"/>
      <point x="874.6666666666667" y="582.6133333333333"/>
      <point x="894.0533333333333" y="579.9466666666667" type="curve" smooth="yes"/>
      <point x="990.9333333333332" y="567.4133333333333" type="line" smooth="yes"/>
      <point x="1024.6666666666665" y="563.6666666666666"/>
      <point x="1031.88" y="541.6266666666667"/>
      <point x="1021.4133333333333" y="506.13333333333327" type="curve" smooth="yes"/>
      <point x="951.0133333333334" y="248.74666666666667" type="line" smooth="yes"/>
      <point x="914.0798967863614" y="116.97411872691404"/>
      <point x="780.5866666666666" y="34.18666666666667"/>
      <point x="628.0266666666665" y="34.18666666666667" type="curve" smooth="yes"/>
      <point x="418.4000000000001" y="34.18666666666667"/>
      <point x="293.39437656248754" y="206.9413522093664"/>
      <point x="363.6133333333334" y="632.2933333333334" type="curve" smooth="yes"/>
      <point x="433.73890672063146" y="1046.9166740315595"/>
      <point x="680.0933333333334" y="1370.9066666666668"/>
      <point x="977.1466666666666" y="1370.9066666666668" type="curve" smooth="yes"/>
      <point x="1126.1333333333332" y="1370.9066666666668"/>
      <point x="1227.846813323439" y="1297.9079055844143"/>
      <point x="1289.52" y="1113.6800000000003" type="curve" smooth="yes"/>
      <point x="1317.0533333333333" y="1030.4" type="line" smooth="yes"/>
      <point x="1323.2666666666669" y="1013.8933333333333"/>
      <point x="1335.3333333333333" y="1004.9066666666668"/>
      <point x="1349.7066666666667" y="1005.76" type="curve" smooth="yes"/>
      <point x="1364.72" y="1006.3999999999999"/>
      <point x="1376.0533333333333" y="1015.1600000000001"/>
      <point x="1374.64" y="1036.5733333333335" type="curve" smooth="yes"/>
      <point x="1377.0266666666666" y="1379.186666666667" type="line" smooth="yes"/>
      <point x="1374.7599999999998" y="1404.8666666666668"/>
      <point x="1363.0933333333335" y="1416.32"/>
      <point x="1344.6933333333332" y="1416.32" type="curve" smooth="yes"/>
      <point x="1319.2571948998177" y="1416.32"/>
      <point x="1258.5333333333333" y="1316.5066666666667"/>
      <point x="1230.493333333333" y="1316.5066666666667" type="curve" smooth="yes"/>
      <point x="1202.9199999999996" y="1316.5066666666667"/>
      <point x="1145.0915859449192" y="1427.04"/>
    </contour>
  </outline>
</glyph>
<glyph name="H" format="2">
  <advance width="1498.84"/>
  <unicode hex="0048"/>
  <anchor x="1034.8533333333332" y="1498.4666666666667" name="center"/>
  <outline>
    <contour>
      <point x="384.48" y="119.44000000000003" type="curve" smooth="yes"/>
      <point x="422.34666666666664" y="294.88"/>
      <point x="631.1066666666666" y="1063.4666666666667"/>
      <point x="693.5866666666667" y="1282.0266666666666" type="curve" smooth="yes"/>
      <point x="704.5866666666666" y="1317.2"/>
      <point x="719.3733333333334" y="1329.84"/>
      <point x="748.9200000000002" y="1335.5466666666664" type="curve" smooth="yes"/>
      <point x="833.6666666666667" y="1351.8666666666668" type="line" smooth="yes"/>
      <point x="855.8933333333334" y="1357.0933333333332"/>
      <point x="865.9733333333332" y="1365.7333333333333"/>
      <point x="865.9733333333332" y="1379.8666666666666" type="curve" smooth="yes"/>
      <point x="865.9733333333332" y="1391.9466666666667"/>
      <point x="859.1999999999999" y="1400.0"/>
      <point x="835.9200000000001" y="1400.0" type="curve" smooth="yes"/>
      <point x="385.73333333333335" y="1400.0" type="line" smooth="yes"/>
      <point x="359.25333333333333" y="1400.0"/>
      <point x="344.08" y="1391.3066666666666"/>
      <point x="344.08" y="1375.9199999999998" type="curve" smooth="yes"/>
      <point x="344.08000000000004" y="1363.4133333333334"/>
      <point x="350.8133333333333" y="1356.3466666666668"/>
      <point x="371.58666666666664" y="1351.3333333333333" type="curve" smooth="yes"/>
      <point x="450.52000000000004" y="1337.9466666666667" type="line" smooth="yes"/>
      <point x="479.95999999999987" y="1332.0533333333335"/>
      <point x="488.21333333333337" y="1315.8666666666666"/>
      <point x="481.65333333333325" y="1283.9466666666665" type="curve" smooth="yes"/>
      <point x="434.4933333333333" y="1070.9066666666665"/>
      <point x="228.00000000000003" y="328.53333333333325"/>
      <point x="170.82666666666665" y="121.92000000000002" type="curve" smooth="yes"/>
      <point x="158.24" y="83.91999999999999"/>
      <point x="140.53333333333333" y="65.46666666666664"/>
      <point x="107.25333333333333" y="60.29333333333334" type="curve" smooth="yes"/>
      <point x="28.306666666666658" y="49.01333333333334" type="line" smooth="yes"/>
      <point x="9.906666666666661" y="45.30666666666666"/>
      <point x="-1.800000000000007" y="35.893333333333324"/>
      <point x="-1.1600000000000064" y="21.973333333333336" type="curve" smooth="yes"/>
      <point x="-1.1600000000000064" y="9.06666666666667"/>
      <point x="6.360000000000001" y="0.0"/>
      <point x="30.653333333333325" y="0.0" type="curve" smooth="yes"/>
      <point x="484.33333333333337" y="0.0" type="line" smooth="yes"/>
      <point x="506.06666666666683" y="0.0"/>
      <point x="520.3600000000001" y="9.013333333333339"/>
      <point x="520.3600000000001" y="24.266666666666673" type="curve" smooth="yes"/>
      <point x="520.36" y="36.666666666666664"/>
      <point x="512.3333333333334" y="43.65333333333335"/>
      <point x="494.3866666666667" y="47.97333333333334" type="curve" smooth="yes"/>
      <point x="414.64" y="59.60000000000002" type="line" smooth="yes"/>
      <point x="385.0399999999999" y="64.42666666666665"/>
      <point x="376.86666666666673" y="85.78666666666668"/>
    </contour>
    <contour>
      <point x="445.88" y="686.1066666666667" type="line"/>
      <point x="431.28" y="637.68" type="line"/>
      <point x="1184.2933333333333" y="637.68" type="line"/>
      <point x="1199.7733333333333" y="686.1066666666667" type="line"/>
    </contour>
    <contour>
      <point x="1172.666666666667" y="119.44000000000003" type="curve" smooth="yes"/>
      <point x="1210.0000000000002" y="294.87999999999994"/>
      <point x="1419.0799999999997" y="1063.4666666666667"/>
      <point x="1481.4533333333334" y="1282.0266666666664" type="curve" smooth="yes"/>
      <point x="1492.56" y="1317.1999999999998"/>
      <point x="1507.5600000000002" y="1329.8400000000001"/>
      <point x="1536.7866666666666" y="1335.5466666666666" type="curve" smooth="yes"/>
      <point x="1622.1733333333336" y="1351.8666666666668" type="line" smooth="yes"/>
      <point x="1643.76" y="1357.0933333333332"/>
      <point x="1653.84" y="1365.7333333333333"/>
      <point x="1653.8400000000001" y="1379.8666666666668" type="curve" smooth="yes"/>
      <point x="1653.8400000000001" y="1391.946666666667"/>
      <point x="1647.0666666666668" y="1400.0"/>
      <point x="1624.1066666666666" y="1400.0" type="curve" smooth="yes"/>
      <point x="1173.5999999999997" y="1400.0" type="line" smooth="yes"/>
      <point x="1146.9066666666665" y="1400.0"/>
      <point x="1132.2666666666669" y="1391.3066666666668"/>
      <point x="1132.2666666666667" y="1375.9199999999998" type="curve" smooth="yes"/>
      <point x="1132.2666666666667" y="1363.4133333333334"/>
      <point x="1138.4666666666667" y="1356.3466666666668"/>
      <point x="1159.4533333333334" y="1351.3333333333333" type="curve" smooth="yes"/>
      <point x="1238.1733333333332" y="1337.946666666667" type="line" smooth="yes"/>
      <point x="1267.6133333333335" y="1332.0533333333333"/>
      <point x="1276.1866666666665" y="1315.8666666666668"/>
      <point x="1269.3066666666664" y="1283.9466666666665" type="curve" smooth="yes"/>
      <point x="1222.1466666666665" y="1070.9066666666668"/>
      <point x="1015.6533333333333" y="328.5333333333333"/>
      <point x="958.6933333333334" y="121.92000000000002" type="curve" smooth="yes"/>
      <point x="945.8933333333334" y="83.91999999999999"/>
      <point x="928.7199999999998" y="65.46666666666665"/>
      <point x="895.44" y="60.29333333333336" type="curve" smooth="yes"/>
      <point x="816.4933333333332" y="49.013333333333335" type="line" smooth="yes"/>
      <point x="798.0933333333331" y="45.30666666666664"/>
      <point x="786.3866666666668" y="35.893333333333324"/>
      <point x="786.7066666666667" y="21.973333333333343" type="curve" smooth="yes"/>
      <point x="786.7066666666667" y="9.06666666666667"/>
      <point x="794.5466666666669" y="0.0"/>
      <point x="818.8399999999999" y="0.0" type="curve" smooth="yes"/>
      <point x="1271.9866666666667" y="0.0" type="line" smooth="yes"/>
      <point x="1294.04" y="0.0"/>
      <point x="1308.3333333333333" y="9.013333333333335"/>
      <point x="1308.3333333333333" y="24.266666666666666" type="curve" smooth="yes"/>
      <point x="1308.3333333333333" y="36.66666666666665"/>
      <point x="1300.2" y="43.65333333333334"/>
      <point x="1282.04" y="47.97333333333334" type="curve" smooth="yes"/>
      <point x="1202.8266666666666" y="59.600000000000016" type="line" smooth="yes"/>
      <point x="1172.9066666666668" y="64.42666666666665"/>
      <point x="1164.7333333333331" y="85.78666666666666"/>
    </contour>
  </outline>
</glyph>
<glyph name="I" format="2">
  <advance width="715.3066666666667"/>
  <unicode hex="0049"/>
  <anchor x="653.8533333333334" y="1468.0" name="center"/>
  <outline>
    <contour>
      <point x="386.44000000000005" y="119.44000000000003" type="curve" smooth="yes"/>
      <point x="423.7733333333334" y="294.88"/>
      <point x="632.6133333333335" y="1063.4666666666667"/>
      <point x="694.4533333333334" y="1282.0266666666666" type="curve" smooth="yes"/>
      <point x="705.5600000000001" y="1317.2"/>
      <point x="720.5600000000001" y="1329.84"/>
      <point x="749.7866666666667" y="1335.5466666666664" type="curve" smooth="yes"/>
      <point x="834.8533333333331" y="1351.8666666666668" type="line" smooth="yes"/>
      <point x="856.7599999999999" y="1357.0933333333335"/>
      <point x="866.84" y="1365.7333333333336"/>
      <point x="866.84" y="1379.8666666666668" type="curve" smooth="yes"/>
      <point x="866.84" y="1391.9466666666667"/>
      <point x="860.0666666666668" y="1400.0"/>
      <point x="837.1066666666667" y="1400.0" type="curve" smooth="yes"/>
      <point x="386.92" y="1400.0" type="line" smooth="yes"/>
      <point x="359.9066666666667" y="1400.0"/>
      <point x="345.2666666666666" y="1391.3066666666668"/>
      <point x="345.26666666666665" y="1375.9199999999998" type="curve" smooth="yes"/>
      <point x="345.26666666666665" y="1363.4133333333334"/>
      <point x="351.46666666666664" y="1356.3466666666668"/>
      <point x="372.4533333333333" y="1351.3333333333333" type="curve" smooth="yes"/>
      <point x="451.49333333333334" y="1337.9466666666667" type="line" smooth="yes"/>
      <point x="480.6133333333333" y="1332.0533333333335"/>
      <point x="489.1866666666667" y="1315.8666666666666"/>
      <point x="482.62666666666667" y="1283.9466666666665" type="curve" smooth="yes"/>
      <point x="435.36000000000007" y="1070.5866666666666"/>
      <point x="229.74666666666673" y="328.53333333333325"/>
      <point x="172.25333333333333" y="121.92000000000002" type="curve" smooth="yes"/>
      <point x="159.66666666666666" y="83.91999999999999"/>
      <point x="142.49333333333334" y="65.46666666666664"/>
      <point x="109.21333333333332" y="60.29333333333334" type="curve" smooth="yes"/>
      <point x="30.266666666666673" y="49.01333333333334" type="line" smooth="yes"/>
      <point x="11.866666666666669" y="45.30666666666666"/>
      <point x="0.1599999999999966" y="35.893333333333324"/>
      <point x="0.7999999999999972" y="21.973333333333336" type="curve" smooth="yes"/>
      <point x="0.7999999999999972" y="9.06666666666667"/>
      <point x="8.319999999999995" y="0.0"/>
      <point x="32.29333333333334" y="0.0" type="curve" smooth="yes"/>
      <point x="486.0800000000001" y="0.0" type="line" smooth="yes"/>
      <point x="507.81333333333333" y="0.0"/>
      <point x="522.1066666666667" y="9.013333333333339"/>
      <point x="522.1066666666667" y="24.266666666666673" type="curve" smooth="yes"/>
      <point x="522.1066666666666" y="36.666666666666664"/>
      <point x="513.9733333333334" y="43.65333333333335"/>
      <point x="495.81333333333333" y="47.97333333333334" type="curve" smooth="yes"/>
      <point x="416.28000000000003" y="59.60000000000002" type="line" smooth="yes"/>
      <point x="386.68" y="64.42666666666665"/>
      <point x="378.29333333333335" y="85.78666666666668"/>
    </contour>
  </outline>
</glyph>
<glyph name="J" format="2">
  <advance width="692.0666666666666"/>
  <unicode hex="004A"/>
  <anchor x="643.2" y="1468.0" name="center"/>
  <outline>
    <contour>
      <point x="685.1066666666666" y="1267.0266666666666" type="curve" smooth="yes"/>
      <point x="700.3333333333334" y="1316.3200000000002"/>
      <point x="713.0" y="1327.5733333333335"/>
      <point x="748.0266666666668" y="1335.8266666666666" type="curve" smooth="yes"/>
      <point x="828.6133333333333" y="1352.1866666666667" type="line" smooth="yes"/>
      <point x="846.4399999999999" y="1356.4933333333333"/>
      <point x="858.0400000000001" y="1365.7333333333333"/>
      <point x="858.0400000000001" y="1379.2666666666664" type="curve" smooth="yes"/>
      <point x="858.0400000000001" y="1392.226666666667"/>
      <point x="850.9466666666667" y="1400.0"/>
      <point x="827.9866666666667" y="1400.0" type="curve" smooth="yes"/>
      <point x="375.47999999999996" y="1400.0" type="line" smooth="yes"/>
      <point x="349.46666666666675" y="1400.0"/>
      <point x="336.14666666666665" y="1390.4533333333334"/>
      <point x="336.14666666666665" y="1375.2799999999997" type="curve" smooth="yes"/>
      <point x="335.8666666666666" y="1362.5333333333335"/>
      <point x="344.4266666666667" y="1355.7466666666667"/>
      <point x="363.5733333333333" y="1351.3333333333335" type="curve" smooth="yes"/>
      <point x="442.4533333333333" y="1338.8266666666666" type="line" smooth="yes"/>
      <point x="479.65333333333325" y="1332.4666666666665"/>
      <point x="487.0666666666667" y="1316.8533333333332"/>
      <point x="476.13333333333327" y="1270.3333333333335" type="curve" smooth="yes"/>
      <point x="456.81470056503656" y="1186.2315887007983"/>
      <point x="194.01937015547338" y="221.09203004042578"/>
      <point x="166.46666666666664" y="119.78666666666669" type="curve" smooth="yes"/>
      <point x="135.85863503056692" y="13.449078201016025"/>
      <point x="218.44000000000003" y="-53.445645645645655"/>
      <point x="218.16000000000005" y="-112.71999999999998" type="curve" smooth="yes"/>
      <point x="216.76000000000002" y="-210.6266666666667"/>
      <point x="181.65333333333336" y="-242.56"/>
      <point x="138.05333333333337" y="-242.56" type="curve" smooth="yes"/>
      <point x="79.08434108527133" y="-242.56"/>
      <point x="19.826666666666675" y="-172.6266666666667"/>
      <point x="-51.65333333333332" y="-172.6266666666667" type="curve" smooth="yes"/>
      <point x="-106.14666666666668" y="-172.6266666666667"/>
      <point x="-139.42666666666668" y="-207.24000000000004"/>
      <point x="-139.70666666666668" y="-253.25333333333333" type="curve" smooth="yes"/>
      <point x="-139.98666666666668" y="-307.1733333333333"/>
      <point x="-94.73333333333333" y="-349.04"/>
      <point x="-4.106666666666662" y="-349.04" type="curve" smooth="yes"/>
      <point x="157.76" y="-349.04"/>
      <point x="287.7066666666666" y="-252.50666666666666"/>
      <point x="338.2000000000001" y="-30.866666666666664" type="curve" smooth="yes"/>
      <point x="375.5058189781245" y="105.87597347942491"/>
      <point x="661.1618834805711" y="1188.1252737455989"/>
    </contour>
  </outline>
</glyph>
<glyph name="K" format="2">
  <advance width="1354.5599999999997"/>
  <unicode hex="004B"/>
  <anchor x="644.8133333333333" y="1487.0" name="center"/>
  <outline>
    <contour>
      <point x="380.32000000000005" y="117.30666666666666" type="curve" smooth="yes"/>
      <point x="417.76" y="292.96000000000004"/>
      <point x="629.0533333333335" y="1064.3200000000002"/>
      <point x="690.7866666666666" y="1283.0933333333332" type="curve" smooth="yes"/>
      <point x="700.5333333333334" y="1315.92"/>
      <point x="716.4133333333333" y="1328.2933333333333"/>
      <point x="745.0000000000002" y="1333.7333333333333" type="curve" smooth="yes"/>
      <point x="832.4399999999999" y="1351.7333333333336" type="line" smooth="yes"/>
      <point x="855.9466666666667" y="1358.2133333333334"/>
      <point x="865.6266666666668" y="1364.9600000000003"/>
      <point x="865.6266666666668" y="1379.3066666666668" type="curve" smooth="yes"/>
      <point x="865.6266666666668" y="1391.9733333333334"/>
      <point x="857.3866666666667" y="1400.0"/>
      <point x="837.2800000000001" y="1400.0" type="curve" smooth="yes"/>
      <point x="385.9466666666666" y="1400.0" type="line" smooth="yes"/>
      <point x="359.89333333333326" y="1400.0"/>
      <point x="344.50666666666666" y="1391.3066666666668"/>
      <point x="344.50666666666666" y="1376.1333333333332" type="curve" smooth="yes"/>
      <point x="344.50666666666666" y="1363.0133333333333"/>
      <point x="351.4266666666666" y="1356.3466666666668"/>
      <point x="372.0133333333334" y="1351.3333333333335" type="curve" smooth="yes"/>
      <point x="450.5199999999999" y="1338.3733333333337" type="line" smooth="yes"/>
      <point x="479.29333333333335" y="1332.9066666666668"/>
      <point x="488.93333333333334" y="1317.5733333333335"/>
      <point x="481.8933333333333" y="1285.5199999999998" type="curve" smooth="yes"/>
      <point x="434.9466666666667" y="1072.1599999999999"/>
      <point x="228.32000000000002" y="328.5333333333333"/>
      <point x="170.82666666666665" y="121.92000000000006" type="curve" smooth="yes"/>
      <point x="158.64" y="85.52"/>
      <point x="141.09333333333333" y="65.46666666666667"/>
      <point x="107.46666666666667" y="60.29333333333334" type="curve" smooth="yes"/>
      <point x="28.519999999999982" y="49.01333333333334" type="line" smooth="yes"/>
      <point x="10.119999999999996" y="45.30666666666664"/>
      <point x="-1.266666666666672" y="36.106666666666655"/>
      <point x="-0.9466666666666717" y="21.973333333333336" type="curve" smooth="yes"/>
      <point x="-0.9466666666666717" y="9.06666666666667"/>
      <point x="6.57333333333333" y="0.0"/>
      <point x="30.866666666666664" y="0.0" type="curve" smooth="yes"/>
      <point x="480.92" y="0.0" type="line" smooth="yes"/>
      <point x="502.97333333333336" y="0.0"/>
      <point x="516.84" y="8.586666666666673"/>
      <point x="516.84" y="23.839999999999996" type="curve" smooth="yes"/>
      <point x="516.84" y="37.49333333333334"/>
      <point x="506.44000000000005" y="44.693333333333335"/>
      <point x="489.9066666666667" y="49.25333333333333" type="curve" smooth="yes"/>
      <point x="411.22666666666674" y="60.879999999999995" type="line" smooth="yes"/>
      <point x="382.0533333333333" y="65.91999999999999"/>
      <point x="373.23999999999995" y="86.85333333333332"/>
    </contour>
    <contour>
      <point x="687.4533333333335" y="741.0000000000001" type="line"/>
      <point x="893.6266666666667" y="134.85333333333332" type="line" smooth="yes"/>
      <point x="931.1085084903002" y="19.173597674072532"/>
      <point x="975.7480193236714" y="-23.680000000000003"/>
      <point x="1059.7466666666664" y="-23.680000000000003" type="curve" smooth="yes"/>
      <point x="1155.6453038674033" y="-23.680000000000003"/>
      <point x="1233.5299234165084" y="27.979846833016694"/>
      <point x="1272.7866666666669" y="113.94666666666667" type="curve" smooth="yes"/>
      <point x="1281.44" y="132.64000000000001"/>
      <point x="1275.5866666666668" y="145.06666666666666"/>
      <point x="1265.3200000000002" y="147.8933333333333" type="curve" smooth="yes"/>
      <point x="1256.7599999999998" y="150.39999999999998"/>
      <point x="1246.3866666666668" y="147.0"/>
      <point x="1237.8533333333335" y="137.88" type="curve" smooth="yes"/>
      <point x="1218.6933333333334" y="108.43999999999998"/>
      <point x="1199.8" y="95.01333333333329"/>
      <point x="1173.8666666666668" y="95.01333333333329" type="curve" smooth="yes"/>
      <point x="1132.5600000000002" y="95.01333333333329"/>
      <point x="1106.5866666666666" y="129.46666666666667"/>
      <point x="1078.76" y="213.62666666666667" type="curve" smooth="yes"/>
      <point x="841.84" y="888.8000000000001" type="line"/>
    </contour>
    <contour>
      <point x="415.8266666666666" y="418.24" type="line"/>
      <point x="1129.3066666666666" y="1167.5733333333335" type="line" smooth="yes"/>
      <point x="1197.8533333333335" y="1240.6000000000004"/>
      <point x="1249.64" y="1264.7466666666667"/>
      <point x="1305.1200000000003" y="1264.7466666666667" type="curve" smooth="yes"/>
      <point x="1348.6799999999998" y="1264.7466666666667"/>
      <point x="1378.6133333333332" y="1242.0400000000002"/>
      <point x="1427.2399999999998" y="1242.0400000000002" type="curve" smooth="yes"/>
      <point x="1494.8133333333333" y="1242.0400000000002"/>
      <point x="1539.6799999999998" y="1276.0533333333335"/>
      <point x="1542.7333333333331" y="1333.4266666666667" type="curve" smooth="yes"/>
      <point x="1545.5733333333335" y="1385.0800000000004"/>
      <point x="1505.7333333333333" y="1426.0800000000002"/>
      <point x="1435.9066666666663" y="1426.0800000000002" type="curve" smooth="yes"/>
      <point x="1340.173333333333" y="1426.0800000000002"/>
      <point x="1262.6666666666667" y="1380.2000000000003"/>
      <point x="1156.7599999999998" y="1268.3600000000001" type="curve" smooth="yes"/>
      <point x="399.06666666666655" y="465.80000000000007" type="line"/>
    </contour>
  </outline>
</glyph>
<glyph name="L" format="2">
  <advance width="1064.3733333333332"/>
  <unicode hex="004C"/>
  <anchor x="908.2799999999999" y="1236.0" name="right"/>
  <outline>
    <contour>
      <point x="640.3200000000002" y="0.0" type="line" smooth="yes"/>
      <point x="693.2" y="0.0"/>
      <point x="718.08" y="-22.533333333333335"/>
      <point x="758.3866666666667" y="-22.533333333333335" type="curve" smooth="yes"/>
      <point x="878.7733333333333" y="-22.533333333333335"/>
      <point x="1003.0533333333334" y="134.42666666666668"/>
      <point x="1015.0400000000001" y="360.0266666666667" type="curve" smooth="yes"/>
      <point x="1015.7200000000001" y="379.52000000000004"/>
      <point x="1009.1866666666667" y="391.1466666666667"/>
      <point x="992.6266666666666" y="391.1466666666667" type="curve" smooth="yes"/>
      <point x="978.9733333333332" y="391.1466666666667"/>
      <point x="968.4933333333333" y="381.65333333333336"/>
      <point x="956.4799999999999" y="357.33333333333337" type="curve" smooth="yes"/>
      <point x="842.3733333333334" y="130.5066666666667"/>
      <point x="756.6533333333332" y="45.67999999999999"/>
      <point x="606.08" y="45.67999999999999" type="curve" smooth="yes"/>
      <point x="463.72" y="45.67999999999999" type="line" smooth="yes"/>
      <point x="396.81333333333333" y="45.67999999999999"/>
      <point x="373.0666666666667" y="68.46666666666667"/>
      <point x="386.8933333333334" y="131.06666666666666" type="curve" smooth="yes"/>
      <point x="430.6" y="326.61333333333334"/>
      <point x="628.5333333333334" y="1051.4666666666667"/>
      <point x="693.0933333333335" y="1278.1866666666665" type="curve" smooth="yes"/>
      <point x="704.5466666666666" y="1314.8000000000002"/>
      <point x="719.4933333333333" y="1330.9066666666668"/>
      <point x="746.32" y="1335.226666666667" type="curve" smooth="yes"/>
      <point x="835.3333333333333" y="1351.2266666666667" type="line" smooth="yes"/>
      <point x="853.8266666666667" y="1355.7066666666665"/>
      <point x="865.9333333333334" y="1364.9866666666667"/>
      <point x="865.9333333333334" y="1378.5866666666666" type="curve" smooth="yes"/>
      <point x="865.9333333333334" y="1391.1733333333334"/>
      <point x="857.6933333333335" y="1400.0"/>
      <point x="835.56" y="1400.0" type="curve" smooth="yes"/>
      <point x="379.71999999999997" y="1400.0" type="line"/>
      <point x="356.8933333333333" y="1400.0"/>
      <point x="343.7200000000001" y="1390.4533333333338"/>
      <point x="343.7200000000001" y="1375.7333333333333" type="curve" smooth="yes"/>
      <point x="343.7200000000001" y="1362.8800000000003"/>
      <point x="352.64" y="1356.2400000000002"/>
      <point x="370.90666666666675" y="1351.6533333333334" type="curve" smooth="yes"/>
      <point x="454.64000000000004" y="1336.986666666667" type="line" smooth="yes"/>
      <point x="477.4133333333333" y="1332.3733333333332"/>
      <point x="488.1466666666667" y="1317.0400000000004"/>
      <point x="482.5199999999999" y="1288.7199999999998" type="curve" smooth="yes"/>
      <point x="437.06666666666666" y="1082.1333333333334"/>
      <point x="235.0" y="348.74666666666667"/>
      <point x="173.34666666666666" y="128.31999999999996" type="curve" smooth="yes"/>
      <point x="160.2" y="87.12"/>
      <point x="144.14666666666665" y="67.17333333333332"/>
      <point x="109.45333333333332" y="61.253333333333345" type="curve" smooth="yes"/>
      <point x="32.10666666666667" y="49.65333333333335" type="line" smooth="yes"/>
      <point x="13.38666666666667" y="45.519999999999996"/>
      <point x="0.7199999999999971" y="36.85333333333333"/>
      <point x="0.3999999999999968" y="22.613333333333344" type="curve" smooth="yes"/>
      <point x="-1.2000000000000046" y="9.146666666666672"/>
      <point x="8.239999999999998" y="0.0"/>
      <point x="32.21333333333334" y="0.0" type="curve"/>
    </contour>
  </outline>
</glyph>
<glyph name="M" format="2">
  <advance width="1626.946666666667"/>
  <unicode hex="004D"/>
  <anchor x="681.8533333333332" y="1444.4666666666667" name="center"/>
  <outline>
    <contour>
      <point x="836.9733333333334" y="373.3333333333333" type="line"/>
      <point x="785.3733333333333" y="701.04"/>
      <point x="742.5333333333333" y="1058.0"/>
      <point x="704.0533333333334" y="1333.5733333333333" type="curve" smooth="yes"/>
      <point x="695.7733333333333" y="1383.5999999999997"/>
      <point x="670.6533333333332" y="1400.0"/>
      <point x="630.3866666666667" y="1400.0" type="curve" smooth="yes"/>
      <point x="388.9733333333333" y="1400.0" type="line" smooth="yes"/>
      <point x="368.25333333333333" y="1400.0"/>
      <point x="354.8933333333334" y="1391.4133333333334"/>
      <point x="353.9333333333333" y="1376.1333333333332" type="curve" smooth="yes"/>
      <point x="352.6533333333333" y="1363.4133333333332"/>
      <point x="359.4933333333333" y="1356.3466666666666"/>
      <point x="376.96000000000004" y="1351.3333333333333" type="curve" smooth="yes"/>
      <point x="462.08" y="1336.0266666666664" type="line" smooth="yes"/>
      <point x="492.15999999999997" y="1329.9199999999998"/>
      <point x="501.56" y="1308.0266666666666"/>
      <point x="489.3066666666666" y="1268.5866666666666" type="curve" smooth="yes"/>
      <point x="176.41333333333336" y="239.48000000000002" type="line" smooth="yes"/>
      <point x="139.51999999999995" y="112.21333333333331"/>
      <point x="92.25333333333333" y="73.24000000000001"/>
      <point x="32.03999999999998" y="60.30666666666665" type="curve" smooth="yes"/>
      <point x="-11.41333333333333" y="51.89333333333332" type="line" smooth="yes"/>
      <point x="-30.960000000000004" y="47.27999999999999"/>
      <point x="-42.29333333333333" y="39.22666666666665"/>
      <point x="-43.25333333333333" y="23.893333333333324" type="curve" smooth="yes"/>
      <point x="-44.21333333333334" y="9.786666666666665"/>
      <point x="-34.87999999999998" y="0.0"/>
      <point x="-10.800000000000033" y="0.0" type="curve" smooth="yes"/>
      <point x="320.29333333333324" y="0.0" type="line" smooth="yes"/>
      <point x="344.0" y="0.0"/>
      <point x="357.65333333333336" y="9.653333333333336"/>
      <point x="359.25333333333333" y="25.68000000000001" type="curve" smooth="yes"/>
      <point x="360.2133333333333" y="36.879999999999995"/>
      <point x="352.37333333333333" y="43.67999999999999"/>
      <point x="337.62666666666667" y="48.74666666666666" type="curve" smooth="yes"/>
      <point x="285.1733333333333" y="59.43999999999999" type="line" smooth="yes"/>
      <point x="221.83999999999997" y="73.4"/>
      <point x="199.7066666666666" y="116.78666666666669"/>
      <point x="227.14666666666665" y="213.37333333333333" type="curve" smooth="yes"/>
      <point x="546.0400000000001" y="1256.5066666666667" type="line"/>
      <point x="517.0" y="1248.7199999999998" type="line"/>
      <point x="566.88" y="917.2266666666666"/>
      <point x="617.5733333333333" y="492.7733333333333"/>
      <point x="657.6666666666666" y="192.98666666666668" type="curve" smooth="yes"/>
      <point x="663.1333333333333" y="164.58666666666667"/>
      <point x="675.3733333333334" y="144.18666666666664"/>
      <point x="695.0" y="144.18666666666664" type="curve" smooth="yes"/>
      <point x="718.5466666666666" y="144.18666666666664"/>
      <point x="732.44" y="157.52"/>
      <point x="755.4266666666666" y="190.95999999999998" type="curve" smooth="yes"/>
      <point x="1407.9733333333334" y="1255.8400000000001" type="line"/>
      <point x="1378.4533333333331" y="1238.0533333333335" type="line"/>
      <point x="1311.0933333333335" y="863.7866666666667"/>
      <point x="1212.026666666667" y="428.32"/>
      <point x="1150.013333333333" y="126.0" type="curve" smooth="yes"/>
      <point x="1141.64" y="86.58666666666662"/>
      <point x="1121.986666666667" y="68.13333333333337"/>
      <point x="1090.9199999999998" y="62.213333333333345" type="curve" smooth="yes"/>
      <point x="1009.4133333333333" y="49.333333333333336" type="line" smooth="yes"/>
      <point x="994.6400000000002" y="45.73333333333332"/>
      <point x="982.1866666666666" y="38.639999999999986"/>
      <point x="980.9066666666666" y="23.65333333333333" type="curve" smooth="yes"/>
      <point x="980.5866666666666" y="9.333333333333329"/>
      <point x="988.7466666666666" y="0.0"/>
      <point x="1011.76" y="0.0" type="curve" smooth="yes"/>
      <point x="1463.4666666666667" y="0.0" type="line" smooth="yes"/>
      <point x="1485.8399999999997" y="0.0"/>
      <point x="1497.5733333333333" y="8.693333333333339"/>
      <point x="1498.5333333333333" y="24.906666666666677" type="curve" smooth="yes"/>
      <point x="1499.8133333333335" y="37.306666666666665"/>
      <point x="1490.8266666666668" y="43.65333333333334"/>
      <point x="1475.4399999999998" y="47.97333333333334" type="curve" smooth="yes"/>
      <point x="1388.9200000000005" y="61.51999999999999" type="line" smooth="yes"/>
      <point x="1360.8133333333335" y="67.54666666666665"/>
      <point x="1352.6666666666667" y="90.37333333333336"/>
      <point x="1358.7600000000002" y="123.06666666666669" type="curve" smooth="yes"/>
      <point x="1392.9199999999998" y="328.6933333333334"/>
      <point x="1545.8266666666668" y="1042.9066666666668"/>
      <point x="1592.8799999999999" y="1278.8266666666666" type="curve" smooth="yes"/>
      <point x="1599.7466666666667" y="1312.9066666666668"/>
      <point x="1617.36" y="1330.3200000000002"/>
      <point x="1642.8800000000003" y="1335.5466666666666" type="curve" smooth="yes"/>
      <point x="1726.8266666666668" y="1350.5866666666668" type="line" smooth="yes"/>
      <point x="1744.8933333333332" y="1354.8533333333335"/>
      <point x="1756.5733333333335" y="1362.853333333333"/>
      <point x="1757.5333333333333" y="1378.5866666666666" type="curve" smooth="yes"/>
      <point x="1758.1733333333334" y="1391.7333333333331"/>
      <point x="1750.9733333333331" y="1400.0"/>
      <point x="1728.7600000000002" y="1400.0" type="curve" smooth="yes"/>
      <point x="1501.4800000000002" y="1400.0" type="line" smooth="yes"/>
      <point x="1460.8133333333335" y="1400.0"/>
      <point x="1430.3066666666664" y="1387.9733333333334"/>
      <point x="1398.6399999999999" y="1337.3599999999997" type="curve" smooth="yes"/>
      <point x="773.2666666666667" y="323.78666666666675" type="line"/>
    </contour>
  </outline>
</glyph>
<glyph name="N" format="2">
  <advance width="1316.9200000000003"/>
  <unicode hex="004E"/>
  <anchor x="980.1733333333334" y="1497.0" name="center"/>
  <outline>
    <contour>
      <point x="244.7866666666667" y="222.95999999999998" type="line" smooth="yes"/>
      <point x="220.69333333333336" y="126.97333333333336"/>
      <point x="244.37333333333325" y="73.10666666666668"/>
      <point x="316.65333333333336" y="55.55999999999998" type="curve" smooth="yes"/>
      <point x="360.9866666666667" y="47.8933333333333" type="line" smooth="yes"/>
      <point x="375.2" y="43.78666666666665"/>
      <point x="384.2133333333333" y="35.27999999999999"/>
      <point x="384.2133333333333" y="23.12000000000001" type="curve" smooth="yes"/>
      <point x="384.2133333333333" y="7.520000000000005"/>
      <point x="372.0533333333333" y="0.0"/>
      <point x="353.8933333333333" y="0.0" type="curve" smooth="yes"/>
      <point x="3.626666666666651" y="0.0" type="line" smooth="yes"/>
      <point x="-20.56" y="0.0"/>
      <point x="-31.306666666666672" y="8.26666666666667"/>
      <point x="-31.306666666666665" y="22.933333333333337" type="curve" smooth="yes"/>
      <point x="-31.306666666666665" y="34.29333333333333"/>
      <point x="-21.91999999999999" y="45.14666666666665"/>
      <point x="-2.8800000000000097" y="49.97333333333336" type="curve" smooth="yes"/>
      <point x="38.57333333333333" y="57.96000000000001" type="line" smooth="yes"/>
      <point x="102.86666666666665" y="71.98666666666666"/>
      <point x="160.7733333333333" y="125.87999999999998"/>
      <point x="186.9066666666667" y="227.95999999999998" type="curve" smooth="yes"/>
      <point x="421.09333333333336" y="1093.813333333333" type="line" smooth="yes"/>
      <point x="432.3333333333333" y="1132.88"/>
      <point x="426.9866666666667" y="1168.5333333333333"/>
      <point x="409.5066666666667" y="1197.0400000000002" type="curve" smooth="yes"/>
      <point x="342.90666666666664" y="1349.1200000000001" type="line" smooth="yes"/>
      <point x="324.94666666666666" y="1372.506666666667"/>
      <point x="333.21333333333337" y="1400.0"/>
      <point x="365.8000000000001" y="1400.0" type="curve" smooth="yes"/>
      <point x="513.5066666666668" y="1400.0" type="line" smooth="yes"/>
      <point x="550.6533333333333" y="1400.0"/>
      <point x="567.1066666666666" y="1383.2533333333333"/>
      <point x="585.92" y="1342.0533333333333" type="curve" smooth="yes"/>
      <point x="735.76" y="922.8399999999999"/>
      <point x="911.0933333333332" y="545.9466666666666"/>
      <point x="1031.1866666666665" y="232.47999999999996" type="curve"/>
      <point x="979.3466666666668" y="211.14666666666668" type="line"/>
      <point x="1227.92" y="1207.6266666666666" type="line" smooth="yes"/>
      <point x="1268.68" y="1361.5733333333333"/>
      <point x="1341.12" y="1431.3333333333333"/>
      <point x="1423.1466666666665" y="1431.3333333333333" type="curve" smooth="yes"/>
      <point x="1473.2266666666667" y="1431.3333333333333"/>
      <point x="1506.1733333333336" y="1401.36"/>
      <point x="1505.68" y="1356.32" type="curve" smooth="yes"/>
      <point x="1504.9733333333334" y="1305.0133333333335"/>
      <point x="1472.6" y="1267.1733333333332"/>
      <point x="1396.9199999999998" y="1225.1200000000001" type="curve" smooth="yes"/>
      <point x="1313.24" y="1180.5866666666666"/>
      <point x="1266.8" y="1125.4133333333334"/>
      <point x="1241.2" y="1026.2666666666664" type="curve" smooth="yes"/>
      <point x="1054.3066666666666" y="269.91999999999996" type="line" smooth="yes"/>
      <point x="1046.5866666666666" y="240.87999999999997"/>
      <point x="1044.9199999999998" y="223.38666666666663"/>
      <point x="1058.7733333333335" y="186.90666666666664" type="curve" smooth="yes"/>
      <point x="1106.28" y="50.746666666666655" type="line" smooth="yes"/>
      <point x="1118.5333333333335" y="20.906666666666673"/>
      <point x="1106.613333333333" y="0.0"/>
      <point x="1076.9866666666667" y="0.0" type="curve" smooth="yes"/>
      <point x="898.1066666666667" y="0.0" type="line" smooth="yes"/>
      <point x="869.3866666666665" y="0.0"/>
      <point x="855.5466666666667" y="17.599999999999998"/>
      <point x="856.4133333333334" y="50.106666666666655" type="curve" smooth="yes"/>
      <point x="856.9333333333334" y="84.13333333333331"/>
      <point x="852.6266666666666" y="105.25333333333333"/>
      <point x="836.2933333333335" y="141.7333333333333" type="curve" smooth="yes"/>
      <point x="753.4" y="372.9066666666667"/>
      <point x="585.8533333333334" y="779.0133333333333"/>
      <point x="448.59999999999997" y="1134.7733333333333" type="curve"/>
      <point x="494.98666666666674" y="1144.9333333333334" type="line"/>
    </contour>
  </outline>
</glyph>
<glyph name="O" format="2">
  <advance width="1459.7066666666667"/>
  <unicode hex="004F"/>
  <anchor x="1025.7466666666664" y="1546.0" name="center"/>
  <outline>
    <contour>
      <point x="989.08" y="1423.7333333333333" type="curve" smooth="yes"/>
      <point x="616.4933333333333" y="1430.0266666666666"/>
      <point x="281.59999999999997" y="1142.1866666666665"/>
      <point x="172.39999999999998" y="740.9466666666667" type="curve" smooth="yes"/>
      <point x="47.000000000000014" y="277.36000000000007"/>
      <point x="254.46666666666667" y="-16.159999999999997"/>
      <point x="593.4933333333333" y="-22.879999999999995" type="curve" smooth="yes"/>
      <point x="964.2666666666665" y="-30.773333333333337"/>
      <point x="1309.9866666666667" y="227.48000000000002"/>
      <point x="1420.0133333333333" y="681.6266666666666" type="curve" smooth="yes"/>
      <point x="1525.4666666666667" y="1118.6533333333332"/>
      <point x="1322.5733333333335" y="1417.44"/>
    </contour>
    <contour>
      <point x="614.28" y="26.506666666666675" type="curve" smooth="yes"/>
      <point x="455.29333333333324" y="30.453333333333326"/>
      <point x="349.6933333333333" y="142.70666666666668"/>
      <point x="351.5466666666667" y="375.9599999999999" type="curve" smooth="yes"/>
      <point x="352.0533333333334" y="465.22666666666663"/>
      <point x="368.53333333333325" y="579.6266666666668"/>
      <point x="405.36" y="727.8133333333333" type="curve" smooth="yes"/>
      <point x="512.0266666666666" y="1159.3600000000001"/>
      <point x="747.8533333333332" y="1382.3466666666668"/>
      <point x="973.2000000000002" y="1374.773333333333" type="curve" smooth="yes"/>
      <point x="1120.5466666666666" y="1369.8666666666668"/>
      <point x="1235.72" y="1252.8933333333332"/>
      <point x="1236.2933333333335" y="1023.7866666666667" type="curve" smooth="yes"/>
      <point x="1236.9333333333332" y="936.24"/>
      <point x="1221.0133333333333" y="826.5733333333334"/>
      <point x="1185.7733333333335" y="690.1466666666668" type="curve" smooth="yes"/>
      <point x="1054.9200000000003" y="199.0933333333333"/>
      <point x="829.7466666666667" y="20.85333333333332"/>
    </contour>
  </outline>
</glyph>
<glyph name="P" format="2">
  <advance width="1253.6"/>
  <unicode hex="0050"/>
  <outline>
    <contour>
      <point x="1311.7066666666667" y="935.0933333333334" type="curve" smooth="yes"/>
      <point x="1356.1333333333332" y="1212.8533333333337"/>
      <point x="1168.28" y="1400.0"/>
      <point x="860.6666666666667" y="1400.0" type="curve" smooth="yes"/>
      <point x="384.09333333333336" y="1400.0" type="line" smooth="yes"/>
      <point x="358.5333333333333" y="1400.0"/>
      <point x="344.8933333333334" y="1391.5466666666669"/>
      <point x="344.8933333333334" y="1374.9599999999996" type="curve" smooth="yes"/>
      <point x="344.8933333333334" y="1363.1600000000003"/>
      <point x="351.94666666666666" y="1356.0266666666666"/>
      <point x="371.70666666666665" y="1351.333333333333" type="curve" smooth="yes"/>
      <point x="448.91999999999996" y="1338.1866666666667" type="line" smooth="yes"/>
      <point x="477.47999999999996" y="1333.0133333333333"/>
      <point x="487.11999999999995" y="1314.8666666666666"/>
      <point x="481.12" y="1282.64" type="curve" smooth="yes"/>
      <point x="460.44" y="1184.9733333333336"/>
      <point x="200.54666666666662" y="209.67999999999995"/>
      <point x="169.29333333333338" y="120.10666666666671" type="curve" smooth="yes"/>
      <point x="155.73333333333335" y="81.0933333333333"/>
      <point x="140.23999999999998" y="65.31999999999998"/>
      <point x="101.14666666666668" y="59.693333333333335" type="curve" smooth="yes"/>
      <point x="29.879999999999995" y="49.333333333333336" type="line" smooth="yes"/>
      <point x="9.959999999999997" y="45.66666666666666"/>
      <point x="-1.58666666666667" y="36.29333333333334"/>
      <point x="-1.5866666666666687" y="22.186666666666675" type="curve" smooth="yes"/>
      <point x="-1.58666666666667" y="8.186666666666667"/>
      <point x="6.786666666666663" y="0.0"/>
      <point x="28.94666666666667" y="0.0" type="curve" smooth="yes"/>
      <point x="504.09333333333336" y="0.0" type="line" smooth="yes"/>
      <point x="527.8666666666667" y="0.0"/>
      <point x="540.5200000000001" y="10.013333333333337"/>
      <point x="540.5200000000001" y="25.73333333333334" type="curve" smooth="yes"/>
      <point x="540.5200000000001" y="37.066666666666656"/>
      <point x="532.2666666666665" y="45.24000000000001"/>
      <point x="513.9466666666667" y="48.373333333333335" type="curve" smooth="yes"/>
      <point x="412.81333333333333" y="60.599999999999994" type="line" smooth="yes"/>
      <point x="386.37333333333333" y="64.09333333333335"/>
      <point x="375.6933333333333" y="84.3733333333333"/>
      <point x="385.76000000000005" y="123.46666666666664" type="curve" smooth="yes"/>
      <point x="408.26666666666665" y="214.3466666666666"/>
      <point x="666.9066666666666" y="1194.2266666666665"/>
      <point x="687.1333333333332" y="1264.36" type="curve" smooth="yes"/>
      <point x="706.3866666666667" y="1325.8"/>
      <point x="748.0666666666667" y="1352.8133333333333"/>
      <point x="824.2399999999999" y="1352.8133333333333" type="curve" smooth="yes"/>
      <point x="1026.7866666666669" y="1352.8133333333333"/>
      <point x="1151.1066666666666" y="1226.1600000000003"/>
      <point x="1107.3066666666666" y="948.4266666666666" type="curve" smooth="yes"/>
      <point x="1063.1866666666667" y="666.6799999999998"/>
      <point x="911.2533333333336" y="533.5066666666665"/>
      <point x="688.8266666666666" y="533.5066666666665" type="curve" smooth="yes"/>
      <point x="604.9333333333334" y="533.5066666666665"/>
      <point x="532.96" y="551.4133333333333"/>
      <point x="456.93333333333334" y="594.5466666666666" type="curve"/>
      <point x="435.64" y="552.1333333333333" type="line"/>
      <point x="519.4" y="507.6533333333334"/>
      <point x="592.6666666666666" y="485.1066666666666"/>
      <point x="719.8133333333333" y="485.1066666666666" type="curve" smooth="yes"/>
      <point x="1033.6133333333332" y="485.1066666666666"/>
      <point x="1268.24" y="656.7066666666668"/>
    </contour>
  </outline>
</glyph>
<glyph name="Q" format="2">
  <advance width="1461.1066666666666"/>
  <unicode hex="0051"/>
  <outline>
    <contour>
      <point x="672.5066666666667" y="358.40000000000003" type="curve" smooth="yes"/>
      <point x="553.5733333333333" y="-91.13333333333333"/>
      <point x="676.32" y="-318.45333333333326"/>
      <point x="923.76" y="-334.77333333333337" type="curve" smooth="yes"/>
      <point x="1002.4133333333334" y="-341.67999999999995"/>
      <point x="1037.6533333333332" y="-326.8266666666666"/>
      <point x="1056.7866666666669" y="-300.2533333333333" type="curve" smooth="yes"/>
      <point x="1129.56" y="-197.2" type="line" smooth="yes"/>
      <point x="1137.9066666666665" y="-185.4"/>
      <point x="1134.6266666666666" y="-172.72"/>
      <point x="1126.6799999999998" y="-169.62666666666667" type="curve" smooth="yes"/>
      <point x="1110.3866666666668" y="-161.51999999999998"/>
      <point x="1058.573333333333" y="-213.24"/>
      <point x="911.68" y="-194.44" type="curve" smooth="yes"/>
      <point x="717.2933333333334" y="-170.14666666666668"/>
      <point x="610.4666666666666" y="-41.12"/>
      <point x="709.2933333333335" y="351.36" type="curve" smooth="yes"/>
      <point x="713.8533333333335" y="368.84000000000003"/>
      <point x="711.6533333333332" y="378.8533333333333"/>
      <point x="698.0933333333332" y="381.4266666666667" type="curve" smooth="yes"/>
      <point x="683.7199999999999" y="384.1066666666667"/>
      <point x="676.4666666666668" y="372.5466666666667"/>
    </contour>
    <contour>
      <point x="989.08" y="1423.7333333333333" type="curve" smooth="yes"/>
      <point x="616.4933333333333" y="1430.0266666666666"/>
      <point x="281.59999999999997" y="1142.1866666666667"/>
      <point x="172.4" y="740.9466666666668" type="curve" smooth="yes"/>
      <point x="47.0" y="277.36"/>
      <point x="254.46666666666667" y="-16.16"/>
      <point x="593.4933333333335" y="-22.88" type="curve" smooth="yes"/>
      <point x="964.2666666666667" y="-30.773333333333333"/>
      <point x="1309.9866666666665" y="227.48000000000002"/>
      <point x="1420.0133333333333" y="681.6266666666667" type="curve" smooth="yes"/>
      <point x="1525.4666666666665" y="1118.6533333333334"/>
      <point x="1322.5733333333333" y="1417.44"/>
    </contour>
    <contour>
      <point x="614.2799999999999" y="26.506666666666664" type="curve" smooth="yes"/>
      <point x="455.29333333333335" y="30.453333333333326"/>
      <point x="349.6933333333333" y="142.70666666666665"/>
      <point x="351.5466666666667" y="375.96" type="curve" smooth="yes"/>
      <point x="352.05333333333334" y="465.22666666666663"/>
      <point x="368.5333333333333" y="579.6266666666667"/>
      <point x="405.35999999999996" y="727.8133333333333" type="curve" smooth="yes"/>
      <point x="512.0266666666666" y="1159.3600000000001"/>
      <point x="747.8533333333334" y="1382.3466666666666"/>
      <point x="973.2000000000002" y="1374.7733333333333" type="curve" smooth="yes"/>
      <point x="1120.5466666666666" y="1369.8666666666666"/>
      <point x="1235.72" y="1252.8933333333334"/>
      <point x="1236.293333333333" y="1023.7866666666666" type="curve" smooth="yes"/>
      <point x="1236.9333333333332" y="936.2399999999999"/>
      <point x="1221.0133333333333" y="826.5733333333334"/>
      <point x="1185.7733333333333" y="690.1466666666666" type="curve" smooth="yes"/>
      <point x="1054.9199999999998" y="199.09333333333333"/>
      <point x="829.7466666666667" y="20.85333333333334"/>
    </contour>
  </outline>
</glyph>
<glyph name="R" format="2">
  <advance width="1304.9466666666667"/>
  <unicode hex="0052"/>
  <anchor x="911.2399999999999" y="1485.0" name="center"/>
  <outline>
    <contour>
      <point x="429.5333333333335" y="612.5333333333333" type="line"/>
      <point x="494.5199999999999" y="574.72"/>
      <point x="579.0" y="546.4"/>
      <point x="699.7733333333333" y="547.6800000000001" type="curve" smooth="yes"/>
      <point x="1031.8533333333332" y="550.0266666666666"/>
      <point x="1257.2533333333333" y="717.0400000000001"/>
      <point x="1300.626666666667" y="953.0533333333333" type="curve" smooth="yes"/>
      <point x="1353.4" y="1230.0933333333335"/>
      <point x="1169.1466666666668" y="1400.0"/>
      <point x="864.7200000000001" y="1400.0" type="curve" smooth="yes"/>
      <point x="380.1866666666666" y="1400.0" type="line" smooth="yes"/>
      <point x="358.29333333333346" y="1400.0"/>
      <point x="345.14666666666665" y="1390.3466666666668"/>
      <point x="345.1466666666667" y="1375.1733333333332" type="curve" smooth="yes"/>
      <point x="345.1466666666666" y="1363.52"/>
      <point x="351.0266666666667" y="1356.1333333333334"/>
      <point x="370.73333333333335" y="1351.333333333333" type="curve" smooth="yes"/>
      <point x="450.52" y="1338.3733333333334" type="line" smooth="yes"/>
      <point x="480.70666666666665" y="1331.3066666666668"/>
      <point x="487.65333333333336" y="1316.2933333333335"/>
      <point x="480.1866666666666" y="1279.9733333333336" type="curve" smooth="yes"/>
      <point x="436.3066666666667" y="1077.1466666666668"/>
      <point x="225.33333333333334" y="319.14666666666665"/>
      <point x="170.18666666666667" y="120.53333333333332" type="curve" smooth="yes"/>
      <point x="157.2533333333333" y="83.06666666666668"/>
      <point x="138.95999999999998" y="64.82666666666665"/>
      <point x="104.90666666666667" y="59.97333333333334" type="curve" smooth="yes"/>
      <point x="30.43999999999999" y="49.333333333333336" type="line" smooth="yes"/>
      <point x="10.759999999999993" y="45.946666666666644"/>
      <point x="-0.9466666666666681" y="37.066666666666656"/>
      <point x="-0.9466666666666637" y="21.973333333333336" type="curve" smooth="yes"/>
      <point x="-0.9466666666666672" y="8.613333333333332"/>
      <point x="6.786666666666665" y="0.0"/>
      <point x="28.626666666666672" y="0.0" type="curve" smooth="yes"/>
      <point x="482.41333333333336" y="0.0" type="line" smooth="yes"/>
      <point x="505.0" y="0.0"/>
      <point x="517.3733333333333" y="9.440000000000005"/>
      <point x="517.3733333333333" y="24.799999999999997" type="curve" smooth="yes"/>
      <point x="517.3733333333333" y="37.199999999999996"/>
      <point x="508.0666666666667" y="44.08"/>
      <point x="490.97333333333336" y="49.25333333333334" type="curve" smooth="yes"/>
      <point x="409.73333333333335" y="61.20000000000002" type="line" smooth="yes"/>
      <point x="385.04" y="66.34666666666666"/>
      <point x="373.02666666666664" y="85.89333333333336"/>
      <point x="381.8133333333333" y="120.82666666666663" type="curve" smooth="yes"/>
      <point x="426.8533333333333" y="326.15999999999997"/>
      <point x="631.9066666666666" y="1062.7466666666671"/>
      <point x="686.6533333333333" y="1269.1200000000001" type="curve" smooth="yes"/>
      <point x="704.7600000000001" y="1328.9866666666667"/>
      <point x="744.0" y="1354.9866666666665"/>
      <point x="833.7866666666667" y="1354.9866666666665" type="curve" smooth="yes"/>
      <point x="1032.7466666666667" y="1354.9866666666665"/>
      <point x="1151.3466666666666" y="1229.56"/>
      <point x="1102.226666666667" y="973.6133333333333" type="curve" smooth="yes"/>
      <point x="1058.4400000000003" y="740.2533333333333"/>
      <point x="913.3466666666666" y="594.16"/>
      <point x="678.5999999999999" y="594.16" type="curve" smooth="yes"/>
      <point x="595.2133333333333" y="594.16"/>
      <point x="522.9066666666666" y="615.3999999999999"/>
      <point x="464.2266666666666" y="648.8266666666666" type="curve"/>
    </contour>
    <contour>
      <point x="703.5866666666668" y="559.3066666666666" type="line"/>
      <point x="810.8399999999999" y="175.62666666666664" type="line" smooth="yes"/>
      <point x="853.1999999999999" y="23.573333333333334"/>
      <point x="905.9200000000001" y="-23.680000000000003"/>
      <point x="989.44" y="-23.680000000000003" type="curve" smooth="yes"/>
      <point x="1091.04" y="-23.680000000000003"/>
      <point x="1178.6133333333332" y="34.53333333333333"/>
      <point x="1213.3999999999999" y="116.69333333333334" type="curve" smooth="yes"/>
      <point x="1220.5733333333333" y="131.4933333333333"/>
      <point x="1217.3466666666668" y="144.32000000000002"/>
      <point x="1206.0133333333333" y="148.31999999999996" type="curve" smooth="yes"/>
      <point x="1197.6666666666667" y="151.46666666666667"/>
      <point x="1186.9733333333331" y="147.35999999999999"/>
      <point x="1180.1866666666665" y="139.09333333333336" type="curve" smooth="yes"/>
      <point x="1159.3066666666668" y="108.80000000000001"/>
      <point x="1138.253333333333" y="95.0133333333333"/>
      <point x="1111.24" y="95.0133333333333" type="curve" smooth="yes"/>
      <point x="1071.5866666666666" y="95.0133333333333"/>
      <point x="1041.9199999999998" y="122.88"/>
      <point x="1007.5066666666667" y="236.53333333333336" type="curve" smooth="yes"/>
      <point x="894.3866666666668" y="589.4933333333333" type="line"/>
    </contour>
  </outline>
</glyph>
<glyph name="S" format="2">
  <advance width="1098.5066666666667"/>
  <unicode hex="0053"/>
  <anchor x="842.2533333333333" y="1528.0" name="center"/>
  <outline>
    <contour>
      <point x="507.34666666666664" y="-21.28" type="curve" smooth="yes"/>
      <point x="742.5733333333334" y="-21.28"/>
      <point x="926.9866666666667" y="116.10666666666665"/>
      <point x="948.0933333333334" y="332.4266666666666" type="curve" smooth="yes"/>
      <point x="965.1466666666668" y="479.19999999999993"/>
      <point x="910.5066666666667" y="597.0133333333333"/>
      <point x="699.9466666666667" y="752.5066666666667" type="curve" smooth="yes"/>
      <point x="533.7199999999999" y="879.0933333333334"/>
      <point x="474.70666666666676" y="975.7066666666667"/>
      <point x="489.4799999999999" y="1108.0533333333335" type="curve" smooth="yes"/>
      <point x="502.98666666666674" y="1254.0800000000002"/>
      <point x="620.52" y="1375.946666666667"/>
      <point x="799.0533333333333" y="1375.946666666667" type="curve" smooth="yes"/>
      <point x="913.6933333333333" y="1375.946666666667"/>
      <point x="990.44" y="1315.1466666666668"/>
      <point x="1020.8000000000001" y="1177.9733333333334" type="curve" smooth="yes"/>
      <point x="1037.72" y="1098.8266666666666" type="line" smooth="yes"/>
      <point x="1051.7066666666667" y="1045.0933333333337"/>
      <point x="1074.6933333333332" y="1020.64"/>
      <point x="1114.4266666666667" y="1020.64" type="curve" smooth="yes"/>
      <point x="1164.1866666666667" y="1020.64"/>
      <point x="1195.9066666666665" y="1062.6666666666665"/>
      <point x="1198.56" y="1127.1466666666665" type="curve" smooth="yes"/>
      <point x="1204.1200000000001" y="1278.7466666666667"/>
      <point x="1072.48" y="1423.0933333333335"/>
      <point x="812.6666666666667" y="1423.0933333333335" type="curve" smooth="yes"/>
      <point x="503.0133333333334" y="1423.0933333333335"/>
      <point x="314.96" y="1224.32"/>
      <point x="296.31999999999994" y="1013.066666666667" type="curve" smooth="yes"/>
      <point x="280.5466666666667" y="850.48"/>
      <point x="353.73333333333335" y="736.7466666666667"/>
      <point x="544.7599999999999" y="601.84" type="curve" smooth="yes"/>
      <point x="711.7866666666666" y="484.50666666666666"/>
      <point x="760.4133333333333" y="387.2"/>
      <point x="742.2533333333334" y="266.66666666666663" type="curve" smooth="yes"/>
      <point x="725.5988828065211" y="130.36561465697545"/>
      <point x="619.9199999999998" y="33.01333333333332"/>
      <point x="466.79999999999995" y="33.01333333333332" type="curve" smooth="yes"/>
      <point x="318.6400000000001" y="33.01333333333332"/>
      <point x="207.92497989658077" y="119.11928542138712"/>
      <point x="186.3733333333333" y="290.58666666666664" type="curve" smooth="yes"/>
      <point x="167.51999999999995" y="400.5866666666667" type="line" smooth="yes"/>
      <point x="160.84" y="422.9866666666667"/>
      <point x="151.2666666666667" y="434.9333333333333"/>
      <point x="135.50666666666666" y="434.9333333333333" type="curve" smooth="yes"/>
      <point x="119.24000000000001" y="434.9333333333333"/>
      <point x="108.52000000000001" y="422.3733333333334"/>
      <point x="105.67999999999999" y="398.0" type="curve" smooth="yes"/>
      <point x="49.25333333333333" y="27.65333333333333" type="line" smooth="yes"/>
      <point x="46.55999999999999" y="4.0"/>
      <point x="56.64" y="-7.2"/>
      <point x="76.64" y="-7.2" type="curve" smooth="yes"/>
      <point x="105.3027642276423" y="-7.2"/>
      <point x="172.30666666666664" y="98.66666666666669"/>
      <point x="198.01333333333332" y="98.66666666666669" type="curve" smooth="yes"/>
      <point x="224.76000000000002" y="98.66666666666669"/>
      <point x="280.4233545647558" y="-21.28"/>
    </contour>
  </outline>
</glyph>
<glyph name="T" format="2">
  <advance width="1106.6533333333332"/>
  <unicode hex="0054"/>
  <anchor x="427.18666666666667" y="1516.0" name="center"/>
  <outline>
    <contour>
      <point x="515.9066666666666" y="1424.2933333333333" type="curve" smooth="yes"/>
      <point x="329.13333333333327" y="1424.2933333333333"/>
      <point x="226.8933333333333" y="1329.8533333333335"/>
      <point x="217.20000000000002" y="1202.7733333333333" type="curve" smooth="yes"/>
      <point x="207.58666666666667" y="1115.106666666667"/>
      <point x="247.62666666666664" y="1058.3600000000001"/>
      <point x="308.28" y="1056.9200000000003" type="curve" smooth="yes"/>
      <point x="360.6133333333333" y="1056.0400000000002"/>
      <point x="394.6" y="1091.1466666666665"/>
      <point x="395.84000000000003" y="1136.1066666666668" type="curve" smooth="yes"/>
      <point x="397.65333333333336" y="1187.4133333333332"/>
      <point x="357.21333333333337" y="1217.7066666666667"/>
      <point x="365.05333333333334" y="1280.3466666666666" type="curve" smooth="yes"/>
      <point x="369.73333333333335" y="1341.0399999999997"/>
      <point x="415.9333333333334" y="1378.56"/>
      <point x="522.4133333333334" y="1378.56" type="curve" smooth="yes"/>
      <point x="669.227901907357" y="1378.56"/>
      <point x="1033.8995932802832" y="1260.6133333333335"/>
      <point x="1176.2533333333333" y="1260.6133333333335" type="curve" smooth="yes"/>
      <point x="1293.7333333333331" y="1260.6133333333335"/>
      <point x="1377.8" y="1332.32"/>
      <point x="1379.5599999999997" y="1440.4800000000002" type="curve" smooth="yes"/>
      <point x="1380.24" y="1503.6399999999999"/>
      <point x="1347.2533333333336" y="1538.1066666666666"/>
      <point x="1302.52" y="1538.1066666666666" type="curve" smooth="yes"/>
      <point x="1252.1333333333332" y="1538.1066666666666"/>
      <point x="1222.4933333333336" y="1505.8133333333335"/>
      <point x="1216.2533333333336" y="1458.16" type="curve" smooth="yes"/>
      <point x="1212.5066666666667" y="1424.1466666666668"/>
      <point x="1218.2133333333334" y="1391.9866666666667"/>
      <point x="1212.0133333333333" y="1366.3333333333333" type="curve" smooth="yes"/>
      <point x="1203.3866666666665" y="1333.9866666666667"/>
      <point x="1177.0133333333335" y="1318.1733333333332"/>
      <point x="1127.6133333333332" y="1318.1733333333332" type="curve" smooth="yes"/>
      <point x="1034.3505973025046" y="1318.1733333333332"/>
      <point x="679.1533333333334" y="1424.2933333333333"/>
    </contour>
    <contour>
      <point x="592.1200000000001" y="115.22666666666666" type="curve" smooth="yes"/>
      <point x="647.1333333333334" y="311.34666666666664"/>
      <point x="859.8533333333334" y="1092.5600000000002"/>
      <point x="932.9333333333333" y="1334.3466666666666" type="curve"/>
      <point x="734.24" y="1374.2133333333334" type="line"/>
      <point x="668.0" y="1136.0"/>
      <point x="448.12339746959304" y="340.5554902991472"/>
      <point x="381.05333333333334" y="122.45333333333335" type="curve" smooth="yes"/>
      <point x="368.59999999999997" y="83.73333333333332"/>
      <point x="351.74666666666667" y="66.64000000000001"/>
      <point x="323.16" y="62.32" type="curve" smooth="yes"/>
      <point x="239.20000000000002" y="49.65333333333334" type="line" smooth="yes"/>
      <point x="219.94666666666666" y="45.09333333333332"/>
      <point x="207.81333333333333" y="37.253333333333316"/>
      <point x="207.17333333333335" y="22.15999999999999" type="curve" smooth="yes"/>
      <point x="206.53333333333333" y="9.01333333333333"/>
      <point x="216.61333333333332" y="0.0"/>
      <point x="238.3466666666666" y="0.0" type="curve" smooth="yes"/>
      <point x="693.8133333333333" y="0.0" type="line" smooth="yes"/>
      <point x="717.2800000000001" y="0.0"/>
      <point x="731.0400000000001" y="7.919999999999998"/>
      <point x="732.64" y="24.266666666666673" type="curve" smooth="yes"/>
      <point x="734.24" y="35.91999999999999"/>
      <point x="725.2" y="42.98666666666664"/>
      <point x="709.5466666666666" y="47.44" type="curve" smooth="yes"/>
      <point x="621.4533333333334" y="60.66666666666668" type="line" smooth="yes"/>
      <point x="593.6133333333333" y="65.28"/>
      <point x="582.2799999999999" y="80.98666666666668"/>
    </contour>
  </outline>
</glyph>
<glyph name="U" format="2">
  <advance width="1319.4666666666667"/>
  <unicode hex="0055"/>
  <anchor x="1001.6266666666668" y="1479.0" name="center"/>
  <outline>
    <contour>
      <point x="1032.04" y="410.74666666666667" type="line" smooth="yes"/>
      <point x="956.6933333333333" y="152.93333333333334"/>
      <point x="820.5333333333332" y="46.53333333333332"/>
      <point x="649.1466666666668" y="46.53333333333332" type="curve" smooth="yes"/>
      <point x="498.61333333333334" y="46.53333333333332"/>
      <point x="404.2" y="126.85333333333335"/>
      <point x="406.3066666666667" y="286.88000000000005" type="curve" smooth="yes"/>
      <point x="407.36" y="360.31999999999994"/>
      <point x="428.6933333333334" y="464.9866666666667"/>
      <point x="474.25333333333333" y="634.1066666666667" type="curve" smooth="yes"/>
      <point x="653.36" y="1268.0" type="line" smooth="yes"/>
      <point x="666.2533333333334" y="1312.9333333333336"/>
      <point x="680.9333333333333" y="1328.9066666666668"/>
      <point x="709.8933333333334" y="1335.3333333333333" type="curve" smooth="yes"/>
      <point x="794.4266666666667" y="1350.9066666666668" type="line" smooth="yes"/>
      <point x="819.1066666666667" y="1356.88"/>
      <point x="828.6533333333333" y="1368.0800000000002"/>
      <point x="828.8666666666666" y="1380.5066666666667" type="curve" smooth="yes"/>
      <point x="828.8666666666666" y="1392.88"/>
      <point x="819.3466666666667" y="1400.0"/>
      <point x="799.4533333333334" y="1400.0" type="curve" smooth="yes"/>
      <point x="344.14666666666665" y="1400.0" type="line" smooth="yes"/>
      <point x="322.68" y="1400.0"/>
      <point x="309.96000000000004" y="1390.4533333333336"/>
      <point x="309.7466666666666" y="1377.9466666666665" type="curve" smooth="yes"/>
      <point x="309.5333333333333" y="1364.2133333333334"/>
      <point x="316.40000000000003" y="1358.2666666666667"/>
      <point x="337.8933333333333" y="1350.9066666666668" type="curve" smooth="yes"/>
      <point x="414.8" y="1338.0533333333335" type="line" smooth="yes"/>
      <point x="441.11999999999995" y="1331.9466666666667"/>
      <point x="452.65333333333336" y="1307.7333333333333"/>
      <point x="443.16" y="1276.2666666666669" type="curve" smooth="yes"/>
      <point x="261.93333333333334" y="634.8800000000001" type="line" smooth="yes"/>
      <point x="230.0" y="521.1199999999999"/>
      <point x="194.65333333333334" y="370.64"/>
      <point x="193.88000000000005" y="300.4266666666667" type="curve" smooth="yes"/>
      <point x="191.7733333333333" y="114.02666666666664"/>
      <point x="314.36000000000007" y="-23.2"/>
      <point x="562.7333333333332" y="-23.2" type="curve"/>
      <point x="840.0133333333333" y="-23.2"/>
      <point x="1004.2666666666665" y="111.46666666666667"/>
      <point x="1091.6933333333334" y="408.74666666666667" type="curve" smooth="yes"/>
      <point x="1314.6933333333334" y="1160.5066666666667" type="line" smooth="yes"/>
      <point x="1346.9733333333334" y="1274.6133333333337"/>
      <point x="1392.5733333333333" y="1321.3733333333334"/>
      <point x="1455.4533333333331" y="1338.3999999999999" type="curve" smooth="yes"/>
      <point x="1506.5866666666666" y="1348.8799999999999" type="line" smooth="yes"/>
      <point x="1532.76" y="1356.5066666666667"/>
      <point x="1540.9466666666667" y="1364.0266666666669"/>
      <point x="1540.9466666666667" y="1379.333333333333" type="curve" smooth="yes"/>
      <point x="1540.9466666666667" y="1391.28"/>
      <point x="1530.68" y="1400.0"/>
      <point x="1511.64" y="1400.0" type="curve" smooth="yes"/>
      <point x="1152.44" y="1400.0" type="line" smooth="yes"/>
      <point x="1129.16" y="1400.0"/>
      <point x="1116.2266666666667" y="1390.0266666666669"/>
      <point x="1116.2266666666667" y="1376.0266666666664" type="curve" smooth="yes"/>
      <point x="1116.0133333333333" y="1362.8000000000002"/>
      <point x="1124.8266666666666" y="1356.0266666666669"/>
      <point x="1148.9600000000003" y="1347.92" type="curve" smooth="yes"/>
      <point x="1194.1066666666668" y="1339.52" type="line" smooth="yes"/>
      <point x="1261.4933333333333" y="1324.4800000000002"/>
      <point x="1284.5866666666668" y="1269.466666666667"/>
      <point x="1255.6133333333332" y="1164.88" type="curve" smooth="yes"/>
    </contour>
  </outline>
</glyph>
<glyph name="V" format="2">
  <advance width="1166.4800000000002"/>
  <unicode hex="0056"/>
  <outline>
    <contour>
      <point x="1029.6933333333334" y="1376.0266666666664" type="curve" smooth="yes"/>
      <point x="1029.6933333333334" y="1364.08"/>
      <point x="1039.3866666666668" y="1355.4"/>
      <point x="1056.7733333333333" y="1349.6266666666668" type="curve" smooth="yes"/>
      <point x="1105.8666666666666" y="1338.6666666666667" type="line" smooth="yes"/>
      <point x="1172.0266666666666" y="1319.6533333333332"/>
      <point x="1204.9466666666665" y="1250.32"/>
      <point x="1144.5066666666667" y="1153.8266666666668" type="curve" smooth="yes"/>
      <point x="492.33333333333326" y="123.73333333333333" type="line"/>
      <point x="545.1466666666665" y="153.13333333333333" type="line"/>
      <point x="550.4266666666666" y="510.36"/>
      <point x="551.1199999999999" y="1021.5466666666667"/>
      <point x="555.8533333333335" y="1243.1200000000001" type="curve" smooth="yes"/>
      <point x="555.8933333333334" y="1295.44"/>
      <point x="569.9333333333333" y="1327.8666666666668"/>
      <point x="609.2" y="1334.9333333333336" type="curve" smooth="yes"/>
      <point x="700.1600000000001" y="1350.9066666666668" type="line" smooth="yes"/>
      <point x="718.76" y="1354.8266666666666"/>
      <point x="727.3466666666667" y="1364.3466666666668"/>
      <point x="727.3466666666667" y="1378.8" type="curve" smooth="yes"/>
      <point x="727.3466666666667" y="1391.7333333333336"/>
      <point x="718.12" y="1400.0"/>
      <point x="701.88" y="1400.0" type="curve" smooth="yes"/>
      <point x="262.62666666666667" y="1400.0" type="line" smooth="yes"/>
      <point x="244.38666666666663" y="1400.0"/>
      <point x="229.13333333333333" y="1389.7866666666669"/>
      <point x="229.13333333333333" y="1375.8133333333333" type="curve" smooth="yes"/>
      <point x="229.13333333333333" y="1363.306666666667"/>
      <point x="235.19999999999996" y="1354.9999999999998"/>
      <point x="253.33333333333337" y="1350.2666666666667" type="curve" smooth="yes"/>
      <point x="309.7333333333333" y="1336.5333333333333" type="line" smooth="yes"/>
      <point x="340.44000000000005" y="1328.5466666666669"/>
      <point x="350.1333333333333" y="1306.0800000000002"/>
      <point x="350.0133333333334" y="1258.88" type="curve" smooth="yes"/>
      <point x="351.48" y="1028.6133333333335"/>
      <point x="349.8666666666667" y="318.3866666666666"/>
      <point x="345.3733333333333" y="208.66666666666663" type="curve" smooth="yes"/>
      <point x="345.24" y="183.48000000000002"/>
      <point x="346.53333333333336" y="158.77333333333337"/>
      <point x="337.3066666666666" y="131.52" type="curve" smooth="yes"/>
      <point x="314.8266666666666" y="53.03999999999999" type="line" smooth="yes"/>
      <point x="305.23999999999995" y="22.26666666666667"/>
      <point x="316.36" y="0.0"/>
      <point x="345.96" y="0.0" type="curve" smooth="yes"/>
      <point x="483.90666666666675" y="0.0" type="line" smooth="yes"/>
      <point x="514.1466666666666" y="0.0"/>
      <point x="530.48" y="17.200000000000003"/>
      <point x="538.8266666666667" y="44.63999999999999" type="curve" smooth="yes"/>
      <point x="557.6933333333334" y="111.81333333333332" type="line" smooth="yes"/>
      <point x="566.5599999999998" y="140.38666666666666"/>
      <point x="579.2133333333334" y="162.43999999999997"/>
      <point x="594.7733333333334" y="186.79999999999998" type="curve" smooth="yes"/>
      <point x="1205.613333333333" y="1144.16" type="line" smooth="yes"/>
      <point x="1268.9466666666665" y="1244.7066666666667"/>
      <point x="1327.7333333333336" y="1316.813333333333"/>
      <point x="1390.8800000000003" y="1339.0933333333332" type="curve" smooth="yes"/>
      <point x="1423.5200000000002" y="1348.6666666666667" type="line" smooth="yes"/>
      <point x="1444.6" y="1355.5866666666668"/>
      <point x="1452.3333333333333" y="1364.5599999999997"/>
      <point x="1452.3333333333333" y="1379.4400000000003" type="curve" smooth="yes"/>
      <point x="1452.3333333333333" y="1391.8133333333335"/>
      <point x="1441.6399999999999" y="1400.0"/>
      <point x="1420.7866666666666" y="1400.0" type="curve" smooth="yes"/>
      <point x="1058.6533333333334" y="1400.0" type="line" smooth="yes"/>
      <point x="1042.2" y="1400.0"/>
      <point x="1029.6933333333334" y="1390.4533333333336"/>
    </contour>
  </outline>
</glyph>
<glyph name="W" format="2">
  <advance width="1812.7999999999997"/>
  <unicode hex="0057"/>
  <anchor x="1230.2266666666667" y="1478.0" name="center"/>
  <outline>
    <contour>
      <point x="1092.6933333333334" y="1156.32" type="line"/>
      <point x="484.1333333333333" y="150.69333333333333" type="line"/>
      <point x="530.5600000000001" y="168.26666666666662" type="line"/>
      <point x="538.1466666666666" y="519.96"/>
      <point x="548.0" y="1069.3333333333335"/>
      <point x="552.48" y="1250.4133333333336" type="curve" smooth="yes"/>
      <point x="554.8133333333335" y="1304.6133333333335"/>
      <point x="570.2800000000001" y="1328.2000000000003"/>
      <point x="612.56" y="1336.0933333333332" type="curve" smooth="yes"/>
      <point x="691.04" y="1350.413333333333" type="line" smooth="yes"/>
      <point x="713.2266666666667" y="1355.72"/>
      <point x="723.7600000000001" y="1365.0666666666668"/>
      <point x="723.76" y="1378.24" type="curve" smooth="yes"/>
      <point x="723.76" y="1392.2666666666667"/>
      <point x="715.5333333333333" y="1400.0"/>
      <point x="691.8533333333332" y="1400.0" type="curve" smooth="yes"/>
      <point x="264.34666666666664" y="1400.0" type="line" smooth="yes"/>
      <point x="241.78666666666666" y="1400.0"/>
      <point x="229.48" y="1391.7733333333333"/>
      <point x="229.48" y="1376.4133333333332" type="curve" smooth="yes"/>
      <point x="229.48" y="1363.693333333333"/>
      <point x="238.3466666666667" y="1355.9599999999998"/>
      <point x="260.25333333333333" y="1350.053333333333" type="curve" smooth="yes"/>
      <point x="306.5733333333334" y="1337.9466666666667" type="line" smooth="yes"/>
      <point x="339.25333333333333" y="1330.1066666666668"/>
      <point x="348.38666666666666" y="1308.5866666666666"/>
      <point x="348.52" y="1264.5333333333333" type="curve" smooth="yes"/>
      <point x="349.52" y="994.1600000000002"/>
      <point x="339.91999999999996" y="308.52"/>
      <point x="335.5466666666667" y="197.78666666666672" type="curve" smooth="yes"/>
      <point x="335.3733333333333" y="172.33333333333334"/>
      <point x="332.43999999999994" y="149.21333333333337"/>
      <point x="324.78666666666675" y="126.3066666666667" type="curve" smooth="yes"/>
      <point x="302.6666666666667" y="48.02666666666666" type="line" smooth="yes"/>
      <point x="292.1866666666666" y="16.666666666666668"/>
      <point x="307.78666666666663" y="0.0"/>
      <point x="342.08000000000004" y="0.0" type="curve" smooth="yes"/>
      <point x="453.5199999999999" y="0.0" type="line" smooth="yes"/>
      <point x="488.33333333333326" y="0.0"/>
      <point x="506.43999999999994" y="15.239999999999997"/>
      <point x="516.2400000000001" y="43.46666666666666" type="curve" smooth="yes"/>
      <point x="535.4800000000001" y="108.70666666666666" type="line" smooth="yes"/>
      <point x="546.0266666666669" y="144.2133333333333"/>
      <point x="556.0400000000001" y="164.17333333333335"/>
      <point x="576.6266666666666" y="196.51999999999998" type="curve" smooth="yes"/>
      <point x="1117.7066666666667" y="1102.84" type="line"/>
    </contour>
    <contour>
      <point x="1680.0266666666666" y="1375.3866666666665" type="curve" smooth="yes"/>
      <point x="1680.0266666666666" y="1364.3333333333333"/>
      <point x="1688.0" y="1357.2533333333333"/>
      <point x="1704.4533333333334" y="1352.3600000000001" type="curve" smooth="yes"/>
      <point x="1760.3733333333332" y="1340.0933333333335" type="line" smooth="yes"/>
      <point x="1837.8933333333332" y="1319.2800000000002"/>
      <point x="1853.1866666666665" y="1254.7333333333331"/>
      <point x="1808.3733333333332" y="1175.4533333333331" type="curve" smooth="yes"/>
      <point x="1213.3333333333333" y="154.76000000000002" type="line"/>
      <point x="1258.1866666666665" y="169.67999999999998" type="line"/>
      <point x="1253.9466666666667" y="354.4666666666666"/>
      <point x="1259.1199999999997" y="1099.3333333333333"/>
      <point x="1259.0666666666666" y="1244.0266666666669" type="curve" smooth="yes"/>
      <point x="1259.0266666666664" y="1303.9733333333336"/>
      <point x="1273.3999999999996" y="1326.2266666666667"/>
      <point x="1316.1200000000001" y="1335.4533333333334" type="curve" smooth="yes"/>
      <point x="1394.2933333333333" y="1350.6266666666666" type="line" smooth="yes"/>
      <point x="1412.6933333333334" y="1356.0400000000002"/>
      <point x="1424.6933333333334" y="1365.2"/>
      <point x="1424.6933333333334" y="1378.4133333333334" type="curve" smooth="yes"/>
      <point x="1424.6933333333334" y="1393.3066666666668"/>
      <point x="1414.7466666666667" y="1400.0"/>
      <point x="1395.6399999999999" y="1400.0" type="curve" smooth="yes"/>
      <point x="987.4400000000002" y="1400.0" type="line" smooth="yes"/>
      <point x="964.6533333333333" y="1400.0"/>
      <point x="951.0400000000001" y="1391.1333333333337"/>
      <point x="951.0400000000001" y="1374.9599999999996" type="curve" smooth="yes"/>
      <point x="951.0400000000001" y="1364.2666666666664"/>
      <point x="960.8133333333334" y="1355.8266666666666"/>
      <point x="974.2133333333334" y="1351.76" type="curve" smooth="yes"/>
      <point x="1020.2133333333333" y="1340.1866666666667" type="line" smooth="yes"/>
      <point x="1054.5866666666666" y="1331.96"/>
      <point x="1063.8133333333333" y="1310.1866666666667"/>
      <point x="1066.1999999999998" y="1263.5733333333333" type="curve" smooth="yes"/>
      <point x="1073.0933333333335" y="1091.6133333333332"/>
      <point x="1067.8400000000001" y="328.9466666666666"/>
      <point x="1067.1733333333332" y="197.01333333333332" type="curve" smooth="yes"/>
      <point x="1066.76" y="171.34666666666666"/>
      <point x="1064.2933333333333" y="146.58666666666667"/>
      <point x="1055.8933333333332" y="120.76000000000002" type="curve" smooth="yes"/>
      <point x="1035.4533333333334" y="53.466666666666654" type="line" smooth="yes"/>
      <point x="1024.1466666666668" y="19.453333333333333"/>
      <point x="1039.8799999999999" y="0.0"/>
      <point x="1067.7333333333333" y="0.0" type="curve" smooth="yes"/>
      <point x="1187.5866666666666" y="0.0" type="line" smooth="yes"/>
      <point x="1215.2133333333334" y="0.0"/>
      <point x="1235.8933333333337" y="14.053333333333331"/>
      <point x="1244.8533333333335" y="45.33333333333333" type="curve" smooth="yes"/>
      <point x="1263.493333333333" y="109.33333333333334" type="line" smooth="yes"/>
      <point x="1274.5333333333333" y="146.7866666666667"/>
      <point x="1284.8133333333333" y="168.61333333333334"/>
      <point x="1298.5733333333335" y="190.35999999999999" type="curve" smooth="yes"/>
      <point x="1864.3866666666663" y="1163.4533333333331" type="line" smooth="yes"/>
      <point x="1916.146666666667" y="1252.1866666666665"/>
      <point x="1977.1066666666668" y="1318.3866666666668"/>
      <point x="2030.5333333333335" y="1339.4933333333333" type="curve" smooth="yes"/>
      <point x="2055.0" y="1348.0666666666668" type="line" smooth="yes"/>
      <point x="2082.826666666667" y="1358.12"/>
      <point x="2094.9866666666667" y="1367.5866666666666"/>
      <point x="2094.986666666666" y="1378.7333333333333" type="curve" smooth="yes"/>
      <point x="2094.9866666666667" y="1392.2133333333334"/>
      <point x="2087.0133333333333" y="1400.0"/>
      <point x="2064.1333333333337" y="1400.0" type="curve" smooth="yes"/>
      <point x="1714.6399999999999" y="1400.0" type="line" smooth="yes"/>
      <point x="1693.32" y="1400.0"/>
      <point x="1680.0266666666666" y="1390.0266666666666"/>
    </contour>
  </outline>
</glyph>
<glyph name="X" format="2">
  <advance width="1232.906666666667"/>
  <unicode hex="0058"/>
  <outline>
    <contour>
      <point x="621.3733333333334" y="719.7333333333333" type="line"/>
      <point x="223.81333333333333" y="212.18666666666667" type="line" smooth="yes"/>
      <point x="145.84000000000003" y="114.19999999999999"/>
      <point x="57.01333333333332" y="61.880000000000024"/>
      <point x="-17.026666666666678" y="52.12000000000001" type="curve" smooth="yes"/>
      <point x="-41.98666666666667" y="43.773333333333355"/>
      <point x="-51.8" y="36.99999999999999"/>
      <point x="-52.08" y="21.960000000000008" type="curve" smooth="yes"/>
      <point x="-52.08" y="8.573333333333329"/>
      <point x="-43.33333333333333" y="0.0"/>
      <point x="-22.746666666666663" y="0.0" type="curve" smooth="yes"/>
      <point x="330.0266666666667" y="0.0" type="line" smooth="yes"/>
      <point x="351.67999999999995" y="0.0"/>
      <point x="366.88" y="10.853333333333335"/>
      <point x="366.88" y="26.799999999999997" type="curve" smooth="yes"/>
      <point x="367.15999999999997" y="38.91999999999998"/>
      <point x="358.2666666666667" y="45.466666666666654"/>
      <point x="341.2133333333333" y="49.14666666666665" type="curve" smooth="yes"/>
      <point x="295.1466666666667" y="56.41333333333335" type="line" smooth="yes"/>
      <point x="227.69333333333333" y="69.10666666666668"/>
      <point x="220.77333333333334" y="112.17333333333335"/>
      <point x="288.8933333333333" y="201.09333333333333" type="curve" smooth="yes"/>
      <point x="652.2666666666667" y="678.9066666666666" type="line"/>
    </contour>
    <contour>
      <point x="627.08" y="1267.466666666667" type="curve" smooth="yes"/>
      <point x="614.6666666666667" y="1309.5466666666666"/>
      <point x="628.0666666666668" y="1334.9866666666667"/>
      <point x="666.5866666666666" y="1341.4533333333331" type="curve" smooth="yes"/>
      <point x="729.8133333333334" y="1351.1066666666666" type="line" smooth="yes"/>
      <point x="749.8266666666665" y="1356.9066666666663"/>
      <point x="760.4266666666665" y="1365.4666666666665"/>
      <point x="760.4266666666665" y="1378.5466666666664" type="curve" smooth="yes"/>
      <point x="760.7466666666666" y="1392.0533333333333"/>
      <point x="750.9333333333333" y="1400.0"/>
      <point x="728.0133333333332" y="1400.0" type="curve" smooth="yes"/>
      <point x="306.25333333333333" y="1400.0" type="line" smooth="yes"/>
      <point x="284.82666666666665" y="1400.0"/>
      <point x="270.3866666666667" y="1391.3999999999999"/>
      <point x="270.0666666666667" y="1377.2666666666664" type="curve" smooth="yes"/>
      <point x="270.0666666666667" y="1365.1866666666665"/>
      <point x="278.06666666666666" y="1357.2666666666667"/>
      <point x="303.5333333333333" y="1350.7066666666667" type="curve" smooth="yes"/>
      <point x="368.02666666666664" y="1340.293333333333"/>
      <point x="388.09333333333336" y="1323.0400000000002"/>
      <point x="406.56" y="1271.2666666666667" type="curve" smooth="yes"/>
      <point x="467.6" y="1107.0266666666666"/>
      <point x="740.0666666666665" y="270.0666666666667"/>
      <point x="777.64" y="149.25333333333333" type="curve" smooth="yes"/>
      <point x="793.8799999999999" y="94.69333333333333"/>
      <point x="789.5999999999999" y="68.28"/>
      <point x="746.76" y="59.44000000000002" type="curve" smooth="yes"/>
      <point x="685.84" y="49.56000000000003" type="line" smooth="yes"/>
      <point x="663.0266666666666" y="43.29333333333331"/>
      <point x="653.5466666666666" y="34.87999999999998"/>
      <point x="653.2266666666667" y="21.92000000000001" type="curve" smooth="yes"/>
      <point x="653.2266666666667" y="8.626666666666672"/>
      <point x="662.2800000000001" y="0.0"/>
      <point x="688.64" y="0.0" type="curve" smooth="yes"/>
      <point x="1109.626666666667" y="0.0" type="line" smooth="yes"/>
      <point x="1131.4266666666665" y="0.0"/>
      <point x="1145.4933333333336" y="10.013333333333339"/>
      <point x="1145.4933333333336" y="24.013333333333343" type="curve" smooth="yes"/>
      <point x="1145.4933333333336" y="35.493333333333325"/>
      <point x="1138.1733333333332" y="42.973333333333315"/>
      <point x="1116.9866666666667" y="48.24000000000002" type="curve" smooth="yes"/>
      <point x="1042.2666666666667" y="60.906666666666666"/>
      <point x="1017.8533333333335" y="78.22666666666666"/>
      <point x="997.4" y="140.32" type="curve" smooth="yes"/>
      <point x="934.7199999999999" y="308.6"/>
      <point x="670.1333333333334" y="1123.1866666666667"/>
    </contour>
    <contour>
      <point x="754.1866666666667" y="710.9066666666668" type="line"/>
      <point x="1045.1066666666668" y="1115.2666666666667" type="line" smooth="yes"/>
      <point x="1119.3200000000002" y="1216.4133333333334"/>
      <point x="1174.0266666666666" y="1250.9733333333334"/>
      <point x="1238.7733333333333" y="1260.8133333333333" type="curve" smooth="yes"/>
      <point x="1271.226666666667" y="1265.506666666667"/>
      <point x="1295.906666666667" y="1258.7733333333333"/>
      <point x="1334.3866666666668" y="1260.5066666666667" type="curve" smooth="yes"/>
      <point x="1395.6533333333334" y="1264.7733333333333"/>
      <point x="1435.8266666666666" y="1299.84"/>
      <point x="1435.8266666666666" y="1352.3066666666666" type="curve" smooth="yes"/>
      <point x="1436.1066666666666" y="1395.1333333333334"/>
      <point x="1407.08" y="1429.36"/>
      <point x="1345.4" y="1429.36" type="curve" smooth="yes"/>
      <point x="1253.0533333333333" y="1429.36"/>
      <point x="1175.72" y="1373.8"/>
      <point x="1073.5466666666666" y="1240.0666666666666" type="curve" smooth="yes"/>
      <point x="714.6399999999998" y="742.56" type="line"/>
    </contour>
  </outline>
</glyph>
<glyph name="Y" format="2">
  <advance width="1110.8533333333332"/>
  <unicode hex="0059"/>
  <anchor x="858.9600000000002" y="1498.0" name="center"/>
  <outline>
    <contour>
      <point x="627.0266666666668" y="476.4" type="line"/>
      <point x="661.5333333333334" y="477.06666666666666" type="line"/>
      <point x="642.52" y="585.0266666666666"/>
      <point x="561.1866666666666" y="1242.6666666666665"/>
      <point x="545.6266666666667" y="1325.5066666666667" type="curve" smooth="yes"/>
      <point x="536.32" y="1376.0266666666666"/>
      <point x="510.1733333333334" y="1400.0"/>
      <point x="454.58666666666676" y="1400.0" type="curve" smooth="yes"/>
      <point x="252.88000000000002" y="1400.0" type="line" smooth="yes"/>
      <point x="231.24" y="1400.0"/>
      <point x="217.62666666666664" y="1389.9866666666667"/>
      <point x="217.9466666666667" y="1374.8533333333332" type="curve" smooth="yes"/>
      <point x="218.26666666666668" y="1361.6933333333334"/>
      <point x="228.17333333333332" y="1353.8266666666666"/>
      <point x="248.4" y="1350.0399999999997" type="curve" smooth="yes"/>
      <point x="314.89333333333326" y="1342.9200000000003"/>
      <point x="340.4533333333333" y="1322.7066666666665"/>
      <point x="348.9066666666667" y="1278.0133333333333" type="curve" smooth="yes"/>
      <point x="363.28000000000003" y="1207.28"/>
      <point x="437.5333333333333" y="592.0266666666666"/>
      <point x="450.64" y="511.49333333333334" type="curve" smooth="yes"/>
      <point x="455.6" y="477.8533333333334"/>
      <point x="458.91999999999996" y="448.9466666666667"/>
      <point x="449.58666666666664" y="416.81333333333333" type="curve" smooth="yes"/>
      <point x="372.2666666666666" y="127.04000000000002" type="line" smooth="yes"/>
      <point x="361.2266666666667" y="89.07999999999998"/>
      <point x="339.58666666666664" y="65.58666666666666"/>
      <point x="296.34666666666664" y="59.45333333333334" type="curve" smooth="yes"/>
      <point x="225.16" y="49.89333333333335" type="line" smooth="yes"/>
      <point x="205.02666666666667" y="45.05333333333331"/>
      <point x="193.57333333333332" y="35.53333333333332"/>
      <point x="193.5733333333333" y="22.85333333333334" type="curve" smooth="yes"/>
      <point x="193.5733333333333" y="8.746666666666668"/>
      <point x="202.09333333333333" y="0.0"/>
      <point x="223.78666666666666" y="0.0" type="curve" smooth="yes"/>
      <point x="673.0533333333332" y="0.0" type="line" smooth="yes"/>
      <point x="699.1333333333332" y="0.0"/>
      <point x="714.6" y="8.800000000000004"/>
      <point x="714.5999999999999" y="26.06666666666667" type="curve" smooth="yes"/>
      <point x="714.6" y="36.26666666666665"/>
      <point x="707.7866666666665" y="43.36000000000002"/>
      <point x="686.3866666666667" y="49.133333333333354" type="curve" smooth="yes"/>
      <point x="618.8533333333334" y="59.04000000000001" type="line" smooth="yes"/>
      <point x="582.84" y="65.27999999999999"/>
      <point x="574.6133333333332" y="85.48000000000002"/>
      <point x="583.5733333333332" y="118.92000000000002" type="curve" smooth="yes"/>
      <point x="656.4933333333333" y="408.1066666666667" type="line" smooth="yes"/>
      <point x="662.9066666666668" y="431.2266666666667"/>
      <point x="670.6933333333334" y="452.0666666666667"/>
      <point x="689.04" y="482.48" type="curve" smooth="yes"/>
      <point x="1025.0933333333332" y="1069.2" type="line" smooth="yes"/>
      <point x="1089.64" y="1176.08"/>
      <point x="1153.5066666666667" y="1215.4666666666665"/>
      <point x="1236.0266666666664" y="1237.5066666666667" type="curve" smooth="yes"/>
      <point x="1326.4133333333332" y="1262.3733333333332"/>
      <point x="1372.2933333333333" y="1299.2533333333333"/>
      <point x="1372.5733333333333" y="1356.7333333333333" type="curve" smooth="yes"/>
      <point x="1372.8533333333335" y="1397.8133333333333"/>
      <point x="1342.8666666666668" y="1429.92"/>
      <point x="1285.6933333333334" y="1429.92" type="curve" smooth="yes"/>
      <point x="1203.7200000000003" y="1429.92"/>
      <point x="1134.1200000000001" y="1375.4533333333336"/>
      <point x="1032.6000000000001" y="1200.16" type="curve" smooth="yes"/>
    </contour>
  </outline>
</glyph>
<glyph name="Z" format="2">
  <advance width="1160.2400000000002"/>
  <unicode hex="005A"/>
  <anchor x="911.8133333333334" y="1504.0" name="center"/>
  <outline>
    <contour>
      <point x="686.5066666666668" y="0.0" type="line" smooth="yes"/>
      <point x="737.7466666666667" y="0.0"/>
      <point x="765.3333333333335" y="-22.53333333333333"/>
      <point x="807.8000000000001" y="-22.53333333333333" type="curve" smooth="yes"/>
      <point x="930.2399999999999" y="-22.53333333333333"/>
      <point x="1049.9733333333336" y="138.45333333333332"/>
      <point x="1059.16" y="345.7333333333333" type="curve" smooth="yes"/>
      <point x="1059.6266666666666" y="364.5866666666667"/>
      <point x="1052.6666666666667" y="376.82666666666665"/>
      <point x="1036.6399999999999" y="376.82666666666665" type="curve" smooth="yes"/>
      <point x="1023.1333333333334" y="377.1066666666667"/>
      <point x="1014.9333333333332" y="368.97333333333336"/>
      <point x="1002.3333333333333" y="346.4" type="curve" smooth="yes"/>
      <point x="881.0266666666668" y="99.7466666666667"/>
      <point x="764.1999999999998" y="45.853333333333325"/>
      <point x="634.1333333333333" y="45.853333333333325" type="curve" smooth="yes"/>
      <point x="217.58666666666664" y="45.853333333333325" type="line"/>
      <point x="237.42666666666673" y="33.013333333333335" type="line"/>
      <point x="384.09333333333336" y="198.52000000000004"/>
      <point x="1164.4266666666667" y="1159.3333333333335"/>
      <point x="1293.9066666666668" y="1322.3733333333334" type="curve" smooth="yes"/>
      <point x="1313.2666666666669" y="1342.7200000000003"/>
      <point x="1326.64" y="1358.1866666666665"/>
      <point x="1326.92" y="1373.5866666666668" type="curve" smooth="yes"/>
      <point x="1326.9199999999998" y="1392.1866666666665"/>
      <point x="1315.3600000000001" y="1399.68"/>
      <point x="1287.4" y="1399.68" type="curve" smooth="yes"/>
      <point x="607.2666666666665" y="1399.68" type="line" smooth="yes"/>
      <point x="546.0933333333335" y="1399.68"/>
      <point x="520.36" y="1430.96"/>
      <point x="490.40000000000003" y="1430.96" type="curve" smooth="yes"/>
      <point x="470.14666666666665" y="1430.96"/>
      <point x="459.48" y="1421.1733333333336"/>
      <point x="441.77333333333326" y="1390.8133333333328" type="curve" smooth="yes"/>
      <point x="318.1333333333333" y="1152.2933333333333" type="line" smooth="yes"/>
      <point x="301.65333333333336" y="1126.3866666666665"/>
      <point x="301.36000000000007" y="1109.6000000000001"/>
      <point x="318.2133333333333" y="1102.5866666666666" type="curve" smooth="yes"/>
      <point x="334.25333333333333" y="1095.4"/>
      <point x="353.3866666666666" y="1101.8933333333334"/>
      <point x="372.05333333333334" y="1125.5866666666664" type="curve" smooth="yes"/>
      <point x="486.4933333333334" y="1281.493333333333"/>
      <point x="590.5600000000001" y="1355.3600000000001"/>
      <point x="701.5066666666665" y="1355.3600000000001" type="curve" smooth="yes"/>
      <point x="1114.6266666666666" y="1355.3600000000001" type="line"/>
      <point x="1094.0266666666666" y="1376.84" type="line"/>
      <point x="990.9333333333335" y="1266.3333333333335"/>
      <point x="158.96" y="225.83999999999997"/>
      <point x="24.639999999999993" y="81.78666666666665" type="curve" smooth="yes"/>
      <point x="7.786666666666669" y="63.98666666666668"/>
      <point x="-4.346666666666668" y="46.30666666666666"/>
      <point x="-4.626666666666662" y="29.73333333333333" type="curve" smooth="yes"/>
      <point x="-4.626666666666662" y="10.186666666666667"/>
      <point x="8.519999999999992" y="0.0"/>
      <point x="34.48" y="0.0" type="curve" smooth="yes"/>
    </contour>
  </outline>
</glyph>
